<?xml version="1.0" standalone="no"?><!DOCTYPE svg PUBLIC "-//W3C//DTD SVG 1.1//EN" "http://www.w3.org/Graphics/SVG/1.1/DTD/svg11.dtd"><svg t="1697625650602" class="icon" viewBox="0 0 1024 1024" version="1.1" xmlns="http://www.w3.org/2000/svg" p-id="930" xmlns:xlink="http://www.w3.org/1999/xlink" width="200" height="200"><path d="M22.144 221.696h979.84v-90.24H22.144v90.24z" fill="#AEC9FF" p-id="931"></path><path d="M375.68 334.72c86.4 0 156.8-70.4 156.8-156.8S462.08 21.76 375.68 21.76 219.52 91.52 219.52 177.92c0 86.4 69.76 156.8 156.16 156.8z" fill="#1870FD" p-id="932"></path><path d="M22.144 889.088h979.84v-90.24H22.144v90.24z" fill="#AEC9FF" p-id="933"></path><path d="M335.488 1002.048c86.4 0 156.8-70.4 156.8-156.8s-70.4-156.16-156.8-156.16-156.16 69.76-156.16 156.16c0 86.4 69.76 156.8 156.16 156.8z" fill="#1870FD" p-id="934"></path><path d="M22.144 561.856h979.84v-90.24H22.144v90.24z" fill="#AEC9FF" p-id="935"></path><path d="M728.256 674.816c86.4 0 156.8-70.4 156.8-156.8 0-55.68-30.08-107.52-78.08-135.04-48.64-28.16-108.16-28.16-156.8 0a156.48 156.48 0 0 0 78.08 291.84z" fill="#1870FD" p-id="936"></path></svg>