<svg xmlns="http://www.w3.org/2000/svg" viewBox="0 0 1024 1024" version="1.1"><path d="M522.7 458.7c-17.1 0-32 14.9-32 32v362.7c0 17.1 14.9 32 32 32S554.7 870.4 554.7 853.3V490.7c0-17.1-14.9-32-32-32zM341.3 554.7H106.7c-17.1 0-32 14.9-32 32S89.6 618.7 106.7 618.7h74.7v234.7c0 17.1 14.9 32 32 32s32-14.9 32-32V618.7H341.3c17.1 0 32-14.9 32-32S358.4 554.7 341.3 554.7zM693.3 373.3c0-17.1-14.9-32-32-32h-106.7V170.7c0-17.1-14.9-32-32-32S490.7 153.6 490.7 170.7v170.7h-106.7c-17.1 0-32 14.9-32 32S366.9 405.3 384 405.3h277.3c17.1 0 32-14.9 32-32zM917.3 618.7H682.7c-17.1 0-32 14.9-32 32S665.6 682.7 682.7 682.7h96v170.7c0 17.1 14.9 32 32 32s32-14.9 32-32v-170.7H917.3c17.1 0 32-14.9 32-32S934.4 618.7 917.3 618.7zM213.3 458.7c17.1 0 32-14.9 32-32V170.7c0-17.1-14.9-32-32-32S181.3 153.6 181.3 170.7v256c0 17.1 14.9 32 32 32zM810.7 522.7c17.1 0 32-14.9 32-32V170.7c0-17.1-14.9-32-32-32s-32 14.9-32 32v320c0 17.1 14.9 32 32 32z" fill="#666666" p-id="559"></path></svg>