<svg xmlns="http://www.w3.org/2000/svg" viewBox="0 0 1024 1024" version="1.1"><path d="M512 74.7C270.9 74.7 74.7 270.9 74.7 512S270.9 949.3 512 949.3 949.3 753.1 949.3 512 753.1 74.7 512 74.7z m0 810.7c-204.8 0-373.3-168.5-373.3-373.3S307.2 138.7 512 138.7 885.3 307.2 885.3 512 716.8 885.3 512 885.3z" fill="#666666" p-id="582"></path><path d="M546.1 309.3c-12.8-12.8-32-12.8-44.8-2.1-12.8 12.8-12.8 32-2.1 44.8l119.5 128H341.3c-17.1 0-32 14.9-32 32s14.9 32 32 32h277.3l-119.5 128c-12.8 12.8-10.7 34.1 2.1 44.8 6.4 6.4 14.9 8.5 21.3 8.5 8.5 0 17.1-4.3 23.5-10.7l170.7-181.3c10.7-12.8 10.7-32 0-44.8l-170.7-179.2z" fill="#666666" p-id="583"></path></svg>