<svg xmlns="http://www.w3.org/2000/svg" viewBox="0 0 1024 1024" version="1.1"><path d="M512 74.7C270.9 74.7 74.7 270.9 74.7 512S270.9 949.3 512 949.3 949.3 753.1 949.3 512 753.1 74.7 512 74.7z m0 810.7c-204.8 0-373.3-168.5-373.3-373.3S307.2 138.7 512 138.7 885.3 307.2 885.3 512 716.8 885.3 512 885.3z" fill="#666666" p-id="570"></path><path d="M533.3 307.2c-12.8-10.7-32-10.7-44.8 0l-181.3 170.7c-12.8 12.8-12.8 32-2.1 44.8s32 12.8 44.8 2.1l128-119.5v277.3c0 17.1 14.9 32 32 32s32-14.9 32-32V405.3l128 119.5c6.4 6.4 14.9 8.5 21.3 8.5 8.5 0 17.1-4.3 23.5-10.7 12.8-12.8 10.7-34.1-2.1-44.8l-179.2-170.7z" fill="#666666" p-id="571"></path></svg>