<svg xmlns="http://www.w3.org/2000/svg" viewBox="0 0 1024 1024" version="1.1"><path d="M544 522.7c0-8.5-4.3-17.1-10.7-23.5L192 189.9c-12.8-12.8-34.1-10.7-44.8 2.1-12.8 12.8-10.7 34.1 2.1 44.8l315.7 285.9L149.3 808.5c-12.8 12.8-14.9 32-2.1 44.8 6.4 6.4 14.9 10.7 23.5 10.7 8.5 0 14.9-2.1 21.3-8.5l341.3-309.3c6.4-6.4 10.7-14.9 10.7-23.5z" fill="#666666" p-id="697"></path><path d="M864 499.2l-341.3-309.3c-12.8-12.8-34.1-10.7-44.8 2.1-12.8 12.8-10.7 34.1 2.1 44.8l315.7 285.9-315.7 285.9c-12.8 12.8-14.9 32-2.1 44.8 6.4 6.4 14.9 10.7 23.5 10.7 8.5 0 14.9-2.1 21.3-8.5l341.3-309.3c6.4-6.4 10.7-14.9 10.7-23.5 0-8.5-4.3-17.1-10.7-23.5z" fill="#666666" p-id="698"></path></svg>