<svg xmlns="http://www.w3.org/2000/svg" viewBox="0 0 1024 1024" version="1.1"><path d="M842.7 864c-8.5 0-14.9-2.1-21.3-8.5l-341.3-309.3c-6.4-6.4-10.7-14.9-10.7-23.5 0-8.5 4.3-17.1 10.7-23.5l341.3-309.3c12.8-12.8 34.1-10.7 44.8 2.1 12.8 12.8 10.7 34.1-2.1 44.8L548.3 522.7l315.7 285.9c12.8 10.7 14.9 32 2.1 44.8-6.4 6.4-14.9 10.7-23.5 10.7z" fill="#666666" p-id="673"></path><path d="M512 864c-8.5 0-14.9-2.1-21.3-8.5L149.3 546.1c-6.4-6.4-10.7-14.9-10.7-23.5 0-8.5 4.3-17.1 10.7-23.5L490.7 189.9c12.8-12.8 34.1-10.7 44.8 2.1 12.8 12.8 10.7 34.1-2.1 44.8L217.6 522.7 533.3 808.5c12.8 12.8 14.9 32 2.1 44.8-6.4 6.4-14.9 10.7-23.5 10.7z" fill="#666666" p-id="674"></path></svg>