<svg xmlns="http://www.w3.org/2000/svg" viewBox="0 0 1024 1024" version="1.1"><path d="M512 74.7C270.9 74.7 74.7 270.9 74.7 512S270.9 949.3 512 949.3 949.3 753.1 949.3 512 753.1 74.7 512 74.7z m0 810.7c-204.8 0-373.3-168.5-373.3-373.3S307.2 138.7 512 138.7 885.3 307.2 885.3 512 716.8 885.3 512 885.3z" fill="#666666" p-id="685"></path><path d="M682.7 480H405.3l119.5-128c12.8-12.8 10.7-34.1-2.1-44.8s-34.1-10.7-44.8 2.1l-170.7 181.3c-10.7 12.8-10.7 32 0 44.8l170.7 181.3c6.4 6.4 14.9 10.7 23.5 10.7 8.5 0 14.9-2.1 21.3-8.5 12.8-12.8 12.8-32 2.1-44.8l-119.5-128h277.3c17.1 0 32-14.9 32-32s-14.9-34.1-32-34.1z" fill="#666666" p-id="686"></path></svg>