<svg xmlns="http://www.w3.org/2000/svg" viewBox="0 0 1024 1024" version="1.1"><path d="M874.7 241.1h-202.7V170.7c0-40.5-34.1-74.7-74.7-74.7h-170.7c-40.5 0-74.7 34.1-74.7 74.7v70.4H149.3c-17.1 0-32 14.9-32 32s14.9 32 32 32h53.3V853.3c0 40.5 34.1 74.7 74.7 74.7h469.3c40.5 0 74.7-34.1 74.7-74.7V305.1H874.7c17.1 0 32-14.9 32-32s-14.9-32-32-32zM416 170.7c0-6.4 4.3-10.7 10.7-10.7h170.7c6.4 0 10.7 4.3 10.7 10.7v70.4h-192V170.7z m341.3 682.7c0 6.4-4.3 10.7-10.7 10.7H277.3c-6.4 0-10.7-4.3-10.7-10.7V309.3h490.7V853.3z" fill="#666666" p-id="605"></path><path d="M426.7 736c17.1 0 32-14.9 32-32V490.7c0-17.1-14.9-32-32-32s-32 14.9-32 32v213.3c0 17.1 14.9 32 32 32zM597.3 736c17.1 0 32-14.9 32-32V490.7c0-17.1-14.9-32-32-32s-32 14.9-32 32v213.3c0 17.1 14.9 32 32 32z" fill="#666666" p-id="606"></path></svg>