<svg xmlns="http://www.w3.org/2000/svg" viewBox="0 0 1024 1024" version="1.1"><path d="M874.7 467.2c-10.7-10.7-29.9-12.8-42.7 0l-343.5 341.3c-74.7 74.7-198.4 74.7-275.2 0-36.3-36.3-57.6-85.3-57.6-136.5s19.2-100.3 57.6-136.5L556.8 192c46.9-46.9 121.6-46.9 168.5 0 23.5 23.5 34.1 53.3 34.1 83.2 0 32-12.8 61.9-34.1 83.2L384 704c-17.1 17.1-44.8 17.1-64 0-8.5-8.5-12.8-19.2-12.8-32s4.3-23.5 12.8-32l317.9-315.7c10.7-10.7 12.8-29.9 0-42.7-10.7-12.8-29.9-12.8-42.7 0L277.3 597.3c-19.2 19.2-29.9 46.9-29.9 74.7S258.1 725.3 277.3 746.7c40.5 40.5 106.7 40.5 147.2 0L768 403.2c34.1-34.1 53.3-78.9 53.3-125.9s-19.2-93.9-53.3-125.9a179 179 0 0 0-253.9 0l-341.3 341.3c-46.9 46.9-74.7 110.9-74.7 179.2s25.6 132.3 74.7 179.2c49.1 49.1 115.2 74.7 179.2 74.7s130.1-25.6 179.2-74.7l343.5-341.3c10.7-12.8 10.7-32 0-42.7z" fill="#666666" p-id="744"></path></svg>