<svg xmlns="http://www.w3.org/2000/svg" viewBox="0 0 1024 1024" version="1.1"><path d="M853.3 245.3H245.3l93.9-93.9c12.8-12.8 12.8-34.1 0-46.9-12.8-12.8-34.1-12.8-46.9 0l-145.1 145.1c-12.8 12.8-12.8 34.1 0 46.9l145.1 145.1c6.4 6.4 14.9 10.7 23.5 10.7s17.1-4.3 23.5-10.7c12.8-12.8 12.8-34.1 0-46.9L256 311.5h597.3c6.4 0 10.7 4.3 10.7 10.7v426.7c0 6.4-4.3 10.7-10.7 10.7H170.7c-17.1 0-32 14.9-32 32s14.9 32 32 32h682.7c40.5 0 74.7-34.1 74.7-74.7V320c0-40.5-34.1-74.7-74.7-74.7z" fill="#666666" p-id="651"></path></svg>