<svg xmlns="http://www.w3.org/2000/svg" viewBox="0 0 1024 1024" version="1.1"><path d="M904.5 522.7L853.3 185.6c-8.5-51.2-55.5-89.6-106.7-89.6H204.8c-59.7 0-108.8 46.9-108.8 106.7v258.1c0 57.6 49.1 106.7 108.8 106.7h91.7l125.9 281.6c2.1 2.1 2.1 4.3 4.3 6.4 14.9 23.5 38.4 36.3 64 36.3 12.8 0 25.6-4.3 38.4-10.7 57.6-34.1 87.5-72.5 87.5-117.3v-117.3h183.5c32 0 59.7-12.8 81.1-36.3 19.2-25.6 29.9-55.5 23.5-87.5z m-616.5-21.3H204.8c-25.6 0-44.8-19.2-44.8-42.7v-256c0-23.5 19.2-42.7 44.8-42.7h83.2v341.3zM832 567.5c-8.5 8.5-21.3 14.9-34.1 14.9h-213.3c-17.1 0-32 14.9-32 32v149.3c0 25.6-29.9 49.1-55.5 64-4.3 2.1-10.7 2.1-14.9-4.3L352 533.3V160H746.7c21.3 0 40.5 14.9 42.7 36.3L842.7 533.3c2.1 10.7-2.1 23.5-10.7 34.1z" fill="#666666" p-id="662"></path></svg>