<svg xmlns="http://www.w3.org/2000/svg" viewBox="0 0 1024 1024" version="1.1"><path d="M512 836.3C230.4 836.3 74.7 533.3 68.3 520.5c-4.3-8.5-4.3-19.2 0-29.9 6.4-12.8 164.3-315.7 443.7-315.7 281.6 0 437.3 305.1 443.7 317.9 4.3 8.5 4.3 19.2 0 29.9-6.4 10.7-162.1 313.6-443.7 313.6zM132.3 505.6c34.1 57.6 170.7 266.7 379.7 266.7s345.6-209.1 379.7-266.7c-34.1-57.6-170.7-266.7-379.7-266.7S166.4 448 132.3 505.6z" fill="#666666" p-id="628"></path><path d="M512 650.7c-76.8 0-138.7-61.9-138.7-138.7s61.9-138.7 138.7-138.7 138.7 61.9 138.7 138.7-61.9 138.7-138.7 138.7z m0-213.3c-40.5 0-74.7 34.1-74.7 74.7s34.1 74.7 74.7 74.7 74.7-34.1 74.7-74.7-34.1-74.7-74.7-74.7z" fill="#666666" p-id="629"></path></svg>