<svg xmlns="http://www.w3.org/2000/svg" viewBox="0 0 1024 1024" version="1.1"><path d="M853.3 149.3h-138.7V106.7c0-17.1-14.9-32-32-32s-32 14.9-32 32v42.7h-277.3V106.7c0-17.1-14.9-32-32-32s-32 14.9-32 32v42.7H170.7c-40.5 0-74.7 34.1-74.7 74.7v618.7C96 883.2 130.1 917.3 170.7 917.3h682.7c40.5 0 74.7-34.1 74.7-74.7v-618.7C928 183.5 893.9 149.3 853.3 149.3zM170.7 213.3h138.7v64c0 17.1 14.9 32 32 32s32-14.9 32-32v-64h277.3v64c0 17.1 14.9 32 32 32s32-14.9 32-32v-64H853.3c6.4 0 10.7 4.3 10.7 10.7v194.1c-4.3-2.1-6.4-2.1-10.7-2.1H170.7c-4.3 0-6.4 0-10.7 2.1v-194.1c0-6.4 4.3-10.7 10.7-10.7z m682.7 640H170.7c-6.4 0-10.7-4.3-10.7-10.7V477.9c4.3 2.1 6.4 2.1 10.7 2.1h682.7c4.3 0 6.4 0 10.7-2.1v364.8c0 6.4-4.3 10.7-10.7 10.7z" fill="#666666" p-id="789"></path><path d="M384 608h-85.3c-17.1 0-32 14.9-32 32s14.9 32 32 32h85.3c17.1 0 32-14.9 32-32s-14.9-32-32-32zM725.3 608h-192c-17.1 0-32 14.9-32 32s14.9 32 32 32h192c17.1 0 32-14.9 32-32s-14.9-32-32-32z" fill="#666666" p-id="790"></path></svg>