<svg xmlns="http://www.w3.org/2000/svg" viewBox="0 0 1024 1024" version="1.1"><path d="M846.9 238.9h-140.8L646.4 149.3c-6.4-10.7-17.1-17.1-29.9-17.1h-209.1c-12.8 0-23.5 6.4-29.9 17.1l-59.7 89.6H177.1c-57.6 0-106.7 46.9-106.7 106.7v426.7c0 57.6 46.9 106.7 106.7 106.7h672c57.6 0 106.7-46.9 106.7-106.7v-426.7c-2.1-59.7-49.1-106.7-108.8-106.7z m34.1 533.3c0 19.2-14.9 34.1-34.1 34.1H177.1c-19.2 0-34.1-14.9-34.1-34.1v-426.7c0-19.2 14.9-34.1 34.1-34.1h160c12.8 0 23.5-6.4 29.9-17.1L426.7 206.9h170.7l59.7 89.6c6.4 10.7 17.1 17.1 29.9 17.1h160c19.2 0 34.1 14.9 34.1 34.1v424.5z" fill="#666666" p-id="721"></path><path d="M512 364.8c-96 0-174.9 78.9-174.9 174.9 0 96 78.9 174.9 174.9 174.9 96 0 174.9-78.9 174.9-174.9 0-96-78.9-174.9-174.9-174.9z m0 279.5c-57.6 0-104.5-46.9-104.5-104.5s46.9-104.5 104.5-104.5 104.5 46.9 104.5 104.5-46.9 104.5-104.5 104.5z" fill="#666666" p-id="722"></path></svg>