<svg xmlns="http://www.w3.org/2000/svg" viewBox="0 0 1024 1024" version="1.1"><path d="M853.3 96H170.7C130.1 96 96 130.1 96 170.7v682.7c0 40.5 34.1 74.7 74.7 74.7h682.7c40.5 0 74.7-34.1 74.7-74.7V170.7c0-40.5-34.1-74.7-74.7-74.7z m10.7 757.3c0 6.4-4.3 10.7-10.7 10.7H170.7c-6.4 0-10.7-4.3-10.7-10.7V170.7c0-6.4 4.3-10.7 10.7-10.7h682.7c6.4 0 10.7 4.3 10.7 10.7v682.7z" fill="#666666" p-id="709"></path><path d="M544 298.7c-19.2-12.8-42.7-12.8-61.9 0l-185.6 145.1-2.1 4.3c-6.4 6.4-17.1 19.2-17.1 38.4 0 8.5 2.1 14.9 4.3 21.3 8.5 17.1 25.6 29.9 44.8 29.9h59.7v172.8c0 27.7 21.3 51.2 51.2 51.2h147.2c29.9 0 53.3-21.3 53.3-51.2v-172.8h57.6c21.3 0 42.7-14.9 46.9-36.3 4.3-19.2 0-38.4-14.9-51.2L544 298.7z m29.9 172.8v221.9h-121.6V471.5h-85.3l145.1-115.2 145.1 115.2h-83.2z" fill="#666666" p-id="710"></path></svg>