<svg xmlns="http://www.w3.org/2000/svg" viewBox="0 0 1024 1024" version="1.1"><path d="M170.7 928c-40.5 0-74.7-34.1-74.7-74.7V170.7c0-40.5 34.1-74.7 74.7-74.7h682.7c40.5 0 74.7 34.1 74.7 74.7v682.7c0 40.5-34.1 74.7-74.7 74.7H170.7zM439.5 725.3h147.2c12.8 0 21.3-6.4 21.3-19.2v-204.8h89.6c6.4 0 14.9-6.4 17.1-12.8 2.1-6.4 0-14.9-6.4-19.2l-183.5-145.1c-6.4-6.4-17.1-6.4-23.5 0L315.7 469.3c-4.3 4.3-6.4 8.5-6.4 14.9 0 2.1 0 4.3 2.1 6.4 2.1 6.4 8.5 12.8 17.1 12.8h91.7v204.8c0 10.7 6.4 17.1 19.2 17.1z" fill="#666666" p-id="2183"></path></svg>