<svg xmlns="http://www.w3.org/2000/svg" viewBox="0 0 1024 1024" version="1.1"><path d="M149.3 800h128c29.9 0 53.3-23.5 53.3-53.3V533.3c0-29.9-23.5-53.3-53.3-53.3H149.3c-29.9 0-53.3 23.5-53.3 53.3v213.3c0 29.9 23.5 53.3 53.3 53.3z m10.7-256h106.7v192h-106.7v-192zM448 800h128c29.9 0 53.3-23.5 53.3-53.3V149.3c0-29.9-23.5-53.3-53.3-53.3h-128c-29.9 0-53.3 23.5-53.3 53.3v597.3c0 29.9 23.5 53.3 53.3 53.3z m10.7-640h106.7v576h-106.7v-576zM874.7 309.3h-128c-29.9 0-53.3 23.5-53.3 53.3v384c0 29.9 23.5 53.3 53.3 53.3h128c29.9 0 53.3-23.5 53.3-53.3V362.7c0-29.9-23.5-53.3-53.3-53.3z m-10.7 426.7h-106.7v-362.7h106.7v362.7zM896 853.3H128c-17.1 0-32 14.9-32 32S110.9 917.3 128 917.3h768c17.1 0 32-14.9 32-32S913.1 853.3 896 853.3z" fill="#666666" p-id="733"></path></svg>