<svg xmlns="http://www.w3.org/2000/svg" viewBox="0 0 1024 1024" version="1.1"><path d="M887.5 642.1c-17.1-6.4-34.1 0-42.7 17.1-64 151.5-221.9 243.2-386.1 221.9-164.3-21.3-294.4-149.3-315.7-313.6C119.5 405.3 209.1 245.3 358.4 179.2c17.1-6.4 23.5-25.6 17.1-42.7-6.4-17.1-25.6-23.5-42.7-17.1C155.7 198.4 51.2 386.1 78.9 578.1c27.7 192 179.2 343.5 371.2 369.1 19.2 2.1 36.3 4.3 55.5 4.3 170.7 0 330.7-102.4 398.9-264.5 6.4-17.1-2.1-36.3-17.1-44.8z" fill="#666666" p-id="847"></path><path d="M814.9 209.1C727.5 121.6 612.3 74.7 490.7 74.7c-17.1 0-32 14.9-32 32v426.7c0 17.1 14.9 32 32 32h426.7c17.1 0 32-14.9 32-32 0-121.6-46.9-236.8-134.4-324.3zM522.7 501.3V140.8c93.9 6.4 179.2 46.9 247.5 115.2 66.1 66.1 106.7 153.6 115.2 247.5h-362.7z" fill="#666666" p-id="848"></path></svg>