<?xml version="1.0" standalone="no"?><!DOCTYPE svg PUBLIC "-//W3C//DTD SVG 1.1//EN" "http://www.w3.org/Graphics/SVG/1.1/DTD/svg11.dtd"><svg t="1700128108832" class="icon" viewBox="0 0 1024 1024" version="1.1" xmlns="http://www.w3.org/2000/svg" p-id="5171" width="200" height="200" xmlns:xlink="http://www.w3.org/1999/xlink"><path d="M256 144a48 48 0 0 1 48-48h384a48 48 0 0 1 48 48v320h96V142.72a80 80 0 0 0-80-80h-96a16 16 0 0 0-6.24 1.28H304a80 80 0 0 0-80 80v80h32zM768 736h-32v144a48 48 0 0 1-38.4 47.04 49.76 49.76 0 0 1-9.6 0.96H304a48 48 0 0 1-48-48V496h-32v384a80 80 0 0 0 80 80h384a71.52 71.52 0 0 0 13.92-1.28H752a80 80 0 0 0 80-80V736h-64z" p-id="5172" fill="#ffffff"></path><path d="M624 464h80V160a32 32 0 0 0-32-32h-80a16 16 0 0 0-11.36 4.64L553.44 160h-114.88l-27.2-27.36A16 16 0 0 0 400 128h-80a32 32 0 0 0-32 32v64h112a80 80 0 0 1 80 80v224a16 16 0 0 1-9.92 14.72 13.44 13.44 0 0 1-6.08 1.28 16 16 0 0 1-11.36-4.64L409.44 496H288v368a32 32 0 0 0 32 32h352a32 32 0 0 0 32-32v-128h-89.44l-43.2 43.36A16 16 0 0 1 560 784a13.44 13.44 0 0 1-6.08-1.28A16 16 0 0 1 544 768V544a80 80 0 0 1 80-80z" p-id="5173" fill="#ffffff"></path><path d="M427.36 468.64l20.64 20.8V304a48 48 0 0 0-48-48H144a48 48 0 0 0-48 48v112a48 48 0 0 0 48 48h272a16 16 0 0 1 11.36 4.64zM168 384a24 24 0 1 1 24-24 24 24 0 0 1-24 24z m96 0a24 24 0 1 1 24-24 24 24 0 0 1-24 24z m96 0a24 24 0 1 1 24-24 24 24 0 0 1-24 24zM880 496H624a48 48 0 0 0-48 48v185.44l20.64-20.8A16 16 0 0 1 608 704h272a48 48 0 0 0 48-48v-112a48 48 0 0 0-48-48z m-216 128a24 24 0 1 1 24-24 24 24 0 0 1-24 24z m96 0a24 24 0 1 1 24-24 24 24 0 0 1-24 24z m96 0a24 24 0 1 1 24-24 24 24 0 0 1-24 24z" p-id="5174" fill="#ffffff"></path></svg>