<svg xmlns="http://www.w3.org/2000/svg" viewBox="0 0 1024 1024" version="1.1"><path d="M853.3 138.7H170.7c-40.5 0-74.7 34.1-74.7 74.7v512c0 40.5 34.1 74.7 74.7 74.7h151.5V917.3c0 12.8 8.5 25.6 19.2 29.9 4.3 2.1 8.5 2.1 12.8 2.1 8.5 0 17.1-4.3 23.5-10.7l136.5-138.7H853.3c40.5 0 74.7-34.1 74.7-74.7V213.3c0-40.5-34.1-74.7-74.7-74.7z m10.7 586.7c0 6.4-4.3 10.7-10.7 10.7H501.3c-8.5 0-17.1 4.3-23.5 10.7l-89.6 93.9V768c0-17.1-14.9-32-32-32H170.7c-6.4 0-10.7-4.3-10.7-10.7V213.3c0-6.4 4.3-10.7 10.7-10.7h682.7c6.4 0 10.7 4.3 10.7 10.7v512z" fill="#666666" p-id="801"></path><path d="M512 490.7H298.7c-17.1 0-32 14.9-32 32S281.6 554.7 298.7 554.7h213.3c17.1 0 32-14.9 32-32S529.1 490.7 512 490.7zM672 341.3H298.7c-17.1 0-32 14.9-32 32S281.6 405.3 298.7 405.3h373.3c17.1 0 32-14.9 32-32s-14.9-32-32-32z" fill="#666666" p-id="802"></path></svg>