<svg xmlns="http://www.w3.org/2000/svg" viewBox="0 0 1024 1024" version="1.1"><path d="M853.3 138.7H170.7c-40.5 0-74.7 34.1-74.7 74.7v516.3c2.1 38.4 34.1 70.4 74.7 70.4h151.5v119.5c2.1 27.7 36.3 38.4 55.5 19.2l136.5-138.7H853.3c40.5 0 74.7-34.1 74.7-74.7V213.3c0-40.5-34.1-74.7-74.7-74.7zM514.1 554.7H298.7c-17.1 0-32-14.9-32-32s12.8-29.9 29.9-32H512c17.1 0 32 14.9 32 32s-12.8 29.9-29.9 32z m160-149.3H298.7c-17.1 0-32-14.9-32-32s12.8-29.9 29.9-32h375.5c17.1 0 32 14.9 32 32s-12.8 29.9-29.9 32z" fill="#666666" p-id="2194"></path></svg>