<svg xmlns="http://www.w3.org/2000/svg" viewBox="0 0 1024 1024" version="1.1"><path d="M874.7 501.3c-17.1 0-32 14.9-32 32v298.7c0 6.4-4.3 10.7-10.7 10.7H192c-6.4 0-10.7-4.3-10.7-10.7V192c0-6.4 4.3-10.7 10.7-10.7h469.3c17.1 0 32-14.9 32-32s-14.9-32-32-32H192C151.5 117.3 117.3 151.5 117.3 192v640c0 40.5 34.1 74.7 74.7 74.7h640c40.5 0 74.7-34.1 74.7-74.7V533.3c0-17.1-14.9-32-32-32z" fill="#666666" p-id="835"></path><path d="M940.8 168.5c-12.8-12.8-32-12.8-44.8 0l-390.4 384-106.7-106.7c-12.8-12.8-32-12.8-44.8 0-12.8 12.8-12.8 32 0 44.8l130.1 128c6.4 6.4 14.9 8.5 23.5 8.5s17.1-2.1 23.5-8.5l411.7-405.3c8.5-10.7 10.7-32-2.1-44.8z" fill="#666666" p-id="836"></path></svg>