<svg xmlns="http://www.w3.org/2000/svg" viewBox="0 0 1024 1024" version="1.1"><path d="M853.3 224h-53.3V170.7c0-40.5-34.1-74.7-74.7-74.7H170.7C130.1 96 96 130.1 96 170.7v554.7c0 40.5 34.1 74.7 74.7 74.7h53.3V853.3c0 40.5 34.1 74.7 74.7 74.7h554.7c40.5 0 74.7-34.1 74.7-74.7V298.7c0-40.5-34.1-74.7-74.7-74.7zM160 725.3V170.7c0-6.4 4.3-10.7 10.7-10.7h554.7c6.4 0 10.7 4.3 10.7 10.7v554.7c0 6.4-4.3 10.7-10.7 10.7H170.7c-6.4 0-10.7-4.3-10.7-10.7z m704 128c0 6.4-4.3 10.7-10.7 10.7H298.7c-6.4 0-10.7-4.3-10.7-10.7v-53.3H725.3c40.5 0 74.7-34.1 74.7-74.7V288H853.3c6.4 0 10.7 4.3 10.7 10.7v554.7z" fill="#666666" p-id="905"></path><path d="M576 416h-96V320c0-17.1-14.9-32-32-32s-32 14.9-32 32v96H320c-17.1 0-32 14.9-32 32s14.9 32 32 32h96V576c0 17.1 14.9 32 32 32s32-14.9 32-32v-96H576c17.1 0 32-14.9 32-32s-14.9-32-32-32z" fill="#666666" p-id="906"></path></svg>