<svg xmlns="http://www.w3.org/2000/svg" viewBox="0 0 1024 1024" version="1.1"><path d="M512 74.7c241.1 0 437.3 196.3 437.3 437.3S753.1 949.3 512 949.3 74.7 753.1 74.7 512 270.9 74.7 512 74.7zM512 597.3c-81.1 0-151.5 36.3-211.2 106.7-10.7 12.8-8.5 34.1 4.3 44.8s34.1 8.5 44.8-4.3c46.9-57.6 100.3-85.3 162.1-85.3s115.2 27.7 162.1 85.3c10.7 12.8 32 14.9 44.8 4.3 12.8-10.7 14.9-32 4.3-44.8-59.7-70.4-130.1-106.7-211.2-106.7z m-149.3-234.7c-23.5 0-42.7 19.2-42.7 42.7v66.1c2.1 21.3 19.2 40.5 42.7 40.5s42.7-19.2 42.7-42.7v-66.1c-2.1-23.5-19.2-40.5-42.7-40.5z m298.7 0c-23.5 0-42.7 19.2-42.7 42.7v66.1c2.1 21.3 19.2 40.5 42.7 40.5s42.7-19.2 42.7-42.7v-66.1c-2.1-23.5-19.2-40.5-42.7-40.5z" fill="#666666" p-id="2538"></path></svg>