<svg xmlns="http://www.w3.org/2000/svg" viewBox="0 0 1024 1024" version="1.1"><path d="M864 439.5V426.7c0-194.1-157.9-352-352-352S160 232.5 160 426.7v12.8c-36.3 4.3-64 36.3-64 72.5v170.7c0 40.5 34.1 74.7 74.7 74.7h85.3c40.5 0 74.7-34.1 74.7-74.7v-170.7c0-40.5-34.1-74.7-74.7-74.7h-32V426.7c0-157.9 130.1-288 288-288S800 268.8 800 426.7v10.7H768c-40.5 0-74.7 34.1-74.7 74.7v170.7c0 40.5 34.1 74.7 74.7 74.7h21.3c-17.1 49.1-59.7 98.1-179.2 106.7-12.8-19.2-32-32-55.5-32-36.3 0-64 27.7-64 64s27.7 64 64 64c23.5 0 44.8-12.8 55.5-34.1 166.4-10.7 226.1-91.7 245.3-170.7 40.5-2.1 72.5-34.1 72.5-74.7v-170.7c0-36.3-27.7-66.1-64-70.4z m-597.3 72.5v170.7c0 6.4-4.3 10.7-10.7 10.7H170.7c-6.4 0-10.7-4.3-10.7-10.7v-170.7c0-6.4 4.3-10.7 10.7-10.7h85.3c6.4 0 10.7 4.3 10.7 10.7z m597.3 170.7c0 6.4-4.3 10.7-10.7 10.7h-85.3c-6.4 0-10.7-4.3-10.7-10.7v-170.7c0-6.4 4.3-10.7 10.7-10.7h85.3c6.4 0 10.7 4.3 10.7 10.7v170.7z" p-id="871"></path></svg>