<?xml version="1.0" standalone="no"?><!DOCTYPE svg PUBLIC "-//W3C//DTD SVG 1.1//EN" "http://www.w3.org/Graphics/SVG/1.1/DTD/svg11.dtd"><svg t="1699078689797" class="icon" viewBox="0 0 1024 1024" version="1.1" xmlns="http://www.w3.org/2000/svg" p-id="7816" xmlns:xlink="http://www.w3.org/1999/xlink" width="200" height="200"><path d="M0 500.050256L493.852759 7.498496c10.020995-9.997995 26.272987-9.997995 36.299982 0L1023.9995 500.050256h-72.590965L530.151741 79.905461c-10.025995-9.996995-26.272987-9.996995-36.299982 0L72.600965 500.050256H0z m869.183576 27.309986a25.403988 25.403988 0 0 1 2.164999 10.239995v409.5998c0 14.139993-11.489994 25.599988-25.666988 25.599988H666.009675V641.525187c0-14.979993-11.395994-27.124987-25.456988-27.124987H383.451813c-14.056993 0-25.451988 12.144994-25.451988 27.124987V972.800025H178.328913c-14.176993 0-25.666987-11.459994-25.666988-25.599988V537.600237c0-3.645998 0.787-7.100997 2.165999-10.239995h-53.499973v468.479772c0 15.554992 18.387991 28.159986 41.067979 28.159986h266.94087V691.200162c0-14.139993 11.489994-25.599988 25.666988-25.599987h154.003924c14.177993 0 25.667987 11.459994 25.667988 25.599987V1024h266.94087c22.684989 0 41.06698-12.604994 41.066979-28.159986V527.360242h-53.499973z" fill="#ffffff" p-id="7817"></path></svg>