<svg xmlns="http://www.w3.org/2000/svg" viewBox="0 0 1024 1024" version="1.1"><path d="M874.7 864H170.7c-6.4 0-10.7-4.3-10.7-10.7V149.3c0-17.1-14.9-32-32-32S96 132.3 96 149.3v704c0 40.5 34.1 74.7 74.7 74.7h704c17.1 0 32-14.9 32-32s-14.9-32-32-32z" fill="#666666" p-id="928"></path><path d="M437.3 469.3v320c0 17.1 14.9 32 32 32s32-14.9 32-32V469.3c0-17.1-14.9-32-32-32s-32 14.9-32 32zM298.7 821.3c17.1 0 32-14.9 32-32V533.3c0-17.1-14.9-32-32-32s-32 14.9-32 32v256c0 17.1 14.9 32 32 32zM640 565.3c-17.1 0-32 14.9-32 32v192c0 17.1 14.9 32 32 32s32-14.9 32-32v-192c0-17.1-14.9-32-32-32zM810.7 352c-17.1 0-32 14.9-32 32v405.3c0 17.1 14.9 32 32 32s32-14.9 32-32V384c0-17.1-14.9-32-32-32zM322.1 407.5l147.2-147.2 147.2 147.2c6.4 6.4 14.9 8.5 23.5 8.5h2.1c8.5 0 17.1-6.4 23.5-12.8l170.7-234.7c10.7-14.9 6.4-34.1-6.4-44.8-14.9-10.7-34.1-6.4-44.8 6.4l-149.3 204.8L490.7 189.9c-12.8-12.8-32-12.8-44.8 0l-170.7 170.7c-12.8 12.8-12.8 32 0 44.8 12.8 12.8 34.1 12.8 46.9 2.1z" fill="#666666" p-id="929"></path></svg>