<svg xmlns="http://www.w3.org/2000/svg" viewBox="0 0 1024 1024" version="1.1"><path d="M635.7 341.3c19.2 0 32 12.8 32 29.9v236.8h155.7c12.8 0 25.6 8.5 27.7 21.3 2.1 4.3 2.1 6.4 2.1 10.7 0 8.5-6.4 19.2-12.8 25.6L529.1 910.9c-12.8 8.5-27.7 8.5-40.5 0L181.3 663.5c-8.5-8.5-12.8-21.3-8.5-34.1 2.1-12.8 14.9-21.3 27.7-21.3h151.5V371.2c0-19.2 12.8-29.9 34.1-29.9h249.6z m-6.4-128c17.1 0 32 14.9 32 32s-14.9 32-32 32h-234.7c-17.1 0-32-14.9-32-32s14.9-32 32-32h234.7z m0-106.7c17.1 0 32 14.9 32 32S646.4 170.7 629.3 170.7h-234.7c-17.1 0-32-14.9-32-32S377.6 106.7 394.7 106.7h234.7z" fill="#666666" p-id="2238"></path></svg>