<svg xmlns="http://www.w3.org/2000/svg" viewBox="0 0 1024 1024" version="1.1"><path d="M874.7 202.7H360.5c-21.3 0-40.5 8.5-55.5 23.5l-217.6 234.7c-25.6 27.7-25.6 72.5 0 100.3l217.6 234.7c14.9 14.9 34.1 23.5 55.5 23.5H874.7c40.5 0 74.7-34.1 74.7-74.7V277.3c0-40.5-34.1-74.7-74.7-74.7z m10.7 544c0 6.4-4.3 10.7-10.7 10.7H360.5c-2.1 0-6.4-2.1-8.5-4.3l-217.6-234.7c-4.3-4.3-4.3-10.7 0-14.9l217.6-234.7c2.1-2.1 4.3-4.3 8.5-4.3H874.7c6.4 0 10.7 4.3 10.7 10.7V746.7z" fill="#666666" p-id="882"></path><path d="M684.8 403.2c-12.8-12.8-32-12.8-44.8 0l-64 64-61.9-61.9c-12.8-12.8-32-12.8-44.8 0-12.8 12.8-12.8 32 0 44.8l61.9 61.9-61.9 61.9c-12.8 12.8-12.8 32 0 44.8 6.4 6.4 14.9 8.5 23.5 8.5s17.1-2.1 23.5-8.5l61.9-61.9L640 618.7c6.4 6.4 14.9 8.5 23.5 8.5s17.1-2.1 23.5-8.5c12.8-12.8 12.8-32 0-44.8L620.8 512l61.9-61.9c12.8-12.8 12.8-34.1 2.1-46.9z" fill="#666666" p-id="883"></path></svg>