<svg xmlns="http://www.w3.org/2000/svg" viewBox="0 0 1024 1024" version="1.1"><path d="M512 949.3C270.9 949.3 74.7 753.1 74.7 512S270.9 74.7 512 74.7 949.3 270.9 949.3 512 753.1 949.3 512 949.3z m-151.5-292.3c10.7 10.7 29.9 12.8 42.7 2.1l2.1-2.1 104.5-102.4 102.4 102.4 2.1 2.1c12.8 10.7 32 8.5 42.7-2.1 12.8-12.8 12.8-32 0-44.8L554.7 509.9l102.4-102.4 2.1-2.1c10.7-12.8 8.5-32-2.1-42.7s-29.9-12.8-42.7-2.1l-2.1 2.1-102.4 102.4-102.4-102.4-2.1-2.1c-12.8-10.7-32-8.5-42.7 2.1-12.8 12.8-12.8 32 0 44.8l102.4 102.4-102.4 102.4-2.1 2.1c-10.7 12.8-10.7 32 0 42.7z" fill="#666666" p-id="2227"></path></svg>