<svg xmlns="http://www.w3.org/2000/svg" viewBox="0 0 1024 1024" version="1.1"><path d="M512 74.7C270.9 74.7 74.7 270.9 74.7 512S270.9 949.3 512 949.3 949.3 753.1 949.3 512 753.1 74.7 512 74.7z m0 810.7c-204.8 0-373.3-168.5-373.3-373.3S307.2 138.7 512 138.7 885.3 307.2 885.3 512 716.8 885.3 512 885.3z" fill="#666666" p-id="940"></path><path d="M672 499.2l-128 119.5V341.3c0-17.1-14.9-32-32-32s-32 14.9-32 32v277.3l-128-119.5c-12.8-12.8-34.1-10.7-44.8 2.1-12.8 12.8-10.7 34.1 2.1 44.8l181.3 170.7c6.4 6.4 14.9 8.5 21.3 8.5s14.9-2.1 21.3-8.5l181.3-170.7c12.8-12.8 12.8-32 2.1-44.8-12.8-12.8-32-14.9-44.8-2.1z" fill="#666666" p-id="941"></path></svg>