<svg xmlns="http://www.w3.org/2000/svg" viewBox="0 0 1024 1024" version="1.1"><path d="M456.5 55.5c-12.8-4.3-27.7 2.1-36.3 12.8l-234.7 362.7c-6.4 10.7-6.4 21.3-2.1 32 6.4 10.7 17.1 17.1 27.7 17.1h234.7c17.1 0 32-14.9 32-32V85.3c2.1-14.9-6.4-27.7-21.3-29.9zM810.7 544H576c-17.1 0-32 14.9-32 32v362.7c0 14.9 8.5 25.6 23.5 29.9 2.1 0 6.4 2.1 8.5 2.1 10.7 0 21.3-4.3 27.7-14.9l234.7-362.7c6.4-10.7 6.4-21.3 2.1-32s-19.2-17.1-29.9-17.1zM448 544H85.3c-14.9 0-27.7 8.5-29.9 23.5-4.3 12.8 2.1 27.7 12.8 36.3l362.7 234.7c4.3 4.3 10.7 4.3 17.1 4.3 4.3 0 10.7-2.1 14.9-4.3 10.7-6.4 17.1-17.1 17.1-27.7V576c0-17.1-14.9-32-32-32zM955.7 420.3l-362.7-234.7c-10.7-6.4-21.3-6.4-32-2.1-10.7 6.4-17.1 17.1-17.1 27.7v234.7c0 17.1 14.9 32 32 32h362.7c14.9 0 25.6-8.5 29.9-23.5s0-25.6-12.8-34.1z" fill="#666666" p-id="2249"></path></svg>