<svg xmlns="http://www.w3.org/2000/svg" viewBox="0 0 1024 1024" version="1.1"><path d="M603.7 181.3L386.1 401.1c-6.4 6.4-10.7 14.9-12.8 25.6l-51.2 211.2c-8.5 38.4 23.5 74.7 61.9 64l200.5-53.3c8.5-2.1 17.1-6.4 23.5-14.9l234.7-236.8V853.3c0 40.5-32 72.5-70.4 74.7H170.7c-40.5 0-74.7-34.1-74.7-74.7V256c0-40.5 34.1-74.7 74.7-74.7h433.1z" fill="#666666" p-id="2350"></path><path d="M738.1 147.2L435.2 448c-4.3 4.3-6.4 8.5-8.5 14.9l-32 125.9c-6.4 23.5 14.9 44.8 38.4 38.4l128-29.9c6.4-2.1 10.7-4.3 14.9-8.5l300.8-302.9c38.4-38.4 38.4-102.4 0-140.8s-100.3-38.4-138.7 2.1z" fill="#666666" p-id="2351"></path></svg>