<svg xmlns="http://www.w3.org/2000/svg" viewBox="0 0 1024 1024" version="1.1"><path d="M840.5 117.3H183.5c-59.7 0-108.8 49.1-108.8 108.8v379.7c0 59.7 49.1 108.8 108.8 108.8h232.5v115.2H341.3c-17.1 0-32 14.9-32 32s14.9 32 32 32h341.3c17.1 0 32-14.9 32-32s-14.9-32-32-32h-74.7v-115.2h232.5c59.7 0 108.8-49.1 108.8-108.8V226.1c0-59.7-49.1-108.8-108.8-108.8zM544 829.9h-64v-115.2h64v115.2z m341.3-224c0 25.6-19.2 44.8-44.8 44.8H183.5c-25.6 0-44.8-19.2-44.8-44.8V226.1c0-25.6 19.2-44.8 44.8-44.8h657.1c25.6 0 44.8 19.2 44.8 44.8v379.7z" fill="#666666" p-id="1009"></path></svg>