<svg xmlns="http://www.w3.org/2000/svg" viewBox="0 0 1024 1024" version="1.1"><path d="M789.3 74.7H234.7C194.1 74.7 160 108.8 160 149.3v725.3c0 40.5 34.1 74.7 74.7 74.7h554.7c40.5 0 74.7-34.1 74.7-74.7V149.3c0-40.5-34.1-74.7-74.7-74.7z m-138.7 64v296.5L576 364.8c-6.4-6.4-14.9-8.5-21.3-8.5-8.5 0-17.1 2.1-21.3 8.5l-74.7 72.5v-298.7h192z m149.3 736c0 6.4-4.3 10.7-10.7 10.7H234.7c-6.4 0-10.7-4.3-10.7-10.7V149.3c0-6.4 4.3-10.7 10.7-10.7h160v322.1c0 14.9 6.4 27.7 14.9 36.3 21.3 21.3 53.3 21.3 74.7 0l70.4-68.3 70.4 68.3c10.7 10.7 23.5 14.9 36.3 14.9 29.9 0 53.3-23.5 53.3-53.3v-320H789.3c6.4 0 10.7 4.3 10.7 10.7v725.3z" fill="#666666" p-id="1061"></path></svg>