<svg xmlns="http://www.w3.org/2000/svg" viewBox="0 0 1024 1024" version="1.1"><path d="M582.4 864H170.7c-6.4 0-10.7-4.3-10.7-10.7V170.7c0-6.4 4.3-10.7 10.7-10.7h309.3V320c0 40.5 34.1 74.7 74.7 74.7h160v38.4c0 17.1 14.9 32 32 32s32-14.9 32-32V298.7c0-8.5-4.3-17.1-8.5-23.5l-170.7-170.7c-6.4-6.4-14.9-8.5-23.5-8.5H170.7C130.1 96 96 130.1 96 170.7v682.7c0 40.5 34.1 74.7 74.7 74.7h411.7c17.1 0 32-14.9 32-32s-14.9-32-32-32z m132.3-550.4v17.1H554.7c-6.4 0-10.7-4.3-10.7-10.7V160h19.2l151.5 153.6z" fill="#666666" p-id="1049"></path><path d="M866.1 669.9l-106.7-106.7c-12.8-12.8-32-12.8-44.8 0s-12.8 32 0 44.8l51.2 51.2H512c-17.1 0-32 14.9-32 32S494.9 725.3 512 725.3h253.9l-51.2 51.2c-12.8 12.8-12.8 32 0 44.8 6.4 6.4 14.9 8.5 23.5 8.5s17.1-2.1 23.5-8.5l106.7-106.7c8.5-10.7 8.5-32-2.1-44.8z" fill="#666666" p-id="1050"></path></svg>