<svg xmlns="http://www.w3.org/2000/svg" viewBox="0 0 1024 1024" version="1.1"><path d="M955.7 492.8c-6.4-12.8-162.1-317.9-443.7-317.9-23.5 0-46.9 2.1-70.4 6.4-17.1 4.3-29.9 19.2-25.6 36.3 4.3 17.1 19.2 29.9 36.3 25.6 19.2-4.3 38.4-4.3 57.6-4.3 209.1 0 345.6 209.1 379.7 266.7-10.7 19.2-32 53.3-64 91.7-10.7 12.8-8.5 34.1 4.3 44.8 6.4 4.3 12.8 6.4 21.3 6.4s19.2-4.3 25.6-10.7c51.2-61.9 78.9-115.2 78.9-117.3 6.4-8.5 6.4-19.2 0-27.7zM215.5 125.9c-12.8-12.8-32-12.8-44.8 0-12.8 12.8-12.8 32 0 44.8l91.7 91.7C138.7 354.1 72.5 484.3 68.3 490.7c-4.3 8.5-4.3 19.2 0 29.9 6.4 12.8 162.1 315.7 443.7 315.7 83.2 0 164.3-27.7 241.1-81.1l96 96c6.4 6.4 14.9 8.5 23.5 8.5s17.1-2.1 23.5-8.5c12.8-12.8 12.8-32 0-44.8L215.5 125.9z m243.2 334.9l104.5 104.5c-12.8 12.8-32 21.3-51.2 21.3-40.5 0-74.7-34.1-74.7-74.7 0-19.2 8.5-38.4 21.3-51.2zM512 772.3c-209.1 0-345.6-209.1-379.7-266.7 21.3-36.3 81.1-130.1 174.9-196.3l104.5 104.5c-25.6 25.6-38.4 59.7-38.4 96 0 76.8 61.9 138.7 138.7 138.7 36.3 0 70.4-14.9 96-38.4l98.1 98.1c-61.9 42.7-128 64-194.1 64z" fill="#666666" p-id="1084"></path></svg>