<svg xmlns="http://www.w3.org/2000/svg" viewBox="0 0 1024 1024" version="1.1"><path d="M859.7 253.9c-44.8-44.8-102.4-70.4-166.4-70.4-61.9 0-121.6 25.6-166.4 70.4l-14.9 17.1-17.1-17.1c-44.8-44.8-102.4-70.4-166.4-70.4-61.9 0-121.6 25.6-166.4 70.4-91.7 91.7-91.7 243.2 0 337.1l324.3 330.7c6.4 6.4 14.9 8.5 23.5 8.5s17.1-4.3 23.5-8.5l324.3-330.7c44.8-44.8 68.3-104.5 68.3-168.5s-21.3-123.7-66.1-168.5z m-44.8 290.1L512 853.3 209.1 544c-66.1-68.3-66.1-179.2 0-247.5 32-32 74.7-51.2 119.5-51.2 44.8 0 87.5 17.1 119.5 51.2l38.4 40.5c12.8 12.8 34.1 12.8 44.8 0l38.4-40.5c32-32 74.7-51.2 119.5-51.2 44.8 0 87.5 17.1 119.5 51.2 32 32 49.1 76.8 49.1 123.7s-12.8 91.7-42.7 123.7z" fill="#666666" p-id="1176"></path></svg>