<svg xmlns="http://www.w3.org/2000/svg" viewBox="0 0 1024 1024" version="1.1"><path d="M934.4 356.3c-8.5-10.7-21.3-19.2-34.1-21.3l-234.7-34.1-104.5-213.3c-6.4-8.5-14.9-17.1-25.6-23.5-12.8-6.4-27.7-6.4-40.5-2.1-12.8 4.3-23.5 14.9-29.9 27.7l-104.5 213.3-234.7 34.1c-10.7 2.1-21.3 6.4-29.9 14.9-21.3 21.3-19.2 55.5 0 74.7l170.7 166.4-40.5 234.7c-2.1 10.7 0 23.5 6.4 34.1 12.8 25.6 46.9 36.3 72.5 21.3l211.2-110.9 211.2 110.9c8.5 4.3 17.1 6.4 25.6 6.4h8.5c14.9-2.1 25.6-10.7 34.1-21.3 8.5-10.7 10.7-25.6 8.5-40.5l-40.5-234.7 170.7-166.4c8.5-8.5 14.9-19.2 14.9-29.9-2.1-14.9-6.4-27.7-14.9-40.5z m-224 194.1c-12.8 12.8-19.2 29.9-14.9 46.9l38.4 217.6L512 699.7l-221.9 115.2L328.5 597.3c2.1-17.1-2.1-34.1-14.9-46.9l-157.9-153.6 219.7-32c17.1-2.1 32-12.8 40.5-29.9L512 136.5l98.1 198.4c8.5 14.9 23.5 27.7 40.5 29.9l219.7 32-160 153.6z" fill="#666666" p-id="1118"></path></svg>