<svg xmlns="http://www.w3.org/2000/svg" viewBox="0 0 1024 1024" version="1.1"><path d="M465.1 89.6l-104.5 213.3-234.7 34.1c-10.7 2.1-21.3 6.4-29.9 14.9l-2.1 2.1c-17.1 21.3-17.1 53.3 4.3 72.5l170.7 166.4-40.5 234.7c-2.1 10.7 0 23.5 6.4 34.1l2.1 2.1c14.9 23.5 44.8 32 70.4 19.2l211.2-110.9 211.2 110.9c10.7 6.4 21.3 6.4 34.1 6.4h4.3c27.7-6.4 44.8-32 40.5-61.9l-40.5-234.7 170.7-166.4c8.5-8.5 12.8-19.2 14.9-29.9v-4.3c2.1-27.7-17.1-53.3-44.8-57.6l-234.7-34.1-104.5-213.3c-14.9-8.5-23.5-17.1-34.1-23.5-25.6-12.8-57.6-2.1-70.4 25.6z" fill="#666666" p-id="2271"></path></svg>