<?xml version="1.0" standalone="no"?><!DOCTYPE svg PUBLIC "-//W3C//DTD SVG 1.1//EN" "http://www.w3.org/Graphics/SVG/1.1/DTD/svg11.dtd"><svg t="1700128189937" class="icon" viewBox="0 0 1152 1024" version="1.1" xmlns="http://www.w3.org/2000/svg" p-id="5423" xmlns:xlink="http://www.w3.org/1999/xlink" width="225" height="200"><path d="M843.481147 633.626852l77.119374 74.655393v-170.814612h169.726621V59.711515H349.821158v164.222666H288.06166V59.711515C288.06166 26.751783 315.677436 0 349.789158 0H1090.295142C1124.438864 0 1152.05464 26.751783 1152.05464 59.711515v477.756118c0 32.959732-27.615776 59.711515-61.727498 59.711515h-107.999123v111.103097c0 24.127804-15.039878 45.919627-38.07969 55.167552-23.039813 9.247925-49.599597 4.159966-67.263454-12.927895l-33.503728-32.447736v-84.447314z" fill="#ffffff" p-id="5424"></path><path d="M231.48612 964.312165l176.542565-170.846612H802.297482V315.709435H61.823498v477.756118h169.694621v170.846612z m202.110358-111.135097l-158.494713 153.342754a63.231486 63.231486 0 0 1-67.199454 12.927895 59.743515 59.743515 0 0 1-38.11169-55.135552v-111.135097H61.791498C27.679776 853.177068 0.064 826.457285 0.064 793.465553V315.709435C0.064 282.749703 27.679776 255.99792 61.791498 255.99792H802.297482C836.441204 255.99792 864.05698 282.749703 864.05698 315.709435v477.756118c0 32.959732-27.615776 59.711515-61.727498 59.711515H433.596478z" fill="#ffffff" p-id="5425"></path><path d="M192.06244 511.99584h95.99922v95.99922H192.06244v-95.99922z m191.99844 0h95.99922v95.99922h-95.99922v-95.99922z m191.99844 0h95.99922v95.99922h-95.99922v-95.99922z" fill="#ffffff" p-id="5426"></path></svg>