<svg xmlns="http://www.w3.org/2000/svg" viewBox="0 0 1024 1024" version="1.1"><path d="M832 74.7H192c-17.1 0-32 14.9-32 32v765.9c0 12.8 4.3 23.5 12.8 34.1 8.5 10.7 21.3 17.1 36.3 19.2h6.4c12.8 0 23.5-4.3 34.1-12.8l264.5-213.3 264.5 213.3c8.5 8.5 21.3 12.8 34.1 12.8 29.9 0 53.3-23.5 53.3-53.3V106.7c-2.1-17.1-17.1-32-34.1-32z m-32 776.5L531.2 633.6c-10.7-8.5-27.7-8.5-40.5 0L224 851.2V138.7h576v712.5z" fill="#666666" p-id="1129"></path><path d="M341.3 341.3h320c17.1 0 32-14.9 32-32S678.4 277.3 661.3 277.3H341.3c-17.1 0-32 14.9-32 32S324.3 341.3 341.3 341.3zM341.3 512h213.3c17.1 0 32-14.9 32-32S571.7 448 554.7 448H341.3c-17.1 0-32 14.9-32 32S324.3 512 341.3 512z" fill="#666666" p-id="1130"></path></svg>