<svg xmlns="http://www.w3.org/2000/svg" viewBox="0 0 1024 1024" version="1.1"><path d="M842.7 285.9l-187.7-187.7c-14.9-14.9-32-21.3-53.3-21.3H234.7C194.1 74.7 160 108.8 160 149.3v725.3c0 40.5 34.1 74.7 74.7 74.7h554.7c40.5 0 74.7-34.1 74.7-74.7V337.1c0-19.2-8.5-38.4-21.3-51.2z m-44.8 44.8H618.7c-6.4 0-10.7-4.3-10.7-10.7V140.8l189.9 189.9z m-8.5 554.7H234.7c-6.4 0-10.7-4.3-10.7-10.7V149.3c0-6.4 4.3-10.7 10.7-10.7h309.3V320c0 40.5 34.1 74.7 74.7 74.7h181.3V874.7c0 6.4-4.3 10.7-10.7 10.7z" fill="#666666" p-id="1153"></path><path d="M618.7 586.7h-74.7V512c0-17.1-14.9-32-32-32s-32 14.9-32 32v74.7H405.3c-17.1 0-32 14.9-32 32s14.9 32 32 32h74.7V725.3c0 17.1 14.9 32 32 32s32-14.9 32-32v-74.7H618.7c17.1 0 32-14.9 32-32s-14.9-32-32-32z" fill="#666666" p-id="1154"></path></svg>