<svg xmlns="http://www.w3.org/2000/svg" viewBox="0 0 1024 1024" version="1.1"><path d="M921.6 450.1c-6.4-8.5-14.9-12.8-25.6-12.8h-10.7V341.3c0-40.5-34.1-74.7-74.7-74.7H514.1c-4.3 0-6.4-2.1-8.5-4.3l-38.4-66.1c-12.8-21.3-38.4-36.3-64-36.3H170.7c-40.5 0-74.7 34.1-74.7 74.7v597.3c0 6.4 2.1 12.8 6.4 19.2 6.4 8.5 14.9 12.8 25.6 12.8h640c12.8 0 25.6-8.5 29.9-21.3l128-362.7c4.3-10.7 2.1-21.3-4.3-29.9zM170.7 224h232.5c4.3 0 6.4 2.1 8.5 4.3l38.4 66.1c12.8 21.3 38.4 36.3 64 36.3H810.7c6.4 0 10.7 4.3 10.7 10.7v96H256c-12.8 0-25.6 8.5-29.9 21.3l-66.1 185.6V234.7c0-6.4 4.3-10.7 10.7-10.7z m573.9 576H172.8l104.5-298.7h571.7l-104.5 298.7z" fill="#666666" p-id="1267"></path></svg>