<svg xmlns="http://www.w3.org/2000/svg" viewBox="0 0 1024 1024" version="1.1"><path d="M832 85.3c17.1 0 32 14.9 32 32v768c0 29.9-23.5 53.3-53.3 53.3-12.8 0-23.5-4.3-34.1-12.8L512 712.5l-264.5 213.3c-21.3 17.1-53.3 14.9-72.5-4.3l-2.1-2.1c-8.5-8.5-12.8-21.3-12.8-34.1v-768C160 100.3 174.9 85.3 192 85.3h640zM554.7 448H339.2c-17.1 2.1-29.9 14.9-29.9 32S324.3 512 341.3 512h215.5c17.1-2.1 29.9-14.9 29.9-32S571.7 448 554.7 448z m106.7-170.7H339.2c-17.1 2.1-29.9 14.9-29.9 32S324.3 341.3 341.3 341.3h322.1c17.1-2.1 29.9-14.9 29.9-32S678.4 277.3 661.3 277.3z" fill="#666666" p-id="2327"></path></svg>