<svg xmlns="http://www.w3.org/2000/svg" viewBox="0 0 1024 1024" version="1.1"><path d="M853.3 96H170.7C130.1 96 96 130.1 96 170.7v682.7c0 40.5 34.1 74.7 74.7 74.7h682.7c40.5 0 74.7-34.1 74.7-74.7V170.7c0-40.5-34.1-74.7-74.7-74.7z m10.7 384h-149.3v-106.7h149.3v106.7z m-213.3 0h-277.3v-320h277.3v320z m-341.3 0h-149.3v-106.7h149.3v106.7z m-149.3 64h149.3v106.7h-149.3v-106.7z m213.3 0h277.3v320h-277.3v-320z m341.3 0h149.3v106.7h-149.3v-106.7z m149.3-373.3v138.7h-149.3v-149.3H853.3c6.4 0 10.7 4.3 10.7 10.7zM170.7 160h138.7v149.3h-149.3V170.7c0-6.4 4.3-10.7 10.7-10.7zM160 853.3v-138.7h149.3v149.3H170.7c-6.4 0-10.7-4.3-10.7-10.7z m693.3 10.7h-138.7v-149.3h149.3V853.3c0 6.4-4.3 10.7-10.7 10.7z" fill="#666666" p-id="1165"></path></svg>