<svg xmlns="http://www.w3.org/2000/svg" viewBox="0 0 1024 1024" version="1.1"><path d="M872.5 134.4c-12.8-10.7-29.9-17.1-49.1-17.1H198.4C157.9 117.3 123.7 151.5 123.7 192c0 17.1 6.4 34.1 17.1 49.1l256 302.9v251.7c0 12.8 6.4 23.5 17.1 27.7l162.1 81.1c4.3 2.1 8.5 4.3 14.9 4.3 6.4 0 10.7-2.1 17.1-4.3 8.5-6.4 14.9-17.1 14.9-27.7V541.9l256-302.9c12.8-14.9 19.2-34.1 17.1-53.3 2.1-19.2-6.4-38.4-23.5-51.2z m-38.4 64L569.6 509.9c-4.3 6.4-8.5 12.8-8.5 21.3v292.3l-98.1-49.1V531.2c0-8.5-2.1-14.9-8.5-21.3L189.9 198.4c0-2.1-2.1-4.3-2.1-6.4 0-6.4 4.3-10.7 10.7-10.7h625.1c2.1 0 4.3 0 6.4 2.1 2.1 2.1 4.3 6.4 4.3 6.4 2.1 2.1 2.1 6.4 0 8.5z" fill="#666666" p-id="1210"></path></svg>