<svg xmlns="http://www.w3.org/2000/svg" viewBox="0 0 1024 1024" version="1.1"><path d="M853.3 266.7H514.1c-4.3 0-6.4-2.1-8.5-4.3l-38.4-66.1c-12.8-21.3-38.4-36.3-64-36.3H170.7c-40.5 0-74.7 34.1-74.7 74.7v554.7c0 40.5 34.1 74.7 74.7 74.7h682.7c40.5 0 74.7-34.1 74.7-74.7V341.3c0-40.5-34.1-74.7-74.7-74.7z m-682.7-42.7h232.5c4.3 0 6.4 2.1 8.5 4.3l38.4 66.1c12.8 21.3 38.4 36.3 64 36.3H853.3c6.4 0 10.7 4.3 10.7 10.7v74.7h-704V234.7c0-6.4 4.3-10.7 10.7-10.7z m682.7 576H170.7c-6.4 0-10.7-4.3-10.7-10.7V480h704V789.3c0 6.4-4.3 10.7-10.7 10.7z" fill="#666666" p-id="1199"></path></svg>