<svg xmlns="http://www.w3.org/2000/svg" viewBox="0 0 1024 1024" version="1.1"><path d="M853.3 757.3H170.7c-6.4 0-10.7-4.3-10.7-10.7V320c0-6.4 4.3-10.7 10.7-10.7h599.5l-83.2 83.2c-12.8 12.8-12.8 34.1 0 46.9 6.4 6.4 14.9 10.7 23.5 10.7s17.1-4.3 23.5-10.7l145.1-145.1c12.8-12.8 12.8-34.1 0-46.9l-145.1-145.1c-12.8-12.8-34.1-12.8-46.9 0-12.8 12.8-12.8 34.1 0 46.9l93.9 93.9H170.7c-40.5 0-74.7 34.1-74.7 74.7v426.7c0 40.5 34.1 74.7 74.7 74.7h682.7c17.1 0 32-14.9 32-32s-14.9-29.9-32-29.9z" fill="#666666" p-id="1278"></path></svg>