<svg xmlns="http://www.w3.org/2000/svg" viewBox="0 0 1024 1024" version="1.1"><path d="M396.8 140.8c-12.8-4.3-25.6-2.1-34.1 6.4l-76.8 76.8-128-125.9c-17.1-17.1-42.7-17.1-59.7 0-17.1 17.1-17.1 42.7 0 59.7l125.9 125.9-76.8 76.8c-8.5 8.5-12.8 23.5-6.4 34.1 4.3 12.8 17.1 19.2 29.9 19.2h213.3c17.1 0 32-14.9 32-32V170.7c0-12.8-8.5-25.6-19.2-29.9zM800 738.1l76.8-76.8c8.5-8.5 12.8-23.5 6.4-34.1s-17.1-19.2-29.9-19.2H640c-17.1 0-32 14.9-32 32v213.3c0 12.8 8.5 25.6 19.2 29.9 4.3 2.1 8.5 2.1 12.8 2.1 8.5 0 17.1-4.3 23.5-8.5l76.8-76.8 125.9 125.9c8.5 8.5 19.2 12.8 29.9 12.8s21.3-4.3 29.9-12.8c17.1-17.1 17.1-42.7 0-59.7l-125.9-128zM384 608H170.7c-12.8 0-25.6 8.5-29.9 19.2-4.3 12.8-2.1 25.6 6.4 34.1l76.8 76.8-125.9 125.9c-17.1 17.1-17.1 42.7 0 59.7 8.5 10.7 19.2 14.9 29.9 14.9s21.3-4.3 29.9-12.8l125.9-125.9 76.8 76.8c6.4 6.4 14.9 8.5 23.5 8.5 4.3 0 8.5 0 12.8-2.1 12.8-4.3 19.2-17.1 19.2-29.9V640c0-17.1-14.9-32-32-32zM640 416h213.3c12.8 0 25.6-8.5 29.9-19.2s2.1-25.6-6.4-34.1l-76.8-76.8 125.9-125.9c17.1-17.1 17.1-42.7 0-59.7-17.1-17.1-42.7-17.1-59.7 0l-125.9 125.9L663.5 149.3c-8.5-8.5-23.5-12.8-34.1-6.4-12.8 4.3-19.2 17.1-19.2 29.9v213.3c-2.1 14.9 12.8 29.9 29.9 29.9z" fill="#666666" p-id="2362"></path></svg>