<svg xmlns="http://www.w3.org/2000/svg" viewBox="0 0 1024 1024" version="1.1"><path d="M313.6 358.4H177.1c-17.1 0-32 14.9-32 32s14.9 32 32 32h213.3c4.3 0 8.5 0 10.7-2.1 8.5-4.3 14.9-8.5 17.1-17.1 2.1-4.3 2.1-8.5 2.1-10.7v-213.3c0-17.1-14.9-32-32-32s-32 14.9-32 32v136.5L172.8 125.9c-12.8-12.8-32-12.8-44.8 0-12.8 12.8-12.8 32 0 44.8l185.6 187.7zM695.5 650.7H832c17.1 0 32-14.9 32-32s-14.9-32-32-32H618.7c-4.3 0-8.5 0-10.7 2.1-8.5 4.3-14.9 8.5-17.1 17.1-2.1 4.3-2.1 8.5-2.1 10.7v213.3c0 17.1 14.9 32 32 32s32-14.9 32-32v-136.5l200.5 200.5c6.4 6.4 14.9 8.5 23.5 8.5s17.1-2.1 23.5-8.5c12.8-12.8 12.8-32 0-44.8l-204.8-198.4zM435.2 605.9c-4.3-8.5-8.5-14.9-17.1-17.1-4.3-2.1-8.5-2.1-10.7-2.1H192c-17.1 0-32 14.9-32 32s14.9 32 32 32h136.5L128 851.2c-12.8 12.8-12.8 32 0 44.8 6.4 6.4 14.9 8.5 23.5 8.5s17.1-2.1 23.5-8.5l200.5-200.5V832c0 17.1 14.9 32 32 32s32-14.9 32-32V618.7c-2.1-4.3-2.1-8.5-4.3-12.8zM603.7 403.2c4.3 8.5 8.5 14.9 17.1 17.1 4.3 2.1 8.5 2.1 10.7 2.1h213.3c17.1 0 32-14.9 32-32s-14.9-32-32-32h-136.5L896 170.7c12.8-12.8 12.8-32 0-44.8-12.8-12.8-32-12.8-44.8 0l-187.7 187.7V177.1c0-17.1-14.9-32-32-32s-32 14.9-32 32v213.3c2.1 4.3 2.1 8.5 4.3 12.8z" fill="#666666" p-id="1360"></path></svg>