<svg xmlns="http://www.w3.org/2000/svg" viewBox="0 0 1024 1024" version="1.1"><path d="M881.1 394.7c-21.3-23.5-51.2-36.3-81.1-36.3H618.7v-117.3c0-44.8-29.9-85.3-87.5-117.3-17.1-10.7-38.4-12.8-57.6-8.5-19.2 4.3-36.3 17.1-46.9 34.1-2.1 2.1-2.1 4.3-4.3 6.4l-125.9 281.6H204.8c-59.7 0-108.8 46.9-108.8 106.7v258.1c0 57.6 49.1 106.7 108.8 106.7h544c53.3 0 98.1-38.4 106.7-89.6l51.2-337.1c4.3-34.1-6.4-64-25.6-87.5z m-593.1 448H204.8c-25.6 0-44.8-19.2-44.8-42.7v-256c0-23.5 19.2-42.7 44.8-42.7h83.2v341.3z m554.7-373.3L789.3 806.4c-4.3 21.3-21.3 36.3-42.7 36.3H352V471.5l130.1-290.1c2.1-4.3 4.3-4.3 6.4-4.3 2.1 0 4.3 0 8.5 2.1 25.6 14.9 55.5 38.4 55.5 64v149.3c0 17.1 14.9 32 32 32h213.3c12.8 0 25.6 4.3 34.1 14.9 8.5 6.4 12.8 19.2 10.7 29.9z" fill="#666666" p-id="1221"></path></svg>