<svg xmlns="http://www.w3.org/2000/svg" viewBox="0 0 1024 1024" version="1.1"><path d="M512 74.7C270.9 74.7 74.7 270.9 74.7 512S270.9 949.3 512 949.3 949.3 753.1 949.3 512 753.1 74.7 512 74.7z m0 810.7c-204.8 0-373.3-168.5-373.3-373.3S307.2 138.7 512 138.7 885.3 307.2 885.3 512 716.8 885.3 512 885.3z" fill="#666666" p-id="1455"></path><path d="M512 746.7m-42.7 0a42.7 42.7 0 1 0 85.3 0 42.7 42.7 0 1 0-85.3 0Z" fill="#666666" p-id="1456"></path><path d="M512 245.3c-76.8 0-138.7 61.9-138.7 138.7 0 17.1 14.9 32 32 32s32-14.9 32-32c0-40.5 34.1-74.7 74.7-74.7s74.7 34.1 74.7 74.7c0 27.7-53.3 76.8-91.7 100.3-8.5 6.4-14.9 17.1-14.9 27.7v106.7c0 17.1 14.9 32 32 32s32-14.9 32-32v-89.6c34.1-25.6 106.7-83.2 106.7-145.1 0-76.8-61.9-138.7-138.7-138.7z" fill="#666666" p-id="1457"></path></svg>