<svg xmlns="http://www.w3.org/2000/svg" viewBox="0 0 1024 1024" version="1.1"><path d="M512 74.7c241.1 0 437.3 196.3 437.3 437.3S753.1 949.3 512 949.3 74.7 753.1 74.7 512 270.9 74.7 512 74.7zM512 704c-23.5 0-42.7 19.2-42.7 42.7s19.2 42.7 42.7 42.7 42.7-19.2 42.7-42.7-19.2-42.7-42.7-42.7z m0-458.7c-76.8 0-138.7 61.9-138.7 138.7 0 17.1 14.9 32 32 32s32-14.9 32-32c0-40.5 34.1-74.7 74.7-74.7s74.7 34.1 74.7 74.7c0 2.1 0 6.4-2.1 10.7-6.4 14.9-19.2 32-40.5 51.2-10.7 10.7-21.3 19.2-34.1 27.7-2.1 2.1-6.4 4.3-8.5 6.4l-6.4 4.3c-8.5 6.4-14.9 17.1-14.9 27.7v108.8c2.1 17.1 14.9 29.9 32 29.9h2.1c17.1-2.1 29.9-14.9 29.9-32v-89.6l12.8-10.7c10.7-8.5 19.2-17.1 29.9-25.6 27.7-25.6 46.9-49.1 57.6-74.7 4.3-10.7 6.4-23.5 6.4-34.1 0-76.8-61.9-138.7-138.7-138.7z" fill="#666666" p-id="2293"></path></svg>