<svg xmlns="http://www.w3.org/2000/svg" viewBox="0 0 1024 1024" version="1.1"><path d="M917.3 573.9l-87.5-87.5c34.1-32 66.1-68.3 91.7-108.8 8.5-14.9 4.3-34.1-10.7-44.8-14.9-8.5-34.1-4.3-44.8 10.7-76.8 125.9-209.1 200.5-356.3 200.5-145.1 0-279.5-74.7-354.1-198.4-8.5-14.9-29.9-19.2-44.8-10.7-14.9 8.5-19.2 29.9-10.7 44.8 25.6 40.5 55.5 76.8 91.7 108.8l-85.3 85.3c-12.8 12.8-12.8 32 0 44.8 6.4 6.4 14.9 8.5 23.5 8.5s17.1-2.1 23.5-8.5l91.7-91.7c38.4 25.6 81.1 46.9 125.9 59.7l-34.1 130.1c-4.3 17.1 6.4 34.1 23.5 38.4 2.1 0 6.4 2.1 8.5 2.1 14.9 0 27.7-8.5 29.9-23.5l36.3-132.3c25.6 4.3 51.2 6.4 78.9 6.4 27.7 0 55.5-2.1 83.2-6.4l36.3 132.3c4.3 14.9 17.1 23.5 29.9 23.5 2.1 0 6.4 0 8.5-2.1 17.1-4.3 27.7-21.3 23.5-38.4L661.3 584.5c44.8-12.8 85.3-34.1 123.7-59.7l91.7 91.7c6.4 6.4 14.9 8.5 23.5 8.5s17.1-2.1 23.5-8.5c6.4-10.7 6.4-29.9-6.4-42.7z" fill="#666666" p-id="1232"></path></svg>