<svg xmlns="http://www.w3.org/2000/svg" viewBox="0 0 1024 1024" version="1.1"><path d="M768 74.7c40.5 0 72.5 32 74.7 70.4v294.4c-40.5-21.3-89.6-34.1-138.7-34.1-164.3 0-298.7 134.4-298.7 298.7 0 102.4 51.2 192 128 245.3H192c-40.5 0-72.5-32-74.7-70.4V149.3c0-40.5 32-72.5 70.4-74.7H768z m-405.3 362.7h-108.8c-17.1 2.1-29.9 14.9-29.9 32s12.8 29.9 29.9 32H364.8c17.1-2.1 29.9-14.9 29.9-32s-14.9-32-32-32z m320-170.7H253.9c-17.1 2.1-29.9 14.9-29.9 32s12.8 29.9 29.9 32H684.8c17.1-2.1 29.9-14.9 29.9-32s-14.9-32-32-32z" fill="#666666" p-id="2304"></path><path d="M714.7 469.3C851.2 469.3 960 578.1 960 714.7S851.2 960 714.7 960 469.3 851.2 469.3 714.7 578.1 469.3 714.7 469.3z m0 106.7c-17.1 0-32 14.9-32 32v113.1c2.1 10.7 8.5 21.3 19.2 25.6l85.3 38.4 2.1 2.1c14.9 4.3 32-2.1 38.4-17.1l2.1-2.1c4.3-14.9-2.1-32-17.1-38.4L746.7 699.7V605.9c-2.1-17.1-14.9-29.9-32-29.9z" fill="#666666" p-id="2305"></path></svg>