<svg xmlns="http://www.w3.org/2000/svg" viewBox="0 0 1024 1024" version="1.1"><path d="M411.7 885.3H192c-6.4 0-10.7-4.3-10.7-10.7V149.3c0-6.4 4.3-10.7 10.7-10.7h576c6.4 0 10.7 4.3 10.7 10.7v219.7c0 17.1 14.9 32 32 32s32-14.9 32-32V149.3c0-40.5-34.1-74.7-74.7-74.7H192C151.5 74.7 117.3 108.8 117.3 149.3v725.3c0 40.5 34.1 74.7 74.7 74.7h219.7c17.1 0 32-14.9 32-32s-14.9-32-32-32z" fill="#666666" p-id="1254"></path><path d="M704 458.7c-134.4 0-245.3 110.9-245.3 245.3S569.6 949.3 704 949.3 949.3 838.4 949.3 704 838.4 458.7 704 458.7z m0 426.7c-100.3 0-181.3-81.1-181.3-181.3s81.1-181.3 181.3-181.3 181.3 81.1 181.3 181.3-81.1 181.3-181.3 181.3z" fill="#666666" p-id="1255"></path><path d="M802.1 716.8l-66.1-29.9V597.3c0-17.1-14.9-32-32-32s-32 14.9-32 32v110.9c0 12.8 8.5 23.5 19.2 29.9l85.3 38.4c4.3 2.1 8.5 2.1 12.8 2.1 12.8 0 23.5-6.4 29.9-19.2 6.4-17.1 0-34.1-17.1-42.7zM693.3 298.7c0-17.1-14.9-32-32-32H298.7c-17.1 0-32 14.9-32 32s14.9 32 32 32h362.7c17.1 0 32-14.9 32-32zM298.7 437.3c-17.1 0-32 14.9-32 32s14.9 32 32 32h106.7c17.1 0 32-14.9 32-32s-14.9-32-32-32h-106.7z" fill="#666666" p-id="1256"></path></svg>