<svg xmlns="http://www.w3.org/2000/svg" viewBox="0 0 1024 1024" version="1.1"><path d="M925.9 396.8l-32-27.7c-78.9-66.1-185.6-157.9-320-273.1l-12.8-10.7C533.3 61.9 490.7 61.9 462.9 85.3l-151.5 130.1c-85.3 72.5-155.7 132.3-211.2 179.2-17.1 12.8-25.6 32-25.6 53.3v4.3c2.1 38.4 34.1 66.1 70.4 66.1H192v358.4c0 29.9 23.5 53.3 53.3 53.3h164.3c27.7-2.1 49.1-25.6 49.1-53.3v-185.6c0-12.8 8.5-21.3 21.3-21.3h64c12.8 0 21.3 8.5 21.3 21.3v185.6c0 29.9 23.5 53.3 53.3 53.3h164.3c27.7-2.1 49.1-25.6 49.1-53.3V518.4h46.9c38.4 0 70.4-32 70.4-70.4 0-21.3-8.5-38.4-23.5-51.2z" fill="#666666" p-id="2560"></path></svg>