<svg xmlns="http://www.w3.org/2000/svg" viewBox="0 0 1024 1024" version="1.1"><path d="M923.7 394.7c-85.3-70.4-206.9-174.9-362.7-309.3C533.3 61.9 490.7 61.9 462.9 85.3c-155.7 134.4-277.3 238.9-362.7 309.3-14.9 14.9-25.6 34.1-25.6 53.3 0 38.4 32 70.4 70.4 70.4H192v358.4c0 29.9 23.5 53.3 53.3 53.3H405.3c29.9 0 53.3-23.5 53.3-53.3v-206.9h106.7v206.9c0 29.9 23.5 53.3 53.3 53.3h160c29.9 0 53.3-23.5 53.3-53.3V518.4h46.9c38.4 0 70.4-32 70.4-70.4 0-21.3-10.7-40.5-25.6-53.3z m-44.8 59.7h-57.6c-29.9 0-53.3 23.5-53.3 53.3v358.4h-138.7V661.3c0-29.9-23.5-53.3-53.3-53.3h-128c-29.9 0-53.3 23.5-53.3 53.3v206.9H256V507.7c0-29.9-23.5-53.3-53.3-53.3H145.1c-4.3 0-6.4-2.1-6.4-6.4 0-2.1 2.1-4.3 2.1-6.4 85.3-70.4 206.9-174.9 362.7-309.3 4.3-4.3 10.7-4.3 14.9 0 155.7 134.4 277.3 238.9 362.7 309.3 2.1 2.1 2.1 2.1 2.1 4.3 2.1 6.4-2.1 8.5-4.3 8.5z" fill="#666666" p-id="1243"></path></svg>