<svg xmlns="http://www.w3.org/2000/svg" viewBox="0 0 1024 1024" version="1.1"><path d="M819.2 96H204.8c-59.7 0-108.8 49.1-108.8 108.8v616.5c0 59.7 49.1 108.8 108.8 108.8h616.5c59.7 0 108.8-49.1 108.8-108.8V204.8c-2.1-59.7-51.2-108.8-110.9-108.8z m44.8 723.2c0 23.5-19.2 44.8-44.8 44.8H204.8c-23.5 0-44.8-19.2-44.8-44.8V204.8c0-23.5 19.2-44.8 44.8-44.8h616.5c23.5 0 44.8 19.2 44.8 44.8v614.4z" fill="#666666" p-id="1301"></path><path d="M298.7 522.7h128c29.9 0 53.3-23.5 53.3-53.3v-128c0-29.9-23.5-53.3-53.3-53.3h-128c-29.9 0-53.3 23.5-53.3 53.3v128c0 29.9 23.5 53.3 53.3 53.3z m10.7-170.7h106.7v106.7h-106.7v-106.7zM746.7 437.3h-170.7c-17.1 0-32 14.9-32 32s14.9 32 32 32h170.7c17.1 0 32-14.9 32-32s-14.9-32-32-32zM746.7 629.3H277.3c-17.1 0-32 14.9-32 32s14.9 32 32 32h469.3c17.1 0 32-14.9 32-32s-14.9-32-32-32z" fill="#666666" p-id="1302"></path></svg>