<svg xmlns="http://www.w3.org/2000/svg" viewBox="0 0 1024 1024" version="1.1"><path d="M512 74.7C270.9 74.7 74.7 270.9 74.7 512S270.9 949.3 512 949.3 949.3 753.1 949.3 512 753.1 74.7 512 74.7z m0 810.7c-204.8 0-373.3-168.5-373.3-373.3S307.2 138.7 512 138.7 885.3 307.2 885.3 512 716.8 885.3 512 885.3z" fill="#666666" p-id="1313"></path><path d="M448 437.3c17.1 0 32-14.9 32-32v-42.7c0-17.1-14.9-32-32-32s-32 14.9-32 32v42.7c0 17.1 14.9 32 32 32zM576 437.3c17.1 0 32-14.9 32-32v-42.7c0-17.1-14.9-32-32-32s-32 14.9-32 32v42.7c0 17.1 14.9 32 32 32zM320 437.3c17.1 0 32-14.9 32-32v-42.7c0-17.1-14.9-32-32-32s-32 14.9-32 32v42.7c0 17.1 14.9 32 32 32zM704 330.7c-17.1 0-32 14.9-32 32v42.7c0 17.1 14.9 32 32 32s32-14.9 32-32v-42.7c0-17.1-14.9-32-32-32zM448 586.7c17.1 0 32-14.9 32-32v-42.7c0-17.1-14.9-32-32-32s-32 14.9-32 32v42.7c0 17.1 14.9 32 32 32zM576 586.7c17.1 0 32-14.9 32-32v-42.7c0-17.1-14.9-32-32-32s-32 14.9-32 32v42.7c0 17.1 14.9 32 32 32zM352 554.7v-42.7c0-17.1-14.9-32-32-32s-32 14.9-32 32v42.7c0 17.1 14.9 32 32 32s32-14.9 32-32zM704 480c-17.1 0-32 14.9-32 32v42.7c0 17.1 14.9 32 32 32s32-14.9 32-32v-42.7c0-17.1-14.9-32-32-32zM682.7 650.7H341.3c-17.1 0-32 14.9-32 32s14.9 32 32 32h341.3c17.1 0 32-14.9 32-32s-14.9-32-32-32z" fill="#666666" p-id="1314"></path></svg>