<svg xmlns="http://www.w3.org/2000/svg" viewBox="0 0 1024 1024" version="1.1"><path d="M512 74.7C270.9 74.7 74.7 270.9 74.7 512S270.9 949.3 512 949.3 949.3 753.1 949.3 512 753.1 74.7 512 74.7z m0 810.7c-204.8 0-373.3-168.5-373.3-373.3S307.2 138.7 512 138.7 885.3 307.2 885.3 512 716.8 885.3 512 885.3z" fill="#666666" p-id="1325"></path><path d="M512 309.3c-17.1 0-32 14.9-32 32v42.7c0 17.1 14.9 32 32 32s32-14.9 32-32v-42.7c0-17.1-14.9-32-32-32zM512 458.7c-17.1 0-32 14.9-32 32v42.7c0 17.1 14.9 32 32 32s32-14.9 32-32v-42.7c0-17.1-14.9-32-32-32zM512 608c-17.1 0-32 14.9-32 32v42.7c0 17.1 14.9 32 32 32s32-14.9 32-32v-42.7c0-17.1-14.9-32-32-32zM650.7 309.3c-17.1 0-32 14.9-32 32v42.7c0 17.1 14.9 32 32 32S682.7 401.1 682.7 384v-42.7c0-17.1-14.9-32-32-32zM650.7 458.7c-17.1 0-32 14.9-32 32v42.7c0 17.1 14.9 32 32 32S682.7 550.4 682.7 533.3v-42.7c0-17.1-14.9-32-32-32zM650.7 608c-17.1 0-32 14.9-32 32v42.7c0 17.1 14.9 32 32 32S682.7 699.7 682.7 682.7v-42.7c0-17.1-14.9-32-32-32zM373.3 309.3c-17.1 0-32 14.9-32 32v42.7c0 17.1 14.9 32 32 32S405.3 401.1 405.3 384v-42.7c0-17.1-14.9-32-32-32zM373.3 458.7c-17.1 0-32 14.9-32 32v42.7c0 17.1 14.9 32 32 32S405.3 550.4 405.3 533.3v-42.7c0-17.1-14.9-32-32-32zM373.3 608c-17.1 0-32 14.9-32 32v42.7c0 17.1 14.9 32 32 32S405.3 699.7 405.3 682.7v-42.7c0-17.1-14.9-32-32-32z" fill="#666666" p-id="1326"></path></svg>