<svg xmlns="http://www.w3.org/2000/svg" viewBox="0 0 1024 1024" version="1.1"><path d="M110.9 352l384 192c4.3 2.1 10.7 4.3 17.1 4.3s10.7-2.1 17.1-4.3l384-192c12.8-6.4 19.2-19.2 19.2-32s-8.5-25.6-19.2-32l-384-192c-10.7-4.3-21.3-4.3-32 0l-384 192c-12.8 6.4-19.2 19.2-19.2 32s6.4 25.6 17.1 32zM512 168.5L814.9 320 512 471.5 209.1 320 512 168.5zM878.9 672L512 855.5 145.1 672c-17.1-8.5-38.4-2.1-49.1 17.1-8.5 17.1-2.1 38.4 17.1 49.1l384 192c4.3 2.1 10.7 4.3 17.1 4.3s10.7-2.1 17.1-4.3l384-192c17.1-8.5 25.6-29.9 17.1-49.1-12.8-19.2-34.1-25.6-53.3-17.1z" fill="#666666" p-id="1371"></path><path d="M878.9 480L512 663.5 145.1 480c-17.1-8.5-38.4-2.1-49.1 17.1-8.5 17.1-2.1 38.4 17.1 49.1l384 192c4.3 2.1 10.7 4.3 17.1 4.3s10.7-2.1 17.1-4.3l384-192c17.1-8.5 25.6-29.9 17.1-49.1-12.8-19.2-34.1-25.6-53.3-17.1z" fill="#666666" p-id="1372"></path></svg>