<svg xmlns="http://www.w3.org/2000/svg" viewBox="0 0 1024 1024" version="1.1"><path d="M512 74.7c-17.1 0-32 14.9-32 32v149.3c0 17.1 14.9 32 32 32s32-14.9 32-32V106.7c0-17.1-14.9-32-32-32zM693.3 362.7c8.5 0 17.1-2.1 23.5-8.5l104.5-104.5c12.8-12.8 12.8-32 0-44.8-12.8-12.8-32-12.8-44.8 0l-104.5 104.5c-12.8 12.8-12.8 32 0 44.8 4.3 6.4 12.8 8.5 21.3 8.5zM917.3 480h-149.3c-17.1 0-32 14.9-32 32s14.9 32 32 32h149.3c17.1 0 32-14.9 32-32s-14.9-32-32-32zM714.7 669.9c-12.8-12.8-32-12.8-44.8 0s-12.8 32 0 44.8l104.5 104.5c6.4 6.4 14.9 8.5 23.5 8.5s17.1-2.1 23.5-8.5c12.8-12.8 12.8-32 0-44.8l-106.7-104.5zM512 736c-17.1 0-32 14.9-32 32v149.3c0 17.1 14.9 32 32 32s32-14.9 32-32v-149.3c0-17.1-14.9-32-32-32zM309.3 669.9l-104.5 104.5c-12.8 12.8-12.8 32 0 44.8 6.4 6.4 14.9 8.5 23.5 8.5s17.1-2.1 23.5-8.5l104.5-104.5c12.8-12.8 12.8-32 0-44.8s-36.3-12.8-46.9 0zM288 512c0-17.1-14.9-32-32-32H106.7c-17.1 0-32 14.9-32 32s14.9 32 32 32h149.3c17.1 0 32-14.9 32-32zM247.5 202.7c-12.8-12.8-32-12.8-44.8 0-12.8 12.8-12.8 32 0 44.8l104.5 104.5c6.4 6.4 14.9 8.5 23.5 8.5s17.1-2.1 23.5-8.5c12.8-12.8 12.8-32 0-44.8l-106.7-104.5z" fill="#666666" p-id="1444"></path></svg>