<svg xmlns="http://www.w3.org/2000/svg" viewBox="0 0 1024 1024" version="1.1"><path d="M512 74.7c194.1 0 352 160 352 354.1 0 119.5-64 236.8-168.5 349.9-36.3 38.4-74.7 72.5-113.1 104.5-12.8 10.7-25.6 21.3-38.4 27.7l-6.4 4.3-8.5 6.4c-10.7 6.4-25.6 6.4-36.3 0-2.1-2.1-4.3-4.3-8.5-6.4l-12.8-8.5c-8.5-6.4-19.2-14.9-29.9-23.5-38.4-32-76.8-66.1-113.1-104.5-104.5-110.9-168.5-230.4-168.5-349.9C160 234.7 317.9 74.7 512 74.7zM512 298.7c-64 0-117.3 53.3-117.3 117.3S448 533.3 512 533.3s117.3-53.3 117.3-117.3S576 298.7 512 298.7z" fill="#666666" p-id="2505"></path></svg>