<svg xmlns="http://www.w3.org/2000/svg" viewBox="0 0 1024 1024" version="1.1"><path d="M512 74.7C317.9 74.7 160 234.7 160 428.8c0 264.5 320 484.3 334.9 492.8 6.4 4.3 10.7 6.4 17.1 6.4s12.8-2.1 17.1-6.4c12.8-8.5 334.9-228.3 334.9-492.8C864 234.7 706.1 74.7 512 74.7z m0 782.9c-66.1-49.1-288-228.3-288-426.7 0-160 130.1-290.1 288-290.1s288 130.1 288 290.1c0 196.3-221.9 377.6-288 426.7z" fill="#666666" p-id="1406"></path><path d="M512 309.3c-76.8 0-138.7 61.9-138.7 138.7s61.9 138.7 138.7 138.7 138.7-61.9 138.7-138.7-61.9-138.7-138.7-138.7z m0 213.3c-40.5 0-74.7-34.1-74.7-74.7s34.1-74.7 74.7-74.7 74.7 34.1 74.7 74.7-34.1 74.7-74.7 74.7z" fill="#666666" p-id="1407"></path></svg>