<svg xmlns="http://www.w3.org/2000/svg" viewBox="0 0 1024 1024" version="1.1"><path d="M512 74.7c241.1 0 437.3 196.3 437.3 437.3S753.1 949.3 512 949.3 74.7 753.1 74.7 512 270.9 74.7 512 74.7z m-187.7 576h-2.1c-17.1 2.1-29.9 14.9-29.9 32s14.9 32 32 32h375.5c17.1-2.1 29.9-14.9 29.9-32s-14.9-32-32-32H324.3zM362.7 362.7c-23.5 0-42.7 19.2-42.7 42.7v66.1c2.1 21.3 19.2 40.5 42.7 40.5s42.7-19.2 42.7-42.7v-66.1c-2.1-23.5-19.2-40.5-42.7-40.5z m298.7 0c-23.5 0-42.7 19.2-42.7 42.7v66.1c2.1 21.3 19.2 40.5 42.7 40.5s42.7-19.2 42.7-42.7v-66.1c-2.1-23.5-19.2-40.5-42.7-40.5z" fill="#666666" p-id="2527"></path></svg>