<svg xmlns="http://www.w3.org/2000/svg" viewBox="0 0 1024 1024" version="1.1"><path d="M512 949.3C270.9 949.3 74.7 753.1 74.7 512S270.9 74.7 512 74.7 949.3 270.9 949.3 512 753.1 949.3 512 949.3z m0-810.7C307.2 138.7 138.7 307.2 138.7 512S307.2 885.3 512 885.3 885.3 716.8 885.3 512 716.8 138.7 512 138.7z" fill="#666666" p-id="1418"></path><path d="M362.7 512c-23.5 0-42.7-19.2-42.7-42.7v-64c0-23.5 19.2-42.7 42.7-42.7s42.7 19.2 42.7 42.7v64c0 23.5-19.2 42.7-42.7 42.7zM661.3 512c-23.5 0-42.7-19.2-42.7-42.7v-64c0-23.5 19.2-42.7 42.7-42.7s42.7 19.2 42.7 42.7v64c0 23.5-19.2 42.7-42.7 42.7zM699.7 714.7H324.3c-17.1 0-32-14.9-32-32s14.9-32 32-32h373.3c17.1 0 32 14.9 32 32s-12.8 32-29.9 32z" fill="#666666" p-id="1419"></path></svg>