<svg xmlns="http://www.w3.org/2000/svg" viewBox="0 0 1024 1024" version="1.1"><path d="M170.7 213.3m-64 0a64 64 0 1 0 128 0 64 64 0 1 0-128 0Z" fill="#666666" p-id="1430"></path><path d="M170.7 512m-64 0a64 64 0 1 0 128 0 64 64 0 1 0-128 0Z" fill="#666666" p-id="1431"></path><path d="M170.7 810.7m-64 0a64 64 0 1 0 128 0 64 64 0 1 0-128 0Z" fill="#666666" p-id="1432"></path><path d="M896 778.7H362.7c-17.1 0-32 14.9-32 32s14.9 32 32 32h533.3c17.1 0 32-14.9 32-32s-14.9-32-32-32zM362.7 245.3h533.3c17.1 0 32-14.9 32-32s-14.9-32-32-32H362.7c-17.1 0-32 14.9-32 32s14.9 32 32 32zM896 480H362.7c-17.1 0-32 14.9-32 32s14.9 32 32 32h533.3c17.1 0 32-14.9 32-32s-14.9-32-32-32z" fill="#666666" p-id="1433"></path></svg>