<svg xmlns="http://www.w3.org/2000/svg" viewBox="0 0 1024 1024" version="1.1"><path d="M516.3 657.1c78.9 0 142.9-64 142.9-142.9V217.6a142.9 142.9 0 0 0-285.9 0v296.5c0 78.9 64 142.9 142.9 142.9z m-78.9-439.5c0-42.7 36.3-78.9 78.9-78.9s78.9 36.3 78.9 78.9v296.5c0 42.7-36.3 78.9-78.9 78.9s-78.9-36.3-78.9-78.9V217.6z" fill="#666666" p-id="1502"></path><path d="M774.4 409.6c-17.1 0-32 14.9-32 32v74.7c0 125.9-102.4 228.3-228.3 228.3S288 640 288 514.1v-74.7c0-17.1-14.9-32-32-32s-32 14.9-32 32v74.7c0 149.3 113.1 273.1 260.3 290.1v85.3h-117.3c-17.1 0-32 14.9-32 32s14.9 32 32 32h296.5c17.1 0 32-14.9 32-32s-14.9-32-32-32h-117.3v-85.3c145.1-14.9 260.3-140.8 260.3-290.1v-74.7c0-17.1-12.8-29.9-32-29.9z" fill="#666666" p-id="1503"></path></svg>