<svg xmlns="http://www.w3.org/2000/svg" viewBox="0 0 1024 1024" version="1.1"><path d="M746.7 949.3H277.3c-40.5 0-74.7-34.1-74.7-74.7V149.3c0-40.5 34.1-74.7 74.7-74.7h469.3c40.5 0 74.7 34.1 74.7 74.7v725.3c0 40.5-34.1 74.7-74.7 74.7z m-469.3-810.7c-6.4 0-10.7 4.3-10.7 10.7v725.3c0 6.4 4.3 10.7 10.7 10.7h469.3c6.4 0 10.7-4.3 10.7-10.7V149.3c0-6.4-4.3-10.7-10.7-10.7H277.3z" fill="#666666" p-id="1575"></path><path d="M512 768m-42.7 0a42.7 42.7 0 1 0 85.3 0 42.7 42.7 0 1 0-85.3 0Z" fill="#666666" p-id="1576"></path><path d="M597.3 245.3h-170.7c-17.1 0-32-14.9-32-32s14.9-32 32-32h170.7c17.1 0 32 14.9 32 32s-14.9 32-32 32z" fill="#666666" p-id="1577"></path></svg>