<svg xmlns="http://www.w3.org/2000/svg" viewBox="0 0 1024 1024" version="1.1"><path d="M405.3 458.7H149.3c-29.9 0-53.3-23.5-53.3-53.3V149.3c0-29.9 23.5-53.3 53.3-53.3h256c29.9 0 53.3 23.5 53.3 53.3v256c0 29.9-23.5 53.3-53.3 53.3z m-245.3-64h234.7v-234.7h-234.7v234.7zM874.7 458.7H618.7c-29.9 0-53.3-23.5-53.3-53.3V149.3c0-29.9 23.5-53.3 53.3-53.3h256c29.9 0 53.3 23.5 53.3 53.3v256c0 29.9-23.5 53.3-53.3 53.3z m-245.3-64h234.7v-234.7h-234.7v234.7zM874.7 928H618.7c-29.9 0-53.3-23.5-53.3-53.3V618.7c0-29.9 23.5-53.3 53.3-53.3h256c29.9 0 53.3 23.5 53.3 53.3v256c0 29.9-23.5 53.3-53.3 53.3z m-245.3-64h234.7v-234.7h-234.7v234.7zM405.3 928H149.3c-29.9 0-53.3-23.5-53.3-53.3V618.7c0-29.9 23.5-53.3 53.3-53.3h256c29.9 0 53.3 23.5 53.3 53.3v256c0 29.9-23.5 53.3-53.3 53.3z m-245.3-64h234.7v-234.7h-234.7v234.7z" fill="#666666" p-id="1480"></path></svg>