<svg xmlns="http://www.w3.org/2000/svg" viewBox="0 0 1024 1024" version="1.1"><path d="M512 74.7C270.9 74.7 74.7 270.9 74.7 512S270.9 949.3 512 949.3 949.3 753.1 949.3 512 753.1 74.7 512 74.7z m0 810.7c-204.8 0-373.3-168.5-373.3-373.3S307.2 138.7 512 138.7 885.3 307.2 885.3 512 716.8 885.3 512 885.3z" fill="#666666" p-id="1514"></path><path d="M512 512m-42.7 0a42.7 42.7 0 1 0 85.3 0 42.7 42.7 0 1 0-85.3 0Z" fill="#666666" p-id="1515"></path><path d="M341.3 512m-42.7 0a42.7 42.7 0 1 0 85.3 0 42.7 42.7 0 1 0-85.3 0Z" fill="#666666" p-id="1516"></path><path d="M682.7 512m-42.7 0a42.7 42.7 0 1 0 85.3 0 42.7 42.7 0 1 0-85.3 0Z" fill="#666666" p-id="1517"></path></svg>