<svg xmlns="http://www.w3.org/2000/svg" viewBox="0 0 1024 1024" version="1.1"><path d="M921.6 492.8l-121.6-121.6c-12.8-12.8-32-12.8-44.8 0s-12.8 32 0 44.8l66.1 66.1h-277.3v-277.3l66.1 66.1c6.4 6.4 14.9 8.5 23.5 8.5s17.1-2.1 23.5-8.5c12.8-12.8 12.8-32 0-44.8l-121.6-121.6c-12.8-12.8-32-12.8-44.8 0l-121.6 121.6c-12.8 12.8-12.8 32 0 44.8 12.8 12.8 32 12.8 44.8 0l66.1-66.1v277.3h-277.3l66.1-66.1c12.8-12.8 12.8-32 0-44.8-12.8-12.8-32-12.8-44.8 0l-121.6 121.6c-12.8 12.8-12.8 32 0 44.8l121.6 121.6c6.4 6.4 14.9 8.5 23.5 8.5s17.1-2.1 23.5-8.5c12.8-12.8 12.8-32 0-44.8l-66.1-66.1h277.3v277.3l-66.1-66.1c-12.8-12.8-32-12.8-44.8 0s-12.8 32 0 44.8l121.6 121.6c6.4 6.4 14.9 8.5 23.5 8.5s17.1-2.1 23.5-8.5l121.6-121.6c12.8-12.8 12.8-32 0-44.8s-32-12.8-44.8 0l-66.1 66.1v-277.3h277.3l-66.1 66.1c-12.8 12.8-12.8 32 0 44.8 6.4 6.4 14.9 8.5 23.5 8.5s17.1-2.1 23.5-8.5l121.6-121.6c6.4-6.4 8.5-14.9 8.5-23.5s-10.7-14.9-17.1-21.3z" fill="#666666" p-id="1635"></path></svg>