<?xml version="1.0" standalone="no"?><!DOCTYPE svg PUBLIC "-//W3C//DTD SVG 1.1//EN" "http://www.w3.org/Graphics/SVG/1.1/DTD/svg11.dtd"><svg t="1697692014009" class="icon" viewBox="0 0 2166 1024" version="1.1" xmlns="http://www.w3.org/2000/svg" p-id="4311" xmlns:xlink="http://www.w3.org/1999/xlink" width="423.046875" height="200"><path d="M644.66812459 64.87154812c94.86887732 8.57143427 172.59488612 47.43444004 233.23633174 116.61816586a70.78722617 70.78722617 0 0 0-58.30908293 14.57727071c31.37028795 50.32073791 36.23909433 103.79016852 14.57727072 160.34997803-23.79010515-38.57145696-57.81345581-58.01753691-102.04089514-58.30908291-64.63561946-25.33529738-132.65316393-35.04375897-204.08179021-29.15454145 54.69391996-51.66184631 64.43153555-105.10212283 29.15454145-160.34997806 36.09332129-6.76385277 65.24786278-21.34112355 87.46362437-43.73181218z" fill="#37A5FD" p-id="4312"></path><path d="M644.66812459 64.87154812c-22.21576162 22.39068869-51.37030308 36.9679594-87.46362437 43.73181218 35.27699417 55.2478552 25.53937853 108.68813177-29.15454145 160.34997806-164.05260592 60.87468351-217.49287963 177.49284939-160.34997805 349.85449757 45.77262883 70.64145318 108.95052091 109.50445898 189.5045195 116.61816579-4.95627134 38.54230293 4.75219026 72.56565355 29.15454146 102.04089514l-58.30908291 29.15454149c45.65601265 17.7259606 84.54816966 42.01169282 116.61816582 72.88635081-233.38210474 14.63557882-398.60088917-82.53650711-495.62720488-291.54541181v-291.54541463c97.02631289-209.0089075 262.24510018-306.18099341 495.62720488-291.5454146z" fill="#3E96FE" p-id="4313"></path><path d="M1606.76799286 64.87154812v204.08179024c-49.56272161-4.66472528-98.13418617 0.17492709-145.77270734 14.57727072a1665.9196506 1665.9196506 0 0 0-204.08179019 160.34997808c-18.65890675-72.30326156-28.39652236-140.34996287-29.15454148-204.08179023 87.37615945-136.29748091 213.70278965-194.60656385 379.00903901-174.92724881z" fill="#27C7F8" p-id="4314"></path><path d="M1606.76799286 64.87154812c193.3529176 18.60059867 329.38800932 115.77268464 408.16358047 291.5454146v291.54541463c-78.77557114 175.77273005-214.81066007 272.94481597-408.16358047 291.54541181-13.20700831-27.93005207-32.65308542-52.24493837-58.30908294-72.88635081-9.79592647-47.49274814 9.6209994-91.22456035 58.30908294-131.19543663 190.96224688-42.01169282 254.14013899-158.62985871 189.50451954-349.85449754-45.77262883-70.64145318-108.95052091-109.50445898-189.50451954-116.61816582v-204.08179024z" fill="#1EDCF7" p-id="4315"></path><path d="M877.90445633 181.48971398c193.0613744 108.45489379 183.32375598 191.07886586-29.15454152 247.81360245a733.23671583 733.23671583 0 0 1-116.61816583-131.19543662c44.22743934 0.29154602 78.25079002 19.73762315 102.04089514 58.30908291 21.66182358-56.55980954 16.79301722-110.02924014-14.57727072-160.34997803a70.78722617 70.78722617 0 0 1 58.30908293-14.57727071z" fill="#32AEFC" p-id="4316"></path><path d="M1227.75895385 239.79879693c0.7580191 63.73182735 10.49563471 131.77852865 29.15454148 204.08179023-38.863003 38.863003-38.863003 77.75516285 0 116.61816583-35.13122109 34.16912367-35.13122109 73.03212667 0 116.61816585-10.34986172 29.79594164-29.79594164 49.24202156-58.30908296 58.30908288-86.88053232-77.08460864-174.34415671-154.8397687-262.39087317-233.23633164a278734.3257121 278734.3257121 0 0 1 291.54541465-262.39087315z" fill="#2BBCFB" p-id="4317"></path><path d="M877.90445633 822.88962617a70.78722617 70.78722617 0 0 1-58.30908293-14.57727077c10.11662653-45.74347476 14.98543294-99.18375127 14.57727072-160.34997805-23.79010515 38.57145696-57.81345581 58.01753691-102.04089514 58.30908293 61.10791868-146.35579935 148.57154307-170.67068569 262.39087316-72.88635362 10.75802671 83.87761549-28.13413314 147.05550763-116.61816581 189.50451951z" fill="#31B0FB" p-id="4318"></path><path d="M1256.91349533 560.49875299a916.73540167 916.73540167 0 0 1 145.77270729 131.19543659c63.49859222 35.04375897 131.48698262 49.62102971 204.08179024 43.73181214-48.68808348 39.97087623-68.10500942 83.70268842-58.30908294 131.19543663 25.65599748 20.64141529 45.10207461 44.9563016 58.30908294 72.88635081-182.3325017 20.40818016-318.39674751-47.60936716-408.16358049-204.08178744 28.5131413-9.06706138 47.95922125-28.5131413 58.30908296-58.30908288-35.13122109-43.58603917-35.13122109-82.44904221 0-116.61816585z" fill="#26C9F8" p-id="4319"></path><path d="M877.90445633 822.88962617c-60.64144554 69.18372578-138.36745436 108.04673156-233.23633174 116.61816299-32.06999616-30.87465799-70.96215321-55.16039308-116.61816582-72.88635081l58.30908291-29.15454149c-24.40235124-29.47524151-34.1108128-63.49859222-29.15454146-102.04089514 61.80762687 5.10204431 120.11670982-4.63557125 174.92724876-29.15454144 44.22743934-0.29154602 78.25079002-19.73762315 102.04089514-58.30908293 0.4081622 61.16622675-4.46064417 114.60650329-14.57727072 160.34997805a70.78722617 70.78722617 0 0 0 58.30908293 14.57727077z" fill="#38A3FC" p-id="4320"></path></svg>