<svg xmlns="http://www.w3.org/2000/svg" viewBox="0 0 1024 1024" version="1.1"><path d="M834.1 213.3c-6.4-12.8-17.1-23.5-29.9-27.7-12.8-4.3-27.7-4.3-40.5 2.1L106.7 501.3c-14.9 6.4-25.6 21.3-29.9 36.3-6.4 27.7 12.8 57.6 40.5 64l249.6 53.3 53.3 249.6c4.3 17.1 14.9 29.9 29.9 36.3 6.4 4.3 14.9 4.3 23.5 4.3 19.2 0 38.4-10.7 49.1-29.9l313.6-657.1c6.4-12.8 6.4-29.9-2.1-44.8zM477.9 861.9L426.7 622.9c-2.1-12.8-12.8-21.3-23.5-23.5L162.1 546.1l601.6-288-285.9 603.7z" fill="#666666" p-id="1599"></path></svg>