<svg xmlns="http://www.w3.org/2000/svg" viewBox="0 0 1024 1024" version="1.1"><path d="M800 625.1V448c0-117.3-70.4-217.6-170.7-262.4-4.3-61.9-55.5-110.9-117.3-110.9s-113.1 49.1-117.3 110.9c-100.3 44.8-170.7 145.1-170.7 262.4v177.1c-57.6 46.9-85.3 110.9-85.3 185.6 0 17.1 14.9 32 32 32h206.9c14.9 61.9 70.4 106.7 134.4 106.7s119.5-44.8 134.4-106.7H853.3c17.1 0 32-14.9 32-32 0-76.8-27.7-138.7-85.3-185.6zM512 138.7c19.2 0 36.3 10.7 44.8 25.6-14.9-2.1-29.9-4.3-44.8-4.3-14.9 0-29.9 2.1-44.8 4.3 8.5-14.9 25.6-25.6 44.8-25.6z m0 746.7c-29.9 0-55.5-17.1-66.1-42.7h134.4c-12.8 25.6-38.4 42.7-68.3 42.7z m-307.2-106.7c6.4-46.9 29.9-83.2 70.4-113.1 8.5-6.4 12.8-14.9 12.8-25.6v-192c0-123.7 100.3-224 224-224S736 324.3 736 448v192c0 10.7 4.3 19.2 12.8 25.6 40.5 29.9 64 66.1 70.4 113.1H204.8z" fill="#666666" p-id="1491"></path></svg>