<svg xmlns="http://www.w3.org/2000/svg" viewBox="0 0 1024 1024" version="1.1"><path d="M823.5 512H578.1v-187.7c0-66.1-53.3-119.5-117.3-119.5s-117.3 53.3-117.3 119.5v296.5l-21.3-21.3c-46.9-46.9-121.6-46.9-168.5-2.1s-44.8 121.6 2.1 168.5l174.9 174.9c6.4 6.4 14.9 8.5 23.5 8.5 8.5 0 17.1-2.1 23.5-8.5 12.8-12.8 12.8-32 0-44.8l-174.9-174.9c-21.3-21.3-23.5-57.6-2.1-76.8 21.3-21.3 55.5-19.2 76.8 2.1l74.7 74.7c12.8 12.8 32 12.8 44.8 0 6.4-6.4 8.5-14.9 8.5-23.5V326.4c0-29.9 23.5-55.5 53.3-55.5s53.3 25.6 53.3 55.5v219.7c0 17.1 14.9 32 32 32h277.3c6.4 0 10.7 6.4 10.7 12.8V917.3c0 17.1 14.9 32 32 32S896 934.4 896 917.3V586.7c2.1-40.5-32-74.7-72.5-74.7z" fill="#666666" p-id="1540"></path><path d="M266.7 330.7c17.1 0 32-14.9 32-32 0-87.5 72.5-160 160-160S618.7 211.2 618.7 298.7c0 17.1 14.9 32 32 32S682.7 315.7 682.7 298.7c0-123.7-100.3-224-224-224S234.7 174.9 234.7 298.7c0 17.1 14.9 32 32 32z" fill="#666666" p-id="1541"></path></svg>