<svg xmlns="http://www.w3.org/2000/svg" viewBox="0 0 1024 1024" version="1.1"><path d="M810.7 949.3H213.3c-40.5 0-74.7-34.1-74.7-74.7V149.3c0-40.5 34.1-74.7 74.7-74.7h597.3c40.5 0 74.7 34.1 74.7 74.7v725.3c0 40.5-34.1 74.7-74.7 74.7z m-597.3-810.7c-6.4 0-10.7 4.3-10.7 10.7v725.3c0 6.4 4.3 10.7 10.7 10.7h597.3c6.4 0 10.7-4.3 10.7-10.7V149.3c0-6.4-4.3-10.7-10.7-10.7H213.3z" fill="#666666" p-id="1528"></path><path d="M512 768m-42.7 0a42.7 42.7 0 1 0 85.3 0 42.7 42.7 0 1 0-85.3 0Z" fill="#666666" p-id="1529"></path></svg>