<svg xmlns="http://www.w3.org/2000/svg" viewBox="0 0 1024 1024" version="1.1"><path d="M853.3 96c40.5 0 74.7 34.1 74.7 74.7v682.7c0 40.5-34.1 74.7-74.7 74.7H170.7c-40.5 0-74.7-34.1-74.7-74.7V170.7c0-40.5 34.1-74.7 74.7-74.7h682.7zM746.7 469.3c-10.7-12.8-32-14.9-44.8-2.1L320 808.5l-2.1 2.1c-19.2 19.2-4.3 53.3 23.5 53.3h492.8c17.1-2.1 29.9-14.9 29.9-32v-196.3c0-6.4-2.1-10.7-6.4-14.9l-108.8-149.3-2.1-2.1z m-394.7-202.7c-46.9 0-85.3 38.4-85.3 85.3s38.4 85.3 85.3 85.3 85.3-38.4 85.3-85.3-38.4-85.3-85.3-85.3z" fill="#666666" p-id="2395"></path></svg>