<svg xmlns="http://www.w3.org/2000/svg" viewBox="0 0 1024 1024" version="1.1"><path d="M819.2 96H204.8c-59.7 0-108.8 49.1-108.8 108.8v616.5c0 59.7 49.1 108.8 108.8 108.8h616.5c59.7 0 108.8-49.1 108.8-108.8V204.8c-2.1-59.7-51.2-108.8-110.9-108.8zM160 819.2V204.8c0-23.5 19.2-44.8 44.8-44.8h616.5c23.5 0 44.8 19.2 44.8 44.8v388.3l-125.9-125.9c-27.7-27.7-76.8-27.7-104.5 0l-390.4 384c-4.3 4.3-6.4 8.5-6.4 12.8H204.8c-25.6 0-44.8-19.2-44.8-44.8z m659.2 44.8H324.3l354.1-354.1c2.1-2.1 6.4-2.1 8.5-2.1s4.3 0 8.5 2.1l160 160c4.3 4.3 8.5 6.4 12.8 6.4v142.9c-4.3 25.6-23.5 44.8-49.1 44.8z" fill="#666666" p-id="1669"></path><path d="M375.5 482.1c59.7 0 106.7-46.9 106.7-106.7s-46.9-106.7-106.7-106.7-106.7 46.9-106.7 106.7 49.1 106.7 106.7 106.7z m0-149.3c23.5 0 42.7 19.2 42.7 42.7s-19.2 42.7-42.7 42.7-42.7-19.2-42.7-42.7 19.2-42.7 42.7-42.7z" fill="#666666" p-id="1670"></path></svg>