<svg xmlns="http://www.w3.org/2000/svg" viewBox="0 0 1024 1024" version="1.1"><path d="M911.2 323.9L689.6 102.4c-18.8-18.8-50.2-20.9-71.1-2.1l-267.5 229.9-96.1 14.6c-6.3 0-12.5 4.2-16.7 8.4l-58.5 58.5c-20.9 20.9-20.9 54.3 0 73.1l152.6 152.6L125.4 844.3c-12.5 12.5-12.5 31.3 0 43.9 6.3 6.3 14.6 10.4 20.9 10.4s16.7-2.1 23-8.4l204.8-204.8 152.6 152.6c10.4 10.4 23 14.6 37.6 14.6s27.2-6.3 37.6-14.6l58.5-58.5c4.2-4.2 8.4-10.4 8.4-16.7l14.6-96.1 227.8-267.5c18.8-25.1 18.8-56.4 0-75.2zM631.1 629c-4.2 4.2-6.3 10.4-6.3 14.6l-14.6 94-46 46-334.4-334.4 43.9-43.9 94-14.6c6.3 0 10.4-4.2 14.6-6.3l269.6-229.9 206.9 206.9-227.8 267.5z" fill="#666666" p-id="1693"></path></svg>