<svg xmlns="http://www.w3.org/2000/svg" viewBox="0 0 1024 1024" version="1.1"><path d="M512 74.7C270.9 74.7 74.7 270.9 74.7 512S270.9 949.3 512 949.3 949.3 753.1 949.3 512 753.1 74.7 512 74.7z m0 810.7c-204.8 0-373.3-168.5-373.3-373.3S307.2 138.7 512 138.7 885.3 307.2 885.3 512 716.8 885.3 512 885.3z" fill="#666666" p-id="1552"></path><path d="M708.3 465.1l-234.7-134.4c-8.5-4.3-17.1-6.4-25.6-6.4-29.9 0-53.3 23.5-53.3 53.3v268.8c0 8.5 2.1 19.2 6.4 25.6 10.7 17.1 27.7 27.7 46.9 27.7 8.5 0 17.1-2.1 25.6-6.4l234.7-134.4c8.5-4.3 14.9-10.7 19.2-19.2 6.4-12.8 8.5-27.7 4.3-40.5-2.1-14.9-10.7-25.6-23.5-34.1z m-249.6 162.1V396.8L661.3 512l-202.7 115.2z" fill="#666666" p-id="1553"></path></svg>