<svg xmlns="http://www.w3.org/2000/svg" viewBox="0 0 1024 1024" version="1.1"><path d="M819.2 364.8h-44.8V128c0-17.1-14.9-32-32-32H281.6c-17.1 0-32 14.9-32 32v236.8H204.8c-59.7 0-108.8 49.1-108.8 108.8v192c0 59.7 49.1 108.8 108.8 108.8h44.8V896c0 17.1 14.9 32 32 32h460.8c17.1 0 32-14.9 32-32v-121.6h44.8c59.7 0 108.8-49.1 108.8-108.8v-192c0-59.7-49.1-108.8-108.8-108.8zM313.6 160h396.8v204.8H313.6V160z m396.8 704H313.6V620.8h396.8v243.2z m153.6-198.4c0 25.6-19.2 44.8-44.8 44.8h-44.8v-121.6c0-17.1-14.9-32-32-32H281.6c-17.1 0-32 14.9-32 32v121.6H204.8c-25.6 0-44.8-19.2-44.8-44.8v-192c0-25.6 19.2-44.8 44.8-44.8h614.4c25.6 0 44.8 19.2 44.8 44.8v192z" fill="#666666" p-id="1564"></path></svg>