<svg xmlns="http://www.w3.org/2000/svg" viewBox="0 0 1024 1024" version="1.1"><path d="M934.4 206.9c-17.1-4.3-34.1 6.4-38.4 23.5l-23.5 87.5C797.9 183.5 654.9 96 497.1 96 264.5 96 74.7 281.6 74.7 512s189.9 416 422.4 416c179.2 0 339.2-110.9 398.9-275.2 6.4-17.1-2.1-34.1-19.2-40.5-17.1-6.4-34.1 2.1-40.5 19.2-51.2 138.7-187.7 232.5-339.2 232.5C298.7 864 138.7 706.1 138.7 512S300.8 160 497.1 160c145.1 0 277.3 87.5 330.7 217.6l-128-36.3c-17.1-4.3-34.1 6.4-38.4 23.5-4.3 17.1 6.4 34.1 23.5 38.4l185.6 49.1c2.1 0 6.4 2.1 8.5 2.1 6.4 0 10.7-2.1 17.1-4.3 6.4-4.3 12.8-10.7 14.9-19.2l49.1-185.6c0-17.1-8.5-34.1-25.6-38.4z" fill="#666666" p-id="1646"></path></svg>