<svg xmlns="http://www.w3.org/2000/svg" viewBox="0 0 1024 1024" version="1.1"><path d="M409.6 294.7l71.1-71.1v248.7c0 16.7 14.6 31.3 31.3 31.3s31.3-14.6 31.3-31.3v-250.8l71.1 71.1c6.3 6.3 14.6 8.4 23 8.4s16.7-2.1 23-8.4c12.5-12.5 12.5-31.3 0-43.9l-125.4-125.4c-12.5-12.5-31.3-12.5-43.9 0l-125.4 125.4c-12.5 12.5-12.5 31.3 0 43.9 10.4 12.5 31.3 12.5 43.9 2.1z" fill="#666666" p-id="1657"></path><path d="M936.2 451.4l-242.4-81.5c-16.7-6.3-33.4 4.2-39.7 18.8-6.3 16.7 4.2 33.4 18.8 39.7l156.7 52.2L512 593.5 194.4 480.7l156.7-52.2c16.7-6.3 25.1-23 18.8-39.7-6.3-16.7-23-25.1-39.7-18.8L87.8 451.4c-12.5 4.2-20.9 16.7-20.9 29.3 0 12.5 8.4 25.1 20.9 29.3l413.8 146.3c4.2 2.1 6.3 2.1 10.4 2.1s6.3 0 10.4-2.1l413.8-146.3c12.5-4.2 20.9-16.7 20.9-29.3 0-14.6-8.4-25.1-20.9-29.3zM512 714.7c-16.7 0-31.3 14.6-31.3 31.3v156.7c0 16.7 14.6 31.3 31.3 31.3s31.3-14.6 31.3-31.3v-156.7c0-16.7-14.6-31.3-31.3-31.3z" fill="#666666" p-id="1658"></path></svg>