<svg xmlns="http://www.w3.org/2000/svg" viewBox="0 0 1024 1024" version="1.1"><path d="M612.4 766l-69.6 69.6V716.8c0-16.4-14.3-30.7-30.7-30.7s-30.7 14.3-30.7 30.7v120.8l-69.6-69.6c-12.3-12.3-30.7-12.3-43 0s-12.3 30.7 0 43l122.9 122.9c6.1 6.1 14.3 8.2 22.5 8.2s16.4-2 22.5-8.2l122.9-122.9c12.3-12.3 12.3-30.7 0-43s-34.8-12.3-47.1-2zM927.7 421.9l-237.6-79.9c-16.4-6.1-32.8 4.1-38.9 18.4-6.1 16.4 4.1 32.8 18.4 38.9l153.6 51.2L512 561.2 200.7 450.6l153.6-51.2c16.4-6.1 24.6-22.5 18.4-38.9-6.1-16.4-22.5-24.6-38.9-18.4L96.3 421.9c-12.3 4.1-20.5 16.4-20.5 28.7 0 12.3 8.2 24.6 20.5 28.7l405.5 143.4c4.1 2 6.1 2 10.2 2s6.1 0 10.2-2l405.5-143.4c12.3-4.1 20.5-16.4 20.5-28.7 0-14.3-8.2-24.6-20.5-28.7z" fill="#666666" p-id="1681"></path><path d="M512 501.8c16.4 0 30.7-14.3 30.7-30.7V153.6c0-16.4-14.3-30.7-30.7-30.7s-30.7 14.3-30.7 30.7V471c0 16.4 14.3 30.7 30.7 30.7z" fill="#666666" p-id="1682"></path></svg>