<svg xmlns="http://www.w3.org/2000/svg" viewBox="0 0 1024 1024" version="1.1"><path d="M906.7 298.7L725.3 117.3c-14.9-14.9-32-21.3-53.3-21.3H170.7C130.1 96 96 130.1 96 170.7v682.7c0 40.5 34.1 74.7 74.7 74.7h682.7c40.5 0 74.7-34.1 74.7-74.7V349.9c0-19.2-8.5-38.4-21.3-51.2zM652.8 864H371.2V648.5h281.6v215.5z m211.2-10.7c0 6.4-4.3 10.7-10.7 10.7h-140.8V618.7c0-17.1-12.8-29.9-29.9-29.9H341.3c-17.1 0-29.9 12.8-29.9 29.9v245.3H170.7c-6.4 0-10.7-4.3-10.7-10.7V170.7c0-6.4 4.3-10.7 10.7-10.7h140.8V320c0 17.1 12.8 29.9 29.9 29.9h277.3c17.1 0 29.9-12.8 29.9-29.9s-12.8-29.9-29.9-29.9H371.2V160h302.9c2.1 0 6.4 2.1 8.5 2.1l179.2 179.2c2.1 2.1 2.1 4.3 2.1 8.5V853.3z" fill="#666666" p-id="1704"></path></svg>