<svg xmlns="http://www.w3.org/2000/svg" viewBox="0 0 1024 1024" version="1.1"><path d="M341.3 864H170.7c-6.4 0-10.7-4.3-10.7-10.7v-170.7c0-17.1-14.9-32-32-32s-32 14.9-32 32v170.7c0 40.5 34.1 74.7 74.7 74.7h170.7c17.1 0 32-14.9 32-32s-14.9-32-32-32zM896 650.7c-17.1 0-32 14.9-32 32v170.7c0 6.4-4.3 10.7-10.7 10.7h-170.7c-17.1 0-32 14.9-32 32s14.9 32 32 32h170.7c40.5 0 74.7-34.1 74.7-74.7v-170.7c0-17.1-14.9-32-32-32zM128 373.3c17.1 0 32-14.9 32-32V170.7c0-6.4 4.3-10.7 10.7-10.7h170.7c17.1 0 32-14.9 32-32s-14.9-32-32-32H170.7C130.1 96 96 130.1 96 170.7v170.7c0 17.1 14.9 32 32 32zM853.3 96h-170.7c-17.1 0-32 14.9-32 32s14.9 32 32 32h170.7c6.4 0 10.7 4.3 10.7 10.7v170.7c0 17.1 14.9 32 32 32s32-14.9 32-32V170.7c0-40.5-34.1-74.7-74.7-74.7zM896 469.3H128c-17.1 0-32 14.9-32 32S110.9 533.3 128 533.3h768c17.1 0 32-14.9 32-32S913.1 469.3 896 469.3z" fill="#666666" p-id="1738"></path></svg>