<svg xmlns="http://www.w3.org/2000/svg" viewBox="0 0 1024 1024" version="1.1"><path d="M814.9 179.2L529.1 78.9c-10.7-4.3-23.5-4.3-34.1 0L209.1 179.2c-29.9 10.7-49.1 38.4-49.1 70.4V597.3c0 194.1 157.9 352 352 352S864 791.5 864 597.3V249.6c0-32-19.2-61.9-49.1-70.4zM800 597.3c0 157.9-130.1 288-288 288S224 755.2 224 597.3V249.6c0-4.3 2.1-8.5 6.4-10.7L512 140.8l281.6 98.1c4.3 2.1 6.4 6.4 6.4 10.7V597.3z" fill="#666666" p-id="1749"></path><path d="M659.2 403.2l-192 194.1-85.3-68.3c-12.8-10.7-34.1-8.5-44.8 4.3-10.7 12.8-8.5 34.1 4.3 44.8l106.7 85.3c6.4 4.3 12.8 6.4 19.2 6.4 8.5 0 17.1-2.1 23.5-8.5l213.3-213.3c12.8-12.8 12.8-32 0-44.8-10.7-10.7-32-10.7-44.8 0z" fill="#666666" p-id="1750"></path></svg>