<?xml version="1.0" standalone="no"?><!DOCTYPE svg PUBLIC "-//W3C//DTD SVG 1.1//EN" "http://www.w3.org/Graphics/SVG/1.1/DTD/svg11.dtd"><svg t="1700128014447" class="icon" viewBox="0 0 1024 1024" version="1.1" xmlns="http://www.w3.org/2000/svg" p-id="4952" xmlns:xlink="http://www.w3.org/1999/xlink" width="200" height="200"><path d="M835.776519 290.781193a135.287641 135.287641 0 0 1 87.722533 46.834086 136.457275 136.457275 0 0 1 31.677582 92.742212q-0.194939 238.264148 0 476.528297v14.401116h44.66539c17.836915 0 23.44141 5.482658 23.514513 23.197736v75.027134a17.057159 17.057159 0 0 1-0.852858 3.435799h-33.285828v-66.912799h-153.758108c0 6.895966 0.316776 13.328952 0 19.713203a50.464824 50.464824 0 0 1-45.104003 47.175229 133.362619 133.362619 0 0 1-13.596993 0.706654q-213.896778 0-427.817923 0.146204a52.560418 52.560418 0 0 1-52.438581-28.144313 69.422638 69.422638 0 0 1-6.262414-29.045906c-0.633552-45.152737-0.268041-90.305475-0.268042-135.458212v-12.183685H26.609247c-21.540755 0-26.41423-4.873474-26.414229-26.31676V231.300441c0-21.540755 4.873474-26.41423 26.292393-26.414229h263.484376v-11.038419-135.458213a52.706622 52.706622 0 0 1 57.896873-58.116178h430.742008a51.512621 51.512621 0 0 1 55.484502 39.182732 81.728161 81.728161 0 0 1 1.632614 19.298957q0.170572 110.116147 0 220.232294z m-205.124525-51.171478H34.845419v545.414853H630.310851v34.504197H325.280107c-3.070289 27.80317 1.925022 33.602604 27.80317 33.602603H775.053031a31.190234 31.190234 0 0 0 10.648541-0.414245 158.534112 158.534112 0 0 0 17.276466-9.235233 162.286687 162.286687 0 0 1-63.598837-122.470404 156.365416 156.365416 0 0 1 55.070257-123.493834 28.63166 28.63166 0 0 0-1.778818-2.436737c-18.178058-18.104956-36.551056-36.088076-54.558542-54.339236-11.866909-11.988746-24.36737-23.611982-34.869707-36.551056a69.13023 69.13023 0 0 1-5.385189-79.291423 69.252067 69.252067 0 0 1 73.784398-33.578237 241.236968 241.236968 0 0 1 30.288641 10.088092v-9.45454-194.938964c0-20.882836-5.09278-26.024352-25.658841-26.024352h-385.004453c-15.595117 0-31.190234-0.146204-46.785352 0a17.568874 17.568874 0 0 0-20.054346 19.640101c-0.146204 4.434861 0 8.89409 0 14.352381h306.200378z m205.758076 86.845308a15.059035 15.059035 0 0 0-0.536082 2.436737c0 25.000922 1.583879 50.148048-0.560449 74.954032a58.164913 58.164913 0 0 0 23.53888 56.044952c13.402054 10.404867 14.376749 21.930633 6.067475 29.898763s-18.372997 5.896904-30.361744-6.01874c-17.252098-17.057159-34.114319-34.699136-52.073071-51.171478a34.601666 34.601666 0 0 0-44.811594-1.803186 36.770362 36.770362 0 0 0-2.436737 58.262383c30.58105 30.946561 61.454508 61.600713 92.157395 92.449804a19.128386 19.128386 0 0 1 0.438613 31.190234c-6.506088 6.798496-13.450789 13.182747-20.005611 19.932509a118.133012 118.133012 0 0 0-3.33833 163.846199c6.920333 7.724456 14.18181 15.205239 21.735694 22.296144a29.070273 29.070273 0 0 1 9.746949 23.368308c-0.389878 18.178058 0 36.356117 0 54.558543v23.928758h85.285796v-9.210866-483.156222a146.32606 146.32606 0 0 0-1.510777-20.371122 97.981197 97.981197 0 0 0-83.336407-81.484487z m-34.699135 559.791602H324.427249v77.390769c0 21.175245 4.702903 25.926882 25.512637 25.926882h425.771064c2.607309 0 5.214617 0.121837 7.797559 0 10.940949-0.828491 17.715078-5.970006 17.958752-16.716016 0.682286-29.265212 0.268041-58.432954 0.268041-86.577268z m-0.194939-748.321947c0-28.509823 0.56045-57.969974-0.292409-87.405758-0.341143-11.30646-7.578252-15.93626-20.444223-15.93626H345.212616c-14.620422 0-20.590428 6.140577-20.736632 20.907203-0.170572 17.861283 0 35.722565 0 53.608215v28.850967z" fill="#ffffff" p-id="4953"></path><path d="M484.301567 944.923253v-37.525751h154.903374v37.525751z" fill="#ffffff" p-id="4954"></path><path d="M639.107472 78.955641V116.7738h-154.610966V78.955641z" fill="#ffffff" p-id="4955"></path><path d="M681.847839 78.419559a19.079651 19.079651 0 0 1 19.006549 20.224917 19.250223 19.250223 0 0 1-19.493896 18.641039 19.250223 19.250223 0 0 1-19.006549-20.273652 19.030916 19.030916 0 0 1 19.493896-18.592304z" fill="#ffffff" p-id="4956"></path><path d="M257.733756 379.648993a19.079651 19.079651 0 0 1 19.006549 20.224917 19.250223 19.250223 0 0 1-19.493896 18.641039 19.250223 19.250223 0 0 1-19.006549-20.273653 19.030916 19.030916 0 0 1 19.493896-18.592303z" fill="#ffffff" p-id="4957"></path><path d="M415.098235 379.648993a19.079651 19.079651 0 0 1 19.006549 20.224917 19.250223 19.250223 0 0 1-19.493897 18.641039 19.250223 19.250223 0 0 1-19.006549-20.273653 19.030916 19.030916 0 0 1 19.493897-18.592303z" fill="#ffffff" p-id="4958"></path><path d="M457.984807 547.369604a19.079651 19.079651 0 0 1 19.006549 20.224917 19.250223 19.250223 0 0 1-19.493897 18.641039 19.250223 19.250223 0 0 1-19.006549-20.273653 19.030916 19.030916 0 0 1 19.493897-18.592303z" fill="#ffffff" p-id="4959"></path><path d="M575.679206 547.369604a19.177121 19.177121 0 0 1 19.225856 20.224917 19.493896 19.493896 0 0 1-19.737571 18.641039 19.347692 19.347692 0 0 1-19.225855-20.273653 19.152753 19.152753 0 0 1 19.73757-18.592303z" fill="#ffffff" p-id="4960"></path><path d="M749.02868 117.309882a19.250223 19.250223 0 0 1-18.81161-20.444224 19.030916 19.030916 0 0 1 19.688835-18.397364 19.055284 19.055284 0 0 1 18.81161 20.395489 19.225855 19.225855 0 0 1-19.688835 18.446099z" fill="#ffffff" p-id="4961"></path><path d="M199.885619 569.495176c-5.55576-4.654168-10.867847-8.89409-15.960628-13.426421a167.45257 167.45257 0 0 1-51.488254-79.705669 147.861204 147.861204 0 0 1 16.862221-122.397302 201.396317 201.396317 0 0 1 129.73188-90.987761 239.969864 239.969864 0 0 1 205.368198 37.793792 167.184529 167.184529 0 0 1 67.034637 96.251113c3.265228 12.768502 4.118086 26.146189 6.189312 39.889385 6.774129 1.656981 14.766627 3.313962 22.539817 5.580128a183.778708 183.778708 0 0 1 75.953094 41.668204 129.707513 129.707513 0 0 1 42.155551 76.976523 114.794682 114.794682 0 0 1-15.400178 76.196768 149.030838 149.030838 0 0 1-38.987793 43.568858c-1.48641 1.145266-2.924084 2.436737-4.873474 3.776942 0.682286 1.510777 1.315838 3.021554 2.046859 4.483597 6.627925 13.280217 13.280217 26.536066 19.859407 39.816283a18.226793 18.226793 0 0 1-2.144328 21.930633 18.007487 18.007487 0 0 1-22.052471 3.508902c-26.292393-11.282093-52.560418-22.710389-78.95028-33.797543a22.174307 22.174307 0 0 0-10.770378-1.437675 206.586567 206.586567 0 0 1-134.873395-26.804108 141.720627 141.720627 0 0 1-64.086185-75.733787 4.556698 4.556698 0 0 0-5.214617-3.460167 260.730864 260.730864 0 0 1-71.225824-9.503274 11.940012 11.940012 0 0 0-7.310211 0.755388c-19.177121 8.041232-38.232404 16.350506-57.36079 24.489208a18.202426 18.202426 0 0 1-22.856594-4.020616 19.225855 19.225855 0 0 1-1.29147-21.589491c5.701965-11.282093 11.355195-22.369246 17.105894-33.82191z m320.333452-135.774988a125.321386 125.321386 0 0 0-22.51545-69.325169 173.861188 173.861188 0 0 0-90.622251-63.355163 212.873348 212.873348 0 0 0-93.473233-8.260539 190.06549 190.06549 0 0 0-108.312962 48.4667 127.685021 127.685021 0 0 0-40.620407 70.05619 118.157379 118.157379 0 0 0 28.314885 102.708467 172.106738 172.106738 0 0 0 38.987793 33.651338 17.617609 17.617609 0 0 1 6.920333 23.977493l-2.607309 5.848169 21.930634-9.600744a24.00186 24.00186 0 0 1 15.93626-1.194001c12.183685 3.021554 24.36737 6.11621 36.867832 8.211803 9.746948 1.656981 19.859407 1.85192 29.46015 2.680411a280.22476 280.22476 0 0 1 4.581066-29.240844 134.824661 134.824661 0 0 1 49.880007-73.102112 192.721533 192.721533 0 0 1 98.468545-39.328936c8.820988-0.901593 17.666344-1.462042 26.77974-2.217431z m87.600697 268.991403l-6.164945-12.183686a19.225855 19.225855 0 0 1 8.406743-29.947498 130.852779 130.852779 0 0 0 34.28489-29.581988 83.458244 83.458244 0 0 0 5.336454-99.565076 131.998046 131.998046 0 0 0-77.049625-53.92499 179.977398 179.977398 0 0 0-92.596008-3.070289 139.6494 139.6494 0 0 0-84.554775 50.684131 81.752528 81.752528 0 0 0-13.231483 80.582894 100.052423 100.052423 0 0 0 38.744119 48.954047 169.40196 169.40196 0 0 0 122.056159 28.387987 46.298004 46.298004 0 0 1 27.193986 3.655105c11.964379 5.677597 24.343003 10.404867 37.550118 15.984995z" fill="#ffffff" p-id="4962"></path></svg>