<svg xmlns="http://www.w3.org/2000/svg" viewBox="0 0 1024 1024" version="1.1"><path d="M904.5 422.4l-85.3-14.9-17.1-38.4 49.1-70.4c14.9-21.3 12.8-49.1-6.4-68.3l-53.3-53.3c-19.2-19.2-46.9-21.3-68.3-6.4l-70.4 49.1-38.4-17.1-14.9-85.3c-2.1-23.5-23.5-42.7-49.1-42.7h-74.7c-25.6 0-46.9 19.2-53.3 44.8l-14.9 85.3-38.4 17.1L296.5 170.7c-21.3-14.9-49.1-12.8-68.3 6.4l-53.3 53.3c-19.2 19.2-21.3 46.9-6.4 68.3l49.1 70.4-17.1 38.4-85.3 14.9c-21.3 4.3-40.5 25.6-40.5 51.2v74.7c0 25.6 19.2 46.9 44.8 53.3l85.3 14.9 17.1 38.4L170.7 727.5c-14.9 21.3-12.8 49.1 6.4 68.3l53.3 53.3c19.2 19.2 46.9 21.3 68.3 6.4l70.4-49.1 38.4 17.1 14.9 85.3c4.3 25.6 25.6 44.8 53.3 44.8h74.7c25.6 0 46.9-19.2 53.3-44.8l14.9-85.3 38.4-17.1 70.4 49.1c21.3 14.9 49.1 12.8 68.3-6.4l53.3-53.3c19.2-19.2 21.3-46.9 6.4-68.3l-49.1-70.4 17.1-38.4 85.3-14.9c25.6-4.3 44.8-25.6 44.8-53.3v-74.7c-4.3-27.7-23.5-49.1-49.1-53.3z m-19.2 117.3l-93.9 17.1c-10.7 2.1-19.2 8.5-23.5 19.2l-29.9 70.4c-4.3 10.7-2.1 21.3 4.3 29.9l53.3 76.8-40.5 40.5-76.8-53.3c-8.5-6.4-21.3-8.5-29.9-4.3L576 768c-10.7 4.3-17.1 12.8-19.2 23.5l-17.1 93.9h-57.6l-17.1-93.9c-2.1-10.7-8.5-19.2-19.2-23.5l-70.4-29.9c-10.7-4.3-21.3-2.1-29.9 4.3l-76.8 53.3-40.5-40.5 53.3-76.8c6.4-8.5 8.5-21.3 4.3-29.9L256 576c-4.3-10.7-12.8-17.1-23.5-19.2l-93.9-17.1v-57.6l93.9-17.1c10.7-2.1 19.2-8.5 23.5-19.2l29.9-70.4c4.3-10.7 2.1-21.3-4.3-29.9l-53.3-76.8 40.5-40.5 76.8 53.3c8.5 6.4 21.3 8.5 29.9 4.3L448 256c10.7-4.3 17.1-12.8 19.2-23.5l17.1-93.9h57.6l17.1 93.9c2.1 10.7 8.5 19.2 19.2 23.5l70.4 29.9c10.7 4.3 21.3 2.1 29.9-4.3l76.8-53.3 40.5 40.5-53.3 76.8c-6.4 8.5-8.5 21.3-4.3 29.9L768 448c4.3 10.7 12.8 17.1 23.5 19.2l93.9 17.1v55.5z" fill="#666666" p-id="1830"></path><path d="M512 394.7c-64 0-117.3 53.3-117.3 117.3s53.3 117.3 117.3 117.3 117.3-53.3 117.3-117.3-53.3-117.3-117.3-117.3z m0 170.7c-29.9 0-53.3-23.5-53.3-53.3s23.5-53.3 53.3-53.3 53.3 23.5 53.3 53.3-23.5 53.3-53.3 53.3z" fill="#666666" p-id="1831"></path></svg>