<svg xmlns="http://www.w3.org/2000/svg" viewBox="0 0 1024 1024" version="1.1"><path d="M550.4 74.7c25.6 0 46.9 19.2 53.3 44.8l14.9 85.3 38.4 17.1L727.5 170.7c19.2-14.9 46.9-12.8 66.1 4.3l2.1 2.1 53.3 53.3c19.2 19.2 21.3 46.9 6.4 68.3l-49.1 70.4 17.1 38.4 85.3 14.9c23.5 4.3 42.7 25.6 44.8 49.1v78.9c0 25.6-19.2 46.9-44.8 53.3l-85.3 14.9-17.1 38.4 49.1 70.4c14.9 19.2 12.8 46.9-4.3 66.1l-2.1 2.1-53.3 53.3c-19.2 19.2-46.9 21.3-68.3 6.4l-70.4-49.1-38.4 17.1-14.9 85.3c-4.3 23.5-25.6 42.7-49.1 44.8h-78.9c-25.6 0-46.9-19.2-53.3-44.8l-14.9-85.3-38.4-17.1-72.5 46.9c-19.2 14.9-46.9 12.8-66.1-4.3l-2.1-2.1-53.3-53.3c-19.2-19.2-21.3-46.9-6.4-68.3l49.1-70.4-17.1-38.4-85.3-14.9c-23.5-4.3-42.7-25.6-44.8-49.1v-78.9c0-25.6 19.2-46.9 44.8-53.3l85.3-14.9 17.1-38.4L170.7 296.5c-14.9-19.2-12.8-46.9 2.1-64l2.1-2.1 53.3-53.3c19.2-19.2 46.9-21.3 68.3-6.4l70.4 49.1 38.4-17.1 14.9-85.3c4.3-23.5 25.6-42.7 49.1-44.8H550.4z m-38.4 320c-64 0-117.3 53.3-117.3 117.3s53.3 117.3 117.3 117.3 117.3-53.3 117.3-117.3-53.3-117.3-117.3-117.3z" fill="#666666" p-id="2428"></path></svg>