<svg xmlns="http://www.w3.org/2000/svg" viewBox="0 0 1024 1024" version="1.1"><path d="M874.7 544c-17.1 0-32 14.9-32 32v256c0 6.4-4.3 10.7-10.7 10.7H192c-6.4 0-10.7-4.3-10.7-10.7V192c0-6.4 4.3-10.7 10.7-10.7h256c17.1 0 32-14.9 32-32s-14.9-32-32-32H192C151.5 117.3 117.3 151.5 117.3 192v640c0 40.5 34.1 74.7 74.7 74.7h640c40.5 0 74.7-34.1 74.7-74.7V576c0-17.1-14.9-32-32-32z" fill="#666666" p-id="1726"></path><path d="M874.7 117.3H640c-17.1 0-32 14.9-32 32s14.9 32 32 32h157.9L509.9 467.2c-12.8 12.8-12.8 32 0 44.8 6.4 6.4 14.9 8.5 23.5 8.5s17.1-2.1 23.5-8.5l285.9-285.9V384c0 17.1 14.9 32 32 32s32-14.9 32-32V149.3c0-17.1-14.9-32-32-32z" fill="#666666" p-id="1727"></path></svg>