<svg xmlns="http://www.w3.org/2000/svg" viewBox="0 0 1024 1024" version="1.1"><path d="M919.5 488.5l-149.3-149.3c-12.8-12.8-32-12.8-44.8 0-12.8 12.8-12.8 32 0 44.8l93.9 93.9H522.7c-17.1 0-32 14.9-32 32s14.9 32 32 32h296.5L725.3 635.7c-12.8 12.8-12.8 32 0 44.8 6.4 6.4 14.9 8.5 23.5 8.5s17.1-2.1 23.5-8.5l149.3-149.3c8.5-8.5 8.5-29.9-2.1-42.7z" fill="#666666" p-id="1761"></path><path d="M832 714.7c-17.1 0-32 14.9-32 32v106.7c0 6.4-4.3 10.7-10.7 10.7H234.7c-6.4 0-10.7-4.3-10.7-10.7V170.7c0-6.4 4.3-10.7 10.7-10.7h554.7c6.4 0 10.7 4.3 10.7 10.7v106.7c0 17.1 14.9 32 32 32s32-14.9 32-32V170.7c0-40.5-34.1-74.7-74.7-74.7H234.7C194.1 96 160 130.1 160 170.7v682.7c0 40.5 34.1 74.7 74.7 74.7h554.7c40.5 0 74.7-34.1 74.7-74.7v-106.7c0-17.1-14.9-32-32-32z" fill="#666666" p-id="1762"></path></svg>