<svg xmlns="http://www.w3.org/2000/svg" viewBox="0 0 1024 1024" version="1.1"><path d="M921.6 356.3c-14.9-8.5-34.1-4.3-42.7 12.8L829.9 448c-51.2-157.9-200.5-266.7-369.1-266.7-172.8 0-324.3 115.2-373.3 277.3-4.3 17.1 4.3 34.1 21.3 40.5 17.1 4.3 34.1-4.3 40.5-21.3 40.5-136.5 166.4-232.5 311.5-232.5 140.8 0 264.5 89.6 307.2 219.7l-81.1-46.9c-14.9-8.5-34.1-4.3-42.7 10.7-8.5 14.9-4.3 34.1 10.7 42.7l147.2 85.3c4.3 2.1 10.7 4.3 17.1 4.3 2.1 0 6.4 0 8.5-2.1 8.5-2.1 14.9-8.5 19.2-14.9l85.3-147.2c8.5-12.8 4.3-32-10.7-40.5zM896 757.3H128c-17.1 0-32 14.9-32 32s14.9 32 32 32h768c17.1 0 32-14.9 32-32s-14.9-32-32-32z" fill="#666666" p-id="1865"></path></svg>