<svg xmlns="http://www.w3.org/2000/svg" viewBox="0 0 1024 1024" version="1.1"><path d="M512 74.7C270.9 74.7 74.7 270.9 74.7 512S270.9 949.3 512 949.3 949.3 753.1 949.3 512 753.1 74.7 512 74.7z m0 810.7c-204.8 0-373.3-168.5-373.3-373.3S307.2 138.7 512 138.7 885.3 307.2 885.3 512 716.8 885.3 512 885.3z" fill="#666666" p-id="1807"></path><path d="M674.1 608c-46.9 57.6-100.3 85.3-162.1 85.3s-115.2-27.7-162.1-85.3c-10.7-12.8-32-14.9-44.8-4.3-12.8 10.7-14.9 32-4.3 44.8 59.7 70.4 130.1 106.7 211.2 106.7s151.5-36.3 211.2-106.7c10.7-12.8 8.5-34.1-4.3-44.8-12.8-10.7-34.1-8.5-44.8 4.3zM362.7 512c23.5 0 42.7-19.2 42.7-42.7v-64c0-23.5-19.2-42.7-42.7-42.7s-42.7 19.2-42.7 42.7v64c0 23.5 19.2 42.7 42.7 42.7zM661.3 512c23.5 0 42.7-19.2 42.7-42.7v-64c0-23.5-19.2-42.7-42.7-42.7s-42.7 19.2-42.7 42.7v64c0 23.5 19.2 42.7 42.7 42.7z" fill="#666666" p-id="1808"></path></svg>