<?xml version="1.0" encoding="UTF-8"?>
<!DOCTYPE svg PUBLIC "-//W3C//DTD SVG 1.1//EN" "http://www.w3.org/Graphics/SVG/1.1/DTD/svg11.dtd">
<svg xmlns="http://www.w3.org/2000/svg" version="1.1" width="115px" height="99px" style="shape-rendering:geometricPrecision; text-rendering:geometricPrecision; image-rendering:optimizeQuality; fill-rule:evenodd; clip-rule:evenodd" xmlns:xlink="http://www.w3.org/1999/xlink">
<g><path style="opacity:1" fill="#92e4c7" d="M 84.5,4.5 C 67.4967,4.3334 50.4967,4.50006 33.5,5C 32.7562,6.03859 31.7562,6.53859 30.5,6.5C 31.343,4.82665 32.6763,3.65999 34.5,3C 50.5,2.33333 66.5,2.33333 82.5,3C 83.4158,3.27842 84.0825,3.77842 84.5,4.5 Z"/></g>
<g><path style="opacity:1" fill="#4ad4a7" d="M 84.5,4.5 C 85.5,4.83333 86.1667,5.5 86.5,6.5C 86.427,8.02694 87.0937,9.02694 88.5,9.5C 89.6737,10.5137 90.3404,11.847 90.5,13.5C 90.427,15.0269 91.0937,16.0269 92.5,16.5C 93.3382,16.8417 93.6716,17.5084 93.5,18.5C 93.427,20.0269 94.0937,21.0269 95.5,21.5C 96.6737,22.5137 97.3404,23.847 97.5,25.5C 97.427,27.0269 98.0937,28.0269 99.5,28.5C 100.674,29.5137 101.34,30.847 101.5,32.5C 101.427,34.0269 102.094,35.0269 103.5,35.5C 104.338,35.8417 104.672,36.5084 104.5,37.5C 104.427,39.0269 105.094,40.0269 106.5,40.5C 107.338,40.8417 107.672,41.5084 107.5,42.5C 107.674,44.861 108.007,47.1944 108.5,49.5C 103.5,49.5 98.5,49.5 93.5,49.5C 90.4971,45.9975 87.3305,42.6641 84,39.5C 83.228,39.6448 82.5613,39.9781 82,40.5C 78.9703,45.6737 75.8036,50.6737 72.5,55.5C 71.2223,55.2178 70.2223,54.5511 69.5,53.5C 67.4625,49.7387 65.7958,45.7387 64.5,41.5C 64.5979,39.4471 63.9313,37.7804 62.5,36.5C 62.5979,34.4471 61.9313,32.7804 60.5,31.5C 59.2638,29.351 58.2638,27.0177 57.5,24.5C 57.5086,22.6916 57.0086,21.0249 56,19.5C 54.7083,18.2089 53.5417,18.2089 52.5,19.5C 49.0715,29.3396 45.4049,39.0062 41.5,48.5C 40.2616,50.2143 39.595,52.2143 39.5,54.5C 38.7784,54.9175 38.2784,55.5842 38,56.5C 37.2411,54.9371 36.0744,53.9371 34.5,53.5C 34.5,53.1667 34.5,52.8333 34.5,52.5C 34.5,51.1667 33.8333,50.5 32.5,50.5C 24.9032,48.5332 16.9032,47.8665 8.5,48.5C 8.5,47.5 8.5,46.5 8.5,45.5C 9.10978,44.609 9.44312,43.609 9.5,42.5C 9.6596,40.847 10.3263,39.5137 11.5,38.5C 12.9063,38.0269 13.573,37.0269 13.5,35.5C 13.6596,33.847 14.3263,32.5137 15.5,31.5C 16.9063,31.0269 17.573,30.0269 17.5,28.5C 19.4077,27.5144 20.4077,25.8477 20.5,23.5C 22.9305,21.954 24.2639,19.6207 24.5,16.5C 26.9305,14.954 28.2639,12.6207 28.5,9.5C 29.9063,9.02694 30.573,8.02694 30.5,6.5C 31.7562,6.53859 32.7562,6.03859 33.5,5C 50.4967,4.50006 67.4967,4.3334 84.5,4.5 Z"/></g>
<g><path style="opacity:1" fill="#abebd5" d="M 30.5,6.5 C 30.573,8.02694 29.9063,9.02694 28.5,9.5C 28.427,7.97306 29.0937,6.97306 30.5,6.5 Z"/></g>
<g><path style="opacity:1" fill="#c1f0e0" d="M 86.5,6.5 C 87.9063,6.97306 88.573,7.97306 88.5,9.5C 87.0937,9.02694 86.427,8.02694 86.5,6.5 Z"/></g>
<g><path style="opacity:1" fill="#91e4c7" d="M 28.5,9.5 C 28.2639,12.6207 26.9305,14.954 24.5,16.5C 25.0787,13.6689 26.412,11.3356 28.5,9.5 Z"/></g>
<g><path style="opacity:1" fill="#b9eedc" d="M 90.5,13.5 C 91.9063,13.9731 92.573,14.9731 92.5,16.5C 91.0937,16.0269 90.427,15.0269 90.5,13.5 Z"/></g>
<g><path style="opacity:1" fill="#8fe3c6" d="M 24.5,16.5 C 24.2639,19.6207 22.9305,21.954 20.5,23.5C 21.0787,20.6689 22.412,18.3356 24.5,16.5 Z"/></g>
<g><path style="opacity:1" fill="#c8f2e4" d="M 93.5,18.5 C 94.9063,18.9731 95.573,19.9731 95.5,21.5C 94.0937,21.0269 93.427,20.0269 93.5,18.5 Z"/></g>
<g><path style="opacity:1" fill="#cef3e7" d="M 52.5,19.5 C 53.5417,18.2089 54.7083,18.2089 56,19.5C 57.0086,21.0249 57.5086,22.6916 57.5,24.5C 56.4415,23.3998 55.6082,22.0664 55,20.5C 54.3292,19.7476 53.4959,19.4142 52.5,19.5 Z"/></g>
<g><path style="opacity:1" fill="#94e5c9" d="M 20.5,23.5 C 20.4077,25.8477 19.4077,27.5144 17.5,28.5C 17.7497,26.326 18.7497,24.6594 20.5,23.5 Z"/></g>
<g><path style="opacity:1" fill="#c3f1e2" d="M 97.5,25.5 C 98.9063,25.9731 99.573,26.9731 99.5,28.5C 98.0937,28.0269 97.427,27.0269 97.5,25.5 Z"/></g>
<g><path style="opacity:1" fill="#d7f5ec" d="M 55.5,30.5 C 54.5,29.1667 53.5,29.1667 52.5,30.5C 53.5,26.5 54.5,26.5 55.5,30.5 Z"/></g>
<g><path style="opacity:1" fill="#c9f2e4" d="M 17.5,28.5 C 17.573,30.0269 16.9063,31.0269 15.5,31.5C 15.427,29.9731 16.0937,28.9731 17.5,28.5 Z"/></g>
<g><path style="opacity:1" fill="#4cd4a8" d="M 55.5,30.5 C 55.5,30.8333 55.5,31.1667 55.5,31.5C 55.1568,33.4832 55.8235,34.8166 57.5,35.5C 57.5,35.8333 57.5,36.1667 57.5,36.5C 57.1568,38.4832 57.8235,39.8166 59.5,40.5C 59.5,40.8333 59.5,41.1667 59.5,41.5C 59.1568,43.4832 59.8235,44.8166 61.5,45.5C 61.1201,47.698 61.7868,49.3646 63.5,50.5C 63.1201,52.698 63.7868,54.3646 65.5,55.5C 66.404,56.209 66.7373,57.209 66.5,58.5C 66.1568,60.4832 66.8235,61.8166 68.5,62.5C 69.1515,63.0906 69.8182,63.7573 70.5,64.5C 71.5178,63.8075 72.5178,63.1408 73.5,62.5C 74.9063,62.0269 75.573,61.0269 75.5,59.5C 75.3284,58.5084 75.6618,57.8417 76.5,57.5C 77.9063,57.0269 78.573,56.0269 78.5,54.5C 79.9063,54.0269 80.573,53.0269 80.5,51.5C 80.3284,50.5084 80.6618,49.8417 81.5,49.5C 82.9063,49.0269 83.573,48.0269 83.5,46.5C 84.1667,46.5 84.8333,46.5 85.5,46.5C 85.427,48.0269 86.0937,49.0269 87.5,49.5C 87.7376,51.4044 88.7376,52.7377 90.5,53.5C 91.1667,53.8333 91.8333,54.1667 92.5,54.5C 97.4208,54.8616 102.087,55.8616 106.5,57.5C 105.094,57.9731 104.427,58.9731 104.5,60.5C 101.67,66.8302 98.337,72.8302 94.5,78.5C 93.0937,78.9731 92.427,79.9731 92.5,81.5C 90.7464,87.1754 87.4131,91.6754 82.5,95C 66.328,95.8281 50.328,95.6614 34.5,94.5C 34.0269,93.0937 33.0269,92.427 31.5,92.5C 30.5,92.1667 29.8333,91.5 29.5,90.5C 29.573,88.9731 28.9063,87.9731 27.5,87.5C 26.3263,86.4863 25.6596,85.153 25.5,83.5C 25.7148,81.8212 25.0481,80.8212 23.5,80.5C 19.9969,75.4984 16.9969,70.165 14.5,64.5C 14.7148,62.8212 14.0481,61.8212 12.5,61.5C 11.6618,61.1583 11.3284,60.4916 11.5,59.5C 11.7148,57.8212 11.0481,56.8212 9.5,56.5C 9.5,56.1667 9.5,55.8333 9.5,55.5C 16.3134,54.5088 23.3134,54.1755 30.5,54.5C 30.5,54.8333 30.5,55.1667 30.5,55.5C 30.427,57.0269 31.0937,58.0269 32.5,58.5C 32.427,60.0269 33.0937,61.0269 34.5,61.5C 35.3382,61.8417 35.6716,62.5084 35.5,63.5C 36.0717,66.2436 37.7383,67.0769 40.5,66C 42.4971,63.5084 43.4971,60.675 43.5,57.5C 43.2322,55.901 43.5655,54.5676 44.5,53.5C 46.2132,52.3646 46.8799,50.698 46.5,48.5C 46.5,48.1667 46.5,47.8333 46.5,47.5C 48.8966,44.691 50.2299,41.3576 50.5,37.5C 50.5,37.1667 50.5,36.8333 50.5,36.5C 52.2132,35.3646 52.8799,33.698 52.5,31.5C 52.5,31.1667 52.5,30.8333 52.5,30.5C 53.5,29.1667 54.5,29.1667 55.5,30.5 Z"/></g>
<g><path style="opacity:1" fill="#a6e9d3" d="M 52.5,31.5 C 52.8799,33.698 52.2132,35.3646 50.5,36.5C 50.7959,34.597 51.4625,32.9303 52.5,31.5 Z"/></g>
<g><path style="opacity:1" fill="#a0e8cf" d="M 55.5,31.5 C 56.6737,32.5137 57.3404,33.847 57.5,35.5C 55.8235,34.8166 55.1568,33.4832 55.5,31.5 Z"/></g>
<g><path style="opacity:1" fill="#c7f2e4" d="M 60.5,31.5 C 61.9313,32.7804 62.5979,34.4471 62.5,36.5C 61.0687,35.2196 60.4021,33.5529 60.5,31.5 Z"/></g>
<g><path style="opacity:1" fill="#c1f0e0" d="M 101.5,32.5 C 102.906,32.9731 103.573,33.9731 103.5,35.5C 102.094,35.0269 101.427,34.0269 101.5,32.5 Z"/></g>
<g><path style="opacity:1" fill="#c7f2e4" d="M 13.5,35.5 C 13.573,37.0269 12.9063,38.0269 11.5,38.5C 11.427,36.9731 12.0937,35.9731 13.5,35.5 Z"/></g>
<g><path style="opacity:1" fill="#9ce7cd" d="M 57.5,36.5 C 58.6737,37.5137 59.3404,38.847 59.5,40.5C 57.8235,39.8166 57.1568,38.4832 57.5,36.5 Z"/></g>
<g><path style="opacity:1" fill="#cdf3e6" d="M 62.5,36.5 C 63.9313,37.7804 64.5979,39.4471 64.5,41.5C 63.0687,40.2196 62.4021,38.5529 62.5,36.5 Z"/></g>
<g><path style="opacity:1" fill="#cdf3e6" d="M 104.5,37.5 C 105.906,37.9731 106.573,38.9731 106.5,40.5C 105.094,40.0269 104.427,39.0269 104.5,37.5 Z"/></g>
<g><path style="opacity:1" fill="#acebd5" d="M 50.5,37.5 C 50.2299,41.3576 48.8966,44.691 46.5,47.5C 47.2667,43.8512 48.6001,40.5178 50.5,37.5 Z"/></g>
<g><path style="opacity:1" fill="#caf2e4" d="M 9.5,42.5 C 9.44312,43.609 9.10978,44.609 8.5,45.5C 8.16667,45.5 7.83333,45.5 7.5,45.5C 7.42702,43.9731 8.09368,42.9731 9.5,42.5 Z"/></g>
<g><path style="opacity:1" fill="#99e6cb" d="M 59.5,41.5 C 60.6737,42.5137 61.3404,43.847 61.5,45.5C 59.8235,44.8166 59.1568,43.4832 59.5,41.5 Z"/></g>
<g><path style="opacity:1" fill="#c3f1e2" d="M 85.5,46.5 C 84.8333,46.5 84.1667,46.5 83.5,46.5C 83.7856,44.0673 84.4523,44.0673 85.5,46.5 Z"/></g>
<g><path style="opacity:1" fill="#7bdfbe" d="M 7.5,45.5 C 7.83333,45.5 8.16667,45.5 8.5,45.5C 8.5,46.5 8.5,47.5 8.5,48.5C 16.9032,47.8665 24.9032,48.5332 32.5,50.5C 24.555,49.5632 16.555,49.2299 8.5,49.5C 8.16667,49.5 7.83333,49.5 7.5,49.5C 6.31434,48.2946 6.31434,46.9613 7.5,45.5 Z"/></g>
<g><path style="opacity:1" fill="#b0ecd8" d="M 61.5,45.5 C 62.5375,46.9303 63.2041,48.597 63.5,50.5C 61.7868,49.3646 61.1201,47.698 61.5,45.5 Z"/></g>
<g><path style="opacity:1" fill="#b9eedc" d="M 83.5,46.5 C 83.573,48.0269 82.9063,49.0269 81.5,49.5C 81.427,47.9731 82.0937,46.9731 83.5,46.5 Z"/></g>
<g><path style="opacity:1" fill="#c3f1e1" d="M 85.5,46.5 C 86.9063,46.9731 87.573,47.9731 87.5,49.5C 86.0937,49.0269 85.427,48.0269 85.5,46.5 Z"/></g>
<g><path style="opacity:1" fill="#9ae7cd" d="M 107.5,42.5 C 110.035,44.8465 110.702,47.5132 109.5,50.5C 104.5,50.5 99.5,50.5 94.5,50.5C 93.8333,50.5 93.5,50.1667 93.5,49.5C 98.5,49.5 103.5,49.5 108.5,49.5C 108.007,47.1944 107.674,44.861 107.5,42.5 Z"/></g>
<g><path style="opacity:1" fill="#b6eedb" d="M 32.5,50.5 C 33.8333,50.5 34.5,51.1667 34.5,52.5C 33.5,52.1667 32.8333,51.5 32.5,50.5 Z"/></g>
<g><path style="opacity:1" fill="#acebd6" d="M 87.5,49.5 C 89.2624,50.2623 90.2624,51.5956 90.5,53.5C 88.7376,52.7377 87.7376,51.4044 87.5,49.5 Z"/></g>
<g><path style="opacity:1" fill="#f4fcfa" d="M 94.5,50.5 C 99.5,50.5 104.5,50.5 109.5,50.5C 109.598,52.5529 108.931,54.2196 107.5,55.5C 107.5,55.1667 107.5,54.8333 107.5,54.5C 107.414,53.5041 107.748,52.6708 108.5,52C 103.649,51.8255 98.9819,51.3255 94.5,50.5 Z"/></g>
<g><path style="opacity:1" fill="#effbf8" d="M 7.5,49.5 C 7.83333,49.5 8.16667,49.5 8.5,49.5C 8.5,50.8333 8.5,52.1667 8.5,53.5C 6.89059,52.3346 6.55725,51.0012 7.5,49.5 Z"/></g>
<g><path style="opacity:1" fill="#d2f4e9" d="M 41.5,48.5 C 41.7406,50.8984 41.0739,52.8984 39.5,54.5C 39.595,52.2143 40.2616,50.2143 41.5,48.5 Z"/></g>
<g><path style="opacity:1" fill="#a5e9d2" d="M 46.5,48.5 C 46.8799,50.698 46.2132,52.3646 44.5,53.5C 44.7959,51.597 45.4625,49.9303 46.5,48.5 Z"/></g>
<g><path style="opacity:1" fill="#e5f9f2" d="M 8.5,53.5 C 16.0191,53.175 23.3524,53.5084 30.5,54.5C 23.3134,54.1755 16.3134,54.5088 9.5,55.5C 8.66175,55.1583 8.32842,54.4916 8.5,53.5 Z"/></g>
<g><path style="opacity:1" fill="#bbefdd" d="M 34.5,53.5 C 36.0744,53.9371 37.2411,54.9371 38,56.5C 38.2784,55.5842 38.7784,54.9175 39.5,54.5C 39.7778,56.3464 39.1112,57.6798 37.5,58.5C 36.2371,56.9713 35.2371,55.3046 34.5,53.5 Z"/></g>
<g><path style="opacity:1" fill="#acebd5" d="M 63.5,50.5 C 64.5375,51.9303 65.2041,53.597 65.5,55.5C 63.7868,54.3646 63.1201,52.698 63.5,50.5 Z"/></g>
<g><path style="opacity:1" fill="#abebd6" d="M 80.5,51.5 C 80.573,53.0269 79.9063,54.0269 78.5,54.5C 78.427,52.9731 79.0937,51.9731 80.5,51.5 Z"/></g>
<g><path style="opacity:1" fill="#cbf2e6" d="M 92.5,54.5 C 97.5,54.5 102.5,54.5 107.5,54.5C 107.5,54.8333 107.5,55.1667 107.5,55.5C 107.672,56.4916 107.338,57.1583 106.5,57.5C 102.087,55.8616 97.4208,54.8616 92.5,54.5 Z"/></g>
<g><path style="opacity:1" fill="#cef3e7" d="M 69.5,53.5 C 70.2223,54.5511 71.2223,55.2178 72.5,55.5C 72.4827,57.0281 71.816,57.5281 70.5,57C 69.6634,55.9887 69.33,54.8221 69.5,53.5 Z"/></g>
<g><path style="opacity:1" fill="#abebd5" d="M 9.5,56.5 C 11.0481,56.8212 11.7148,57.8212 11.5,59.5C 10.5987,58.7095 9.93205,57.7095 9.5,56.5 Z"/></g>
<g><path style="opacity:1" fill="#bcefde" d="M 78.5,54.5 C 78.573,56.0269 77.9063,57.0269 76.5,57.5C 76.427,55.9731 77.0937,54.9731 78.5,54.5 Z"/></g>
<g><path style="opacity:1" fill="#acebd6" d="M 30.5,55.5 C 31.9063,55.9731 32.573,56.9731 32.5,58.5C 31.0937,58.0269 30.427,57.0269 30.5,55.5 Z"/></g>
<g><path style="opacity:1" fill="#cff3e7" d="M 106.5,57.5 C 106.573,59.0269 105.906,60.0269 104.5,60.5C 104.427,58.9731 105.094,57.9731 106.5,57.5 Z"/></g>
<g><path style="opacity:1" fill="#bff0e0" d="M 32.5,58.5 C 33.9063,58.9731 34.573,59.9731 34.5,61.5C 33.0937,61.0269 32.427,60.0269 32.5,58.5 Z"/></g>
<g><path style="opacity:1" fill="#9ee7ce" d="M 12.5,61.5 C 14.0481,61.8212 14.7148,62.8212 14.5,64.5C 13.5987,63.7095 12.9321,62.7095 12.5,61.5 Z"/></g>
<g><path style="opacity:1" fill="#a0e8cf" d="M 66.5,58.5 C 67.6737,59.5137 68.3404,60.847 68.5,62.5C 66.8235,61.8166 66.1568,60.4832 66.5,58.5 Z"/></g>
<g><path style="opacity:1" fill="#b2edd9" d="M 75.5,59.5 C 75.573,61.0269 74.9063,62.0269 73.5,62.5C 73.427,60.9731 74.0937,59.9731 75.5,59.5 Z"/></g>
<g><path style="opacity:1" fill="#aeebd7" d="M 43.5,57.5 C 43.4971,60.675 42.4971,63.5084 40.5,66C 37.7383,67.0769 36.0717,66.2436 35.5,63.5C 36.601,64.7997 37.9343,65.2997 39.5,65C 40.7525,62.3673 42.0858,59.8673 43.5,57.5 Z"/></g>
<g><path style="opacity:1" fill="#99e6cc" d="M 23.5,80.5 C 25.0481,80.8212 25.7148,81.8212 25.5,83.5C 24.5987,82.7095 23.9321,81.7095 23.5,80.5 Z"/></g>
<g><path style="opacity:1" fill="#d5f5eb" d="M 94.5,78.5 C 94.573,80.0269 93.9063,81.0269 92.5,81.5C 92.427,79.9731 93.0937,78.9731 94.5,78.5 Z"/></g>
<g><path style="opacity:1" fill="#d3f5e9" d="M 27.5,87.5 C 28.9063,87.9731 29.573,88.9731 29.5,90.5C 28.0937,90.0269 27.427,89.0269 27.5,87.5 Z"/></g>
<g><path style="opacity:1" fill="#b4edda" d="M 31.5,92.5 C 33.0269,92.427 34.0269,93.0937 34.5,94.5C 32.9731,94.573 31.9731,93.9063 31.5,92.5 Z"/></g>
</svg>
