<?xml version="1.0" encoding="UTF-8"?>
<!DOCTYPE svg PUBLIC "-//W3C//DTD SVG 1.1//EN" "http://www.w3.org/Graphics/SVG/1.1/DTD/svg11.dtd">
<svg xmlns="http://www.w3.org/2000/svg" version="1.1" width="300px" height="162px" style="shape-rendering:geometricPrecision; text-rendering:geometricPrecision; image-rendering:optimizeQuality; fill-rule:evenodd; clip-rule:evenodd" xmlns:xlink="http://www.w3.org/1999/xlink">
<g><path style="opacity:1" fill="#fefefe" d="M -0.5,-0.5 C 99.5,-0.5 199.5,-0.5 299.5,-0.5C 299.5,53.5 299.5,107.5 299.5,161.5C 199.5,161.5 99.5,161.5 -0.5,161.5C -0.5,107.5 -0.5,53.5 -0.5,-0.5 Z"/></g>
<g><path style="opacity:1" fill="#45d3a6" d="M 194.5,57.5 C 194.5,58.8333 194.5,60.1667 194.5,61.5C 189.5,61.5 184.5,61.5 179.5,61.5C 176.845,57.3482 173.678,53.6816 170,50.5C 168.739,50.7591 167.739,51.4258 167,52.5C 164.031,57.6336 160.864,62.6336 157.5,67.5C 152.855,58.0732 148.688,48.4065 145,38.5C 143.822,35.4675 142.156,32.8008 140,30.5C 138.739,30.7591 137.739,31.4258 137,32.5C 132.667,44.8333 128.333,57.1667 124,69.5C 121.946,66.9528 120.113,64.2861 118.5,61.5C 110.684,60.5076 102.684,60.1743 94.5,60.5C 94.5,59.5 94.5,58.5 94.5,57.5C 100.802,44.899 107.635,32.5657 115,20.5C 116.5,19 118,17.5 119.5,16C 127.667,15.8333 135.833,15.6667 144,15.5C 152.93,15.3603 161.763,15.8603 170.5,17C 179.405,29.9778 187.405,43.4778 194.5,57.5 Z"/></g>
<g><path style="opacity:1" fill="#f5fcfa" d="M 179.5,61.5 C 184.64,62.4881 189.974,62.8214 195.5,62.5C 195.598,64.5529 194.931,66.2196 193.5,67.5C 188.36,66.5119 183.026,66.1786 177.5,66.5C 175.189,63.853 172.856,61.1864 170.5,58.5C 166.185,63.7838 162.351,69.4505 159,75.5C 157.506,76.7472 156.006,76.7472 154.5,75.5C 149.925,64.0206 145.091,52.6872 140,41.5C 134.966,53.6041 130.133,65.7707 125.5,78C 124.004,78.5074 122.837,78.0074 122,76.5C 120.365,73.3681 118.532,70.3681 116.5,67.5C 109.344,66.1812 102.344,66.1812 95.5,67.5C 93.9261,65.8984 93.2594,63.8984 93.5,61.5C 101.833,61.5 110.167,61.5 118.5,61.5C 120.113,64.2861 121.946,66.9528 124,69.5C 128.333,57.1667 132.667,44.8333 137,32.5C 137.739,31.4258 138.739,30.7591 140,30.5C 142.156,32.8008 143.822,35.4675 145,38.5C 148.688,48.4065 152.855,58.0732 157.5,67.5C 160.864,62.6336 164.031,57.6336 167,52.5C 167.739,51.4258 168.739,50.7591 170,50.5C 173.678,53.6816 176.845,57.3482 179.5,61.5 Z"/></g>
<g><path style="opacity:1" fill="#45d3a6" d="M 177.5,66.5 C 182.5,67.1667 187.5,67.8333 192.5,68.5C 185.555,80.8879 178.222,93.0546 170.5,105C 161.763,106.14 152.93,106.64 144,106.5C 135.833,106.333 127.667,106.167 119.5,106C 117.291,104.127 115.458,101.96 114,99.5C 108.005,88.6869 101.839,78.0202 95.5,67.5C 102.344,66.1812 109.344,66.1812 116.5,67.5C 118.532,70.3681 120.365,73.3681 122,76.5C 122.837,78.0074 124.004,78.5074 125.5,78C 130.133,65.7707 134.966,53.6041 140,41.5C 145.091,52.6872 149.925,64.0206 154.5,75.5C 156.006,76.7472 157.506,76.7472 159,75.5C 162.351,69.4505 166.185,63.7838 170.5,58.5C 172.856,61.1864 175.189,63.853 177.5,66.5 Z"/></g>
<g><path style="opacity:1" fill="#65dbb6" d="M 94.5,57.5 C 94.5,58.5 94.5,59.5 94.5,60.5C 102.684,60.1743 110.684,60.5076 118.5,61.5C 110.167,61.5 101.833,61.5 93.5,61.5C 93.2322,59.901 93.5655,58.5676 94.5,57.5 Z"/></g>
<g><path style="opacity:1" fill="#8be4c7" d="M 194.5,57.5 C 195.451,58.9187 195.784,60.5853 195.5,62.5C 189.974,62.8214 184.64,62.4881 179.5,61.5C 184.5,61.5 189.5,61.5 194.5,61.5C 194.5,60.1667 194.5,58.8333 194.5,57.5 Z"/></g>
<g><path style="opacity:1" fill="#c8f1e4" d="M 177.5,66.5 C 183.026,66.1786 188.36,66.5119 193.5,67.5C 193.5,68.1667 193.167,68.5 192.5,68.5C 187.5,67.8333 182.5,67.1667 177.5,66.5 Z"/></g>
<g><path style="opacity:1" fill="#7eddbe" d="M 74.5,123.5 C 75.5,123.5 76.5,123.5 77.5,123.5C 77.5,124.833 77.5,126.167 77.5,127.5C 76.5,127.5 75.5,127.5 74.5,127.5C 74.5,126.167 74.5,124.833 74.5,123.5 Z"/></g>
<g><path style="opacity:1" fill="#78ddbf" d="M 236.5,123.5 C 239.861,124.203 240.194,125.537 237.5,127.5C 235.358,126.563 235.024,125.23 236.5,123.5 Z"/></g>
<g><path style="opacity:1" fill="#5dd7b2" d="M 170.5,129.5 C 170.218,130.778 169.551,131.778 168.5,132.5C 168.5,134.833 168.5,137.167 168.5,139.5C 169.5,139.5 170.5,139.5 171.5,139.5C 171.5,140.5 171.5,141.5 171.5,142.5C 168.99,142.946 166.99,142.28 165.5,140.5C 166.055,136.988 165.388,133.988 163.5,131.5C 164.53,129.289 165.863,127.289 167.5,125.5C 168.057,127.332 169.057,128.665 170.5,129.5 Z"/></g>
<g><path style="opacity:1" fill="#a5dfb6" d="M 50.5,129.5 C 49.88,135.926 50.5467,141.926 52.5,147.5C 51.791,148.404 50.791,148.737 49.5,148.5C 49.1765,141.978 49.5098,135.645 50.5,129.5 Z"/></g>
<g><path style="opacity:1" fill="#62d8b4" d="M 65.5,129.5 C 67.8333,130.833 70.1667,130.833 72.5,129.5C 72.5,130.5 72.5,131.5 72.5,132.5C 71.1779,132.33 70.0113,132.663 69,133.5C 68.502,136.482 68.3354,139.482 68.5,142.5C 67.5,142.5 66.5,142.5 65.5,142.5C 65.5,138.167 65.5,133.833 65.5,129.5 Z"/></g>
<g><path style="opacity:1" fill="#67d8af" d="M 74.5,129.5 C 75.5,129.5 76.5,129.5 77.5,129.5C 77.5,133.833 77.5,138.167 77.5,142.5C 76.5,142.5 75.5,142.5 74.5,142.5C 74.5,138.167 74.5,133.833 74.5,129.5 Z"/></g>
<g><path style="opacity:1" fill="#5ed7af" d="M 136.5,129.5 C 145.807,128.953 148.474,132.787 144.5,141C 138.152,144.291 134.486,142.458 133.5,135.5C 133.628,133.045 134.628,131.045 136.5,129.5 Z"/></g>
<g><path style="opacity:1" fill="#5fd7af" d="M 151.5,129.5 C 160.868,129.006 163.535,132.839 159.5,141C 153.152,144.291 149.486,142.458 148.5,135.5C 148.628,133.045 149.628,131.045 151.5,129.5 Z"/></g>
<g><path style="opacity:1" fill="#48d4ad" d="M 236.5,129.5 C 237.8,131.223 238.467,133.39 238.5,136C 238.167,138.167 237.833,140.333 237.5,142.5C 236.508,138.217 236.174,133.884 236.5,129.5 Z"/></g>
<g><path style="opacity:1" fill="#9fe6d2" d="M 170.5,129.5 C 171.404,130.209 171.737,131.209 171.5,132.5C 170.5,132.5 169.5,132.5 168.5,132.5C 169.551,131.778 170.218,130.778 170.5,129.5 Z"/></g>
<g><path style="opacity:1" fill="#5ed6b0" d="M 81.5,129.5 C 83.864,130.529 86.1974,130.529 88.5,129.5C 90.0293,129.529 91.196,130.196 92,131.5C 92.4986,135.152 92.6653,138.818 92.5,142.5C 91.5,142.5 90.5,142.5 89.5,142.5C 89.5,139.167 89.5,135.833 89.5,132.5C 87.8333,132.5 86.1667,132.5 84.5,132.5C 84.5,135.833 84.5,139.167 84.5,142.5C 83.5,142.5 82.5,142.5 81.5,142.5C 81.5,138.167 81.5,133.833 81.5,129.5 Z"/></g>
<g><path style="opacity:1" fill="#62d7ad" d="M 118.5,124.5 C 121.518,124.335 124.518,124.502 127.5,125C 131.405,127.475 131.405,130.142 127.5,133C 130.379,134.666 131.212,137.166 130,140.5C 126.417,142.29 122.584,142.957 118.5,142.5C 118.5,136.5 118.5,130.5 118.5,124.5 Z"/></g>
<g><path style="opacity:1" fill="#fdfdfb" d="M 122.5,127.5 C 123.833,127.5 125.167,127.5 126.5,127.5C 126.768,129.099 126.434,130.432 125.5,131.5C 124.5,131.5 123.5,131.5 122.5,131.5C 122.5,130.167 122.5,128.833 122.5,127.5 Z"/></g>
<g><path style="opacity:1" fill="#9ceade" d="M 122.5,127.5 C 122.5,128.833 122.5,130.167 122.5,131.5C 123.5,131.5 124.5,131.5 125.5,131.5C 124.432,132.434 123.099,132.768 121.5,132.5C 121.216,130.585 121.549,128.919 122.5,127.5 Z"/></g>
<g><path style="opacity:1" fill="#f5fbf7" d="M 137.5,132.5 C 143.158,131.679 144.825,133.846 142.5,139C 136.741,140.139 135.074,137.972 137.5,132.5 Z"/></g>
<g><path style="opacity:1" fill="#f4fbf7" d="M 152.5,132.5 C 158.158,131.679 159.825,133.846 157.5,139C 151.741,140.139 150.074,137.972 152.5,132.5 Z"/></g>
<g><path style="opacity:1" fill="#daeacb" d="M 163.5,131.5 C 165.388,133.988 166.055,136.988 165.5,140.5C 164.755,137.61 164.088,134.61 163.5,131.5 Z"/></g>
<g><path style="opacity:1" fill="#5dd7af" d="M 206.5,123.5 C 207.5,123.5 208.5,123.5 209.5,123.5C 209.5,129.833 209.5,136.167 209.5,142.5C 206.242,141.932 202.909,141.766 199.5,142C 196.552,137.659 196.885,133.659 200.5,130C 202.235,129.349 203.902,129.515 205.5,130.5C 206.474,128.257 206.808,125.924 206.5,123.5 Z"/></g>
<g><path style="opacity:1" fill="#f7fcf9" d="M 200.5,132.5 C 202.5,132.5 204.5,132.5 206.5,132.5C 206.662,134.527 206.495,136.527 206,138.5C 204.333,139.833 202.667,139.833 201,138.5C 200.505,136.527 200.338,134.527 200.5,132.5 Z"/></g>
<g><path style="opacity:1" fill="#61d8b3" d="M 213.5,129.5 C 215.864,130.529 218.197,130.529 220.5,129.5C 222.029,129.529 223.196,130.196 224,131.5C 226.667,128.833 229.333,128.833 232,131.5C 232.499,135.152 232.665,138.818 232.5,142.5C 231.5,142.5 230.5,142.5 229.5,142.5C 229.5,139.167 229.5,135.833 229.5,132.5C 227.856,132.286 226.356,132.62 225,133.5C 224.502,136.482 224.335,139.482 224.5,142.5C 223.5,142.5 222.5,142.5 221.5,142.5C 221.5,139.167 221.5,135.833 221.5,132.5C 219.833,132.5 218.167,132.5 216.5,132.5C 216.5,135.833 216.5,139.167 216.5,142.5C 215.5,142.5 214.5,142.5 213.5,142.5C 213.5,138.167 213.5,133.833 213.5,129.5 Z"/></g>
<g><path style="opacity:1" fill="#69d9b2" d="M 242.5,129.5 C 244.864,130.529 247.197,130.529 249.5,129.5C 251.055,129.722 252.389,130.389 253.5,131.5C 254.489,135.107 254.823,138.774 254.5,142.5C 253.167,142.5 251.833,142.5 250.5,142.5C 250.5,139.167 250.5,135.833 250.5,132.5C 248.856,132.286 247.356,132.62 246,133.5C 245.502,136.482 245.335,139.482 245.5,142.5C 244.5,142.5 243.5,142.5 242.5,142.5C 242.5,138.167 242.5,133.833 242.5,129.5 Z"/></g>
<g><path style="opacity:1" fill="#5fd7ad" d="M 38.5,124.5 C 40.8568,124.337 43.1902,124.503 45.5,125C 45.9574,125.414 46.2907,125.914 46.5,126.5C 43.9135,127.48 41.2469,127.813 38.5,127.5C 38.3505,128.552 38.5172,129.552 39,130.5C 41.2503,131.708 43.417,133.041 45.5,134.5C 47.8782,139.965 46.0449,142.631 40,142.5C 38.1878,142.507 36.6878,141.84 35.5,140.5C 38.0865,139.52 40.7531,139.187 43.5,139.5C 43.6495,138.448 43.4828,137.448 43,136.5C 37.7775,134.977 35.4442,131.644 36,126.5C 36.9947,125.934 37.828,125.267 38.5,124.5 Z"/></g>
<g><path style="opacity:1" fill="#f7fcf6" d="M 122.5,134.5 C 127.027,134.005 128.361,135.672 126.5,139.5C 125.167,139.5 123.833,139.5 122.5,139.5C 122.5,137.833 122.5,136.167 122.5,134.5 Z"/></g>
<g><path style="opacity:1" fill="#5ad6ad" d="M 185.5,124.5 C 187.144,124.286 188.644,124.62 190,125.5C 191.944,131.165 193.778,136.832 195.5,142.5C 192.891,142.17 191.224,140.67 190.5,138C 188.098,137.186 185.765,137.353 183.5,138.5C 182.754,139.736 182.421,141.07 182.5,142.5C 181.5,142.5 180.5,142.5 179.5,142.5C 180.983,136.342 182.983,130.342 185.5,124.5 Z"/></g>
<g><path style="opacity:1" fill="#e2f6ed" d="M 186.5,128.5 C 188.834,130.176 189.834,132.509 189.5,135.5C 187.712,135.785 186.045,135.452 184.5,134.5C 185.372,132.55 186.039,130.55 186.5,128.5 Z"/></g>
<g><path style="opacity:1" fill="#5cd7b0" d="M 50.5,129.5 C 51.7498,129.577 52.5831,130.244 53,131.5C 58.1033,128.093 61.27,129.426 62.5,135.5C 61.9622,141.266 58.9622,143.266 53.5,141.5C 52.5344,143.396 52.2011,145.396 52.5,147.5C 50.5467,141.926 49.88,135.926 50.5,129.5 Z"/></g>
<g><path style="opacity:1" fill="#eff9f5" d="M 53.5,132.5 C 59.1581,131.679 60.8248,133.846 58.5,139C 52.741,140.139 51.0744,137.972 53.5,132.5 Z"/></g>
<g><path style="opacity:1" fill="#86e3ca" d="M 122.5,134.5 C 122.5,136.167 122.5,137.833 122.5,139.5C 123.833,139.5 125.167,139.5 126.5,139.5C 125.081,140.451 123.415,140.784 121.5,140.5C 121.205,138.265 121.539,136.265 122.5,134.5 Z"/></g>
<g><path style="opacity:1" fill="#5dd6ae" d="M 98.5,129.5 C 101.237,130.213 103.904,130.213 106.5,129.5C 107.662,134.467 107.829,139.467 107,144.5C 104.839,148.124 101.672,149.291 97.5,148C 97.0426,147.586 96.7093,147.086 96.5,146.5C 98.7662,145.686 101.1,145.186 103.5,145C 104.731,143.817 104.731,142.651 103.5,141.5C 96.7017,142.518 94.2017,139.518 96,132.5C 97.045,131.627 97.8783,130.627 98.5,129.5 Z"/></g>
<g><path style="opacity:1" fill="#f5fcf9" d="M 99.5,132.5 C 101.167,132.5 102.833,132.5 104.5,132.5C 104.5,134.833 104.5,137.167 104.5,139.5C 98.7527,140.129 97.086,137.795 99.5,132.5 Z"/></g>
</svg>
