<svg xmlns="http://www.w3.org/2000/svg" viewBox="0 0 1024 1024" version="1.1"><path d="M512 74.7C270.9 74.7 74.7 270.9 74.7 512S270.9 949.3 512 949.3 949.3 753.1 949.3 512 753.1 74.7 512 74.7z m0 810.7c-204.8 0-373.3-168.5-373.3-373.3S307.2 138.7 512 138.7 885.3 307.2 885.3 512 716.8 885.3 512 885.3z" fill="#666666" p-id="1795"></path><path d="M701.9 381.9L448 637.9 322.1 512c-12.8-12.8-32-12.8-44.8 0-12.8 12.8-12.8 32 0 44.8l149.3 149.3c6.4 6.4 14.9 8.5 23.5 8.5s17.1-2.1 23.5-8.5l277.3-277.3c12.8-12.8 12.8-32 0-44.8-14.9-12.8-36.3-12.8-49.1-2.1z" fill="#666666" p-id="1796"></path></svg>