<svg xmlns="http://www.w3.org/2000/svg" viewBox="0 0 1024 1024" version="1.1"><path d="M810.7 138.7h-85.3V128c0-29.9-23.5-53.3-53.3-53.3h-320C322.1 74.7 298.7 98.1 298.7 128v10.7h-85.3c-40.5 0-74.7 34.1-74.7 74.7v661.3c0 40.5 34.1 74.7 74.7 74.7h597.3c40.5 0 74.7-34.1 74.7-74.7V213.3c0-40.5-34.1-74.7-74.7-74.7z m-149.3 0v64H362.7v-64h298.7zM821.3 874.7c0 6.4-4.3 10.7-10.7 10.7H213.3c-6.4 0-10.7-4.3-10.7-10.7V213.3c0-6.4 4.3-10.7 10.7-10.7h85.3v10.7c0 29.9 23.5 53.3 53.3 53.3h320c29.9 0 53.3-23.5 53.3-53.3v-10.7h85.3c6.4 0 10.7 4.3 10.7 10.7v661.3z" fill="#666666" p-id="1842"></path><path d="M659.2 445.9l-211.2 213.3-83.2-83.2c-12.8-12.8-32-12.8-44.8 0s-12.8 32 0 44.8l106.7 106.7c6.4 6.4 14.9 8.5 23.5 8.5s17.1-2.1 23.5-8.5l234.7-234.7c12.8-12.8 12.8-32 0-44.8-14.9-12.8-36.3-12.8-49.1-2.1z" fill="#666666" p-id="1843"></path></svg>