<svg xmlns="http://www.w3.org/2000/svg" viewBox="0 0 1024 1024" version="1.1"><path d="M934.4 659.2l-174.9-224c-4.3-4.3-10.7-8.5-17.1-8.5-2.1 0-4.3 0-6.4 2.1-8.5 2.1-14.9 10.7-14.9 19.2v110.9H405.3c-12.8 0-21.3 8.5-21.3 21.3v179.2c0 14.9 8.5 25.6 21.3 25.6h313.6V896c0 8.5 6.4 17.1 14.9 19.2 8.5 2.1 17.1 0 23.5-6.4l174.9-221.9c8.5-8.5 8.5-19.2 2.1-27.7zM640 441.6v-179.2c0-14.9-8.5-25.6-21.3-25.6H305.1V128c0-8.5-6.4-17.1-14.9-19.2s-17.1 0-23.5 6.4L89.6 334.9c-6.4 8.5-6.4 19.2 0 29.9l174.9 224c4.3 4.3 10.7 8.5 17.1 8.5 2.1 0 4.3 0 6.4-2.1 8.5-2.1 14.9-10.7 14.9-19.2v-110.9H618.7c12.8-2.1 21.3-10.7 21.3-23.5z" fill="#666666" p-id="2439"></path></svg>