<svg xmlns="http://www.w3.org/2000/svg" viewBox="0 0 1024 1024" version="1.1"><path d="M846.9 115.2c-8.5-6.4-21.3-6.4-29.9-2.1 0 0-74.7 34.1-174.9 34.1-49.1 0-96-17.1-145.1-34.1-53.3-19.2-106.7-38.4-166.4-38.4-119.5 0-162.1 40.5-168.5 44.8-4.3 6.4-8.5 14.9-8.5 23.5V917.3c0 17.1 14.9 32 32 32s32-14.9 32-32V595.2c14.9-8.5 51.2-21.3 113.1-21.3 49.1 0 96 17.1 145.1 34.1 53.3 19.2 106.7 38.4 166.4 38.4 115.2 0 198.4-38.4 200.5-38.4 10.7-4.3 19.2-17.1 19.2-29.9V142.9c0-10.7-6.4-21.3-14.9-27.7z m-49.1 441.6c-27.7 10.7-85.3 25.6-155.7 25.6-49.1 0-96-17.1-145.1-34.1-53.3-19.2-106.7-38.4-166.4-38.4-49.1 0-87.5 6.4-113.1 17.1V160c14.9-8.5 51.2-21.3 113.1-21.3 49.1 0 96 17.1 145.1 34.1 53.3 19.2 106.7 38.4 166.4 38.4 64 0 119.5-12.8 155.7-23.5v369.1z" fill="#666666" p-id="1854"></path></svg>