<svg xmlns="http://www.w3.org/2000/svg" viewBox="0 0 1024 1024" version="1.1"><path d="M808.5 138.7l-2.1 2.1-2.1 2.1c-4.3 2.1-10.7 6.4-19.2 8.5-23.5 10.7-57.6 14.9-102.4 14.9-38.4 0-72.5-8.5-149.3-32L509.9 128c-74.7-23.5-113.1-32-157.9-32-51.2 0-93.9 8.5-125.9 21.3-21.3 8.5-34.1 17.1-42.7 25.6-4.3 4.3-8.5 12.8-8.5 21.3V896c0 17.1 14.9 32 32 32s32-14.9 32-32V616.5c4.3-2.1 6.4-4.3 10.7-6.4 23.5-10.7 57.6-14.9 102.4-14.9h8.5c36.3 2.1 70.4 8.5 140.8 32l34.1 10.7c70.4 21.3 106.7 29.9 151.5 29.9 51.2 0 93.9-8.5 125.9-21.3 21.3-8.5 34.1-17.1 42.7-25.6 6.4-6.4 8.5-14.9 8.5-23.5V164.3c-2.1-27.7-34.1-42.7-55.5-25.6z" fill="#666666" p-id="2461"></path></svg>