<svg xmlns="http://www.w3.org/2000/svg" viewBox="0 0 1024 1024" version="1.1"><path d="M817.1 586.7c-32-4.3-64-12.8-96-23.5-38.4-14.9-81.1-4.3-110.9 23.5l-27.7 27.7c-70.4-44.8-130.1-102.4-172.8-172.8l27.7-27.7c27.7-29.9 38.4-72.5 23.5-110.9-10.7-29.9-19.2-61.9-23.5-96-6.4-51.2-51.2-89.6-104.5-89.6h-108.8c-32 0-59.7 12.8-78.9 34.1-19.2 21.3-29.9 51.2-27.7 81.1 12.8 117.3 53.3 230.4 117.3 328.5 57.6 91.7 136.5 170.7 228.3 228.3 98.1 64 211.2 104.5 328.5 117.3h8.5c25.6 0 51.2-10.7 70.4-27.7 21.3-19.2 34.1-49.1 34.1-76.8v-108.8c4.3-53.3-36.3-98.1-87.5-106.7z m25.6 106.7v108.8c0 10.7-4.3 23.5-12.8 29.9-8.5 8.5-19.2 10.7-29.9 10.7-106.7-10.7-211.2-49.1-300.8-106.7-83.2-53.3-155.7-125.9-209.1-209.1-57.6-89.6-96-194.1-106.7-300.8 0-10.7 2.1-23.5 10.7-32 8.5-8.5 19.2-12.8 29.9-12.8h108.8c21.3 0 38.4 14.9 40.5 34.1 4.3 36.3 14.9 74.7 27.7 108.8 6.4 14.9 2.1 32-8.5 42.7l-46.9 46.9c-10.7 10.7-12.8 25.6-4.3 38.4 55.5 96 134.4 174.9 230.4 230.4 12.8 6.4 27.7 4.3 38.4-4.3l46.9-46.9c10.7-10.7 27.7-14.9 42.7-8.5 36.3 12.8 72.5 21.3 108.8 27.7 19.2 2.1 34.1 19.2 34.1 42.7 0-2.1 0-2.1 0 0zM930.1 270.9c2.1-4.3 2.1-8.5 2.1-12.8s0-8.5-2.1-10.7c-2.1-4.3-4.3-8.5-6.4-10.7L793.6 106.7c-12.8-12.8-32-12.8-44.8 0-12.8 12.8-12.8 32 0 44.8l74.7 74.7H640c-17.1 0-32 14.9-32 32s14.9 32 32 32h183.5L746.7 364.8c-12.8 12.8-12.8 32 0 44.8 6.4 6.4 14.9 8.5 23.5 8.5s17.1-2.1 23.5-8.5l130.1-130.1c2.1-2.1 4.3-4.3 6.4-8.5z" fill="#666666" p-id="1899"></path></svg>