<svg xmlns="http://www.w3.org/2000/svg" viewBox="0 0 1024 1024" version="1.1"><path d="M874.7 800H149.3c-17.1 0-32 14.9-32 32s14.9 32 32 32h725.3c17.1 0 32-14.9 32-32s-14.9-32-32-32zM149.3 224h725.3c17.1 0 32-14.9 32-32s-14.9-32-32-32H149.3c-17.1 0-32 14.9-32 32s14.9 32 32 32zM149.3 544h512c17.1 0 32-14.9 32-32s-14.9-32-32-32H149.3c-17.1 0-32 14.9-32 32s14.9 32 32 32z" fill="#666666" p-id="1922"></path><path d="M748.8 339.2c-12.8-12.8-32-12.8-44.8 0-12.8 12.8-12.8 32 0 44.8l125.9 125.9-125.9 125.9c-12.8 12.8-12.8 32 0 44.8 6.4 6.4 14.9 8.5 23.5 8.5s17.1-2.1 23.5-8.5l149.3-149.3c12.8-12.8 12.8-32 0-44.8l-151.5-147.2z" fill="#666666" p-id="1923"></path></svg>