<svg xmlns="http://www.w3.org/2000/svg" viewBox="0 0 1024 1024" version="1.1"><path d="M853.3 202.7H544V106.7c0-17.1-14.9-32-32-32s-32 14.9-32 32v96H170.7c-40.5 0-74.7 34.1-74.7 74.7v384c0 40.5 34.1 74.7 74.7 74.7h187.7l-87.5 151.5c-8.5 14.9-4.3 34.1 10.7 42.7 4.3 2.1 10.7 4.3 14.9 4.3 10.7 0 21.3-6.4 27.7-17.1l106.7-183.5h157.9l106.7 183.5c6.4 10.7 17.1 17.1 27.7 17.1 6.4 0 10.7-2.1 14.9-4.3 14.9-8.5 21.3-27.7 10.7-42.7L661.3 736h192c40.5 0 74.7-34.1 74.7-74.7V277.3c0-40.5-34.1-74.7-74.7-74.7z m10.7 458.7c0 6.4-4.3 10.7-10.7 10.7H170.7c-6.4 0-10.7-4.3-10.7-10.7V277.3c0-6.4 4.3-10.7 10.7-10.7h682.7c6.4 0 10.7 4.3 10.7 10.7v384z" fill="#666666" p-id="2002"></path><path d="M682.7 501.3H341.3c-17.1 0-32 14.9-32 32s14.9 32 32 32h341.3c17.1 0 32-14.9 32-32s-14.9-32-32-32zM682.7 373.3H341.3c-17.1 0-32 14.9-32 32s14.9 32 32 32h341.3c17.1 0 32-14.9 32-32s-14.9-32-32-32z" fill="#666666" p-id="2003"></path></svg>