<svg xmlns="http://www.w3.org/2000/svg" viewBox="0 0 1024 1024" version="1.1"><path d="M785.1 416H381.9v-121.6c0-74.7 61.9-134.4 138.7-134.4 59.7 0 113.1 36.3 132.3 91.7 6.4 17.1 23.5 25.6 40.5 19.2 17.1-6.4 25.6-23.5 19.2-40.5-27.7-81.1-104.5-134.4-192-134.4-110.9 0-202.7 89.6-202.7 198.4v121.6h-78.9c-55.5 0-100.3 44.8-100.3 100.3v311.5c0 55.5 44.8 100.3 100.3 100.3h546.1c55.5 0 100.3-44.8 100.3-100.3V516.3c0-55.5-44.8-100.3-100.3-100.3z m36.3 411.7c0 19.2-17.1 36.3-36.3 36.3H238.9c-19.2 0-36.3-17.1-36.3-36.3V516.3c0-19.2 17.1-36.3 36.3-36.3h546.1c19.2 0 36.3 17.1 36.3 36.3v311.5z" fill="#666666" p-id="1956"></path><path d="M512 544c-17.1 0-32 14.9-32 32v106.7c0 17.1 14.9 32 32 32s32-14.9 32-32v-106.7c0-17.1-14.9-32-32-32z" fill="#666666" p-id="1957"></path></svg>