<svg xmlns="http://www.w3.org/2000/svg" viewBox="0 0 1024 1024" version="1.1"><path d="M934.4 770.1L605.9 181.3C586.7 147.2 550.4 128 512 128c-38.4 0-74.7 21.3-93.9 53.3L89.6 770.1c-19.2 34.1-19.2 76.8 0 110.9S145.1 938.7 183.5 938.7h657.1c38.4 0 74.7-21.3 93.9-57.6 19.2-34.1 19.2-76.8 0-110.9z m-55.5 81.1c-8.5 14.9-23.5 23.5-38.4 23.5H183.5c-14.9 0-29.9-8.5-38.4-23.5-8.5-14.9-8.5-34.1 0-49.1L473.6 213.3c8.5-12.8 23.5-21.3 38.4-21.3s29.9 8.5 38.4 21.3l328.5 588.8c8.5 14.9 8.5 32 0 49.1z" fill="#666666" p-id="2014"></path><path d="M512 746.7m-42.7 0a42.7 42.7 0 1 0 85.3 0 42.7 42.7 0 1 0-85.3 0Z" fill="#666666" p-id="2015"></path><path d="M512 629.3c17.1 0 32-14.9 32-32v-192c0-17.1-14.9-32-32-32s-32 14.9-32 32v192c0 17.1 14.9 32 32 32z" fill="#666666" p-id="2016"></path></svg>