<svg xmlns="http://www.w3.org/2000/svg" viewBox="0 0 1024 1024" version="1.1"><path d="M934.4 770.1L605.9 181.3C586.7 147.2 550.4 128 512 128s-74.7 21.3-93.9 53.3L89.6 770.1c-19.2 34.1-19.2 76.8 0 110.9S145.1 938.7 183.5 938.7h657.1c40.5 0 74.7-21.3 93.9-57.6 19.2-34.1 19.2-76.8 0-110.9zM480 362.7c0-17.1 14.9-32 32-32s29.9 12.8 32 29.9V640c0 17.1-14.9 32-32 32s-29.9-12.8-32-29.9V362.7zM512 832c-23.5 0-42.7-19.2-42.7-42.7s19.2-42.7 42.7-42.7 42.7 19.2 42.7 42.7-19.2 42.7-42.7 42.7z" fill="#666666" p-id="2483"></path></svg>