<svg xmlns="http://www.w3.org/2000/svg" viewBox="0 0 1024 1024" version="1.1"><path d="M885.3 256H725.3V198.4C723.2 157.9 689.1 128 648.5 128h-298.7c-40.5 2.1-72.5 34.1-72.5 74.7V256H138.7C98.1 256 64 290.1 64 330.7V448h896v-117.3c0-40.5-34.1-74.7-74.7-74.7zM341.3 202.7c2.1-6.4 6.4-10.7 12.8-10.7h296.5c6.4 0 10.7 6.4 10.7 10.7V256H341.3V202.7zM672 576c0 40.5-34.1 74.7-74.7 74.7h-170.7c-40.5 0-74.7-34.1-74.7-74.7v-64H64v309.3C64 861.9 98.1 896 138.7 896h746.7c40.5 0 74.7-34.1 74.7-74.7V512H672v64z" fill="#666666" p-id="2450"></path></svg>