<?xml version="1.0" encoding="UTF-8"?>
<!DOCTYPE svg PUBLIC "-//W3C//DTD SVG 1.1//EN" "http://www.w3.org/Graphics/SVG/1.1/DTD/svg11.dtd">
<svg xmlns="http://www.w3.org/2000/svg" version="1.1" width="300px" height="300px" style="shape-rendering:geometricPrecision; text-rendering:geometricPrecision; image-rendering:optimizeQuality; fill-rule:evenodd; clip-rule:evenodd" xmlns:xlink="http://www.w3.org/1999/xlink">
<g><path style="opacity:1" fill="#fdfefe" d="M -0.5,-0.5 C 99.5,-0.5 199.5,-0.5 299.5,-0.5C 299.5,99.5 299.5,199.5 299.5,299.5C 199.5,299.5 99.5,299.5 -0.5,299.5C -0.5,199.5 -0.5,99.5 -0.5,-0.5 Z"/></g>
<g><path style="opacity:1" fill="#82c2a5" d="M 175.5,12.5 C 159.5,12.5 143.5,12.5 127.5,12.5C 127.5,13.5 127.5,14.5 127.5,15.5C 122.175,14.2388 116.842,14.2388 111.5,15.5C 118.205,13.2449 125.205,11.7449 132.5,11C 144.167,10.3333 155.833,10.3333 167.5,11C 170.365,11.1829 173.031,11.6829 175.5,12.5 Z"/></g>
<g><path style="opacity:1" fill="#77bd9c" d="M 176.5,12.5 C 183.927,13.474 191.261,14.974 198.5,17C 201.859,18.0465 204.859,19.5465 207.5,21.5C 200.947,19.3611 194.28,17.5277 187.5,16C 185.288,15.2109 183.288,15.3775 181.5,16.5C 174.214,15.7352 166.881,15.2352 159.5,15C 164.833,14.6667 170.167,14.3333 175.5,14C 176.056,13.6174 176.389,13.1174 176.5,12.5 Z"/></g>
<g><path style="opacity:1" fill="#66bd94" d="M 175.5,12.5 C 175.833,12.5 176.167,12.5 176.5,12.5C 176.389,13.1174 176.056,13.6174 175.5,14C 170.167,14.3333 164.833,14.6667 159.5,15C 166.881,15.2352 174.214,15.7352 181.5,16.5C 181.833,16.5 182.167,16.5 182.5,16.5C 182.47,17.4972 182.97,18.1639 184,18.5C 186.135,19.1271 188.302,19.6271 190.5,20C 191.102,22.0363 192.102,23.8697 193.5,25.5C 190.911,26.205 188.244,26.205 185.5,25.5C 176.929,23.0334 168.262,20.8667 159.5,19C 150.102,18.3374 140.769,18.8374 131.5,20.5C 127.02,20.7319 122.687,20.0652 118.5,18.5C 119.714,16.9309 121.381,16.0976 123.5,16C 119.818,15.7776 116.152,16.111 112.5,17C 111.953,17.9246 111.287,18.7579 110.5,19.5C 110.167,19 109.833,18.5 109.5,18C 110.056,16.9889 110.722,16.1556 111.5,15.5C 116.842,14.2388 122.175,14.2388 127.5,15.5C 127.5,14.5 127.5,13.5 127.5,12.5C 143.5,12.5 159.5,12.5 175.5,12.5 Z"/></g>
<g><path style="opacity:1" fill="#fdfefe" d="M 185.5,25.5 C 189.878,27.1861 194.212,29.1861 198.5,31.5C 208.978,36.6536 218.644,42.987 227.5,50.5C 228.167,51.8333 229.167,52.8333 230.5,53.5C 267.738,91.7685 278.905,136.768 264,188.5C 258.548,205.062 250.382,220.062 239.5,233.5C 235.805,235.678 232.472,238.511 229.5,242C 231.567,242.536 233.401,242.036 235,240.5C 235.464,241.094 235.631,241.761 235.5,242.5C 231.827,246.839 227.827,250.839 223.5,254.5C 218.112,257.855 212.779,261.188 207.5,264.5C 197.14,269.227 186.473,272.894 175.5,275.5C 158.487,275.65 141.487,275.316 124.5,274.5C 87.432,265.544 59.932,244.211 42,210.5C 31.8878,187.97 27.3878,164.304 28.5,139.5C 38.6102,78.7318 72.9436,39.0652 131.5,20.5C 140.769,18.8374 150.102,18.3374 159.5,19C 168.262,20.8667 176.929,23.0334 185.5,25.5 Z"/></g>
<g><path style="opacity:1" fill="#b1dec9" d="M 181.5,16.5 C 183.288,15.3775 185.288,15.2109 187.5,16C 194.28,17.5277 200.947,19.3611 207.5,21.5C 226.729,28.7105 243.229,40.0438 257,55.5C 258.879,57.5268 260.046,59.8602 260.5,62.5C 239.755,38.4536 213.755,23.1203 182.5,16.5C 182.167,16.5 181.833,16.5 181.5,16.5 Z"/></g>
<g><path style="opacity:1" fill="#6abd96" d="M 111.5,15.5 C 110.722,16.1556 110.056,16.9889 109.5,18C 109.833,18.5 110.167,19 110.5,19.5C 111.287,18.7579 111.953,17.9246 112.5,17C 116.152,16.111 119.818,15.7776 123.5,16C 121.381,16.0976 119.714,16.9309 118.5,18.5C 122.687,20.0652 127.02,20.7319 131.5,20.5C 72.9436,39.0652 38.6102,78.7318 28.5,139.5C 27.6708,147.323 27.1708,155.323 27,163.5C 25.4052,165.425 25.2385,167.425 26.5,169.5C 25.9017,170.795 25.4017,172.128 25,173.5C 24.0979,168.706 23.2645,164.039 22.5,159.5C 21.2259,148.974 21.2259,138.307 22.5,127.5C 25.1873,113.284 29.6873,99.6174 36,86.5C 42.3985,79.3675 48.0652,71.7008 53,63.5C 60.5,56 68,48.5 75.5,41C 80.9964,37.0842 86.6631,33.4175 92.5,30C 72.4996,38.2968 55.6663,51.1301 42,68.5C 36.8771,76.0938 32.0438,83.7605 27.5,91.5C 26.5041,91.4142 25.6708,91.7476 25,92.5C 23.6667,95.8333 22.3333,99.1667 21,102.5C 20.0426,99.6212 20.5426,97.1212 22.5,95C 21.7476,94.3292 21.4142,93.4959 21.5,92.5C 39.2206,52.4437 69.2206,26.777 111.5,15.5 Z"/></g>
<g><path style="opacity:1" fill="#69bc96" d="M 227.5,50.5 C 218.644,42.987 208.978,36.6536 198.5,31.5C 199.091,30.8485 199.757,30.1818 200.5,29.5C 198.833,28.8333 197.167,28.1667 195.5,27.5C 201.232,27.215 206.565,28.715 211.5,32C 212.833,32.6667 212.833,33.3333 211.5,34C 215.944,35.1106 219.944,37.1106 223.5,40C 225.037,41.1096 225.703,42.6096 225.5,44.5C 232.23,45.2372 232.897,47.2372 227.5,50.5 Z"/></g>
<g><path style="opacity:1" fill="#77c19e" d="M 182.5,16.5 C 213.755,23.1203 239.755,38.4536 260.5,62.5C 261.6,63.6049 262.267,64.9382 262.5,66.5C 262.672,67.4916 262.338,68.1583 261.5,68.5C 252.399,56.3979 241.399,46.3979 228.5,38.5C 225.177,36.0297 221.677,33.6963 218,31.5C 217.312,32.3317 217.479,32.9984 218.5,33.5C 221.701,35.2622 224.701,37.2622 227.5,39.5C 234.464,44.7967 240.798,50.7967 246.5,57.5C 243.944,56.4566 241.777,54.7899 240,52.5C 239.667,53.1667 239.333,53.8333 239,54.5C 237.316,52.6487 235.483,50.982 233.5,49.5C 232.066,50.5884 231.066,51.9217 230.5,53.5C 229.167,52.8333 228.167,51.8333 227.5,50.5C 232.897,47.2372 232.23,45.2372 225.5,44.5C 225.703,42.6096 225.037,41.1096 223.5,40C 219.944,37.1106 215.944,35.1106 211.5,34C 212.833,33.3333 212.833,32.6667 211.5,32C 206.565,28.715 201.232,27.215 195.5,27.5C 197.167,28.1667 198.833,28.8333 200.5,29.5C 199.757,30.1818 199.091,30.8485 198.5,31.5C 194.212,29.1861 189.878,27.1861 185.5,25.5C 188.244,26.205 190.911,26.205 193.5,25.5C 192.102,23.8697 191.102,22.0363 190.5,20C 188.302,19.6271 186.135,19.1271 184,18.5C 182.97,18.1639 182.47,17.4972 182.5,16.5 Z"/></g>
<g><path style="opacity:1" fill="#c8f2dd" d="M 228.5,38.5 C 227.833,38.5 227.5,38.8333 227.5,39.5C 224.701,37.2622 221.701,35.2622 218.5,33.5C 217.479,32.9984 217.312,32.3317 218,31.5C 221.677,33.6963 225.177,36.0297 228.5,38.5 Z"/></g>
<g><path style="opacity:1" fill="#f3fcf7" d="M 22.5,127.5 C 22.6646,124.482 22.498,121.482 22,118.5C 21.7645,116.881 20.9311,115.881 19.5,115.5C 20.7526,112.233 21.7526,108.899 22.5,105.5C 24.1667,100.833 25.8333,96.1667 27.5,91.5C 32.0438,83.7605 36.8771,76.0938 42,68.5C 55.6663,51.1301 72.4996,38.2968 92.5,30C 86.6631,33.4175 80.9964,37.0842 75.5,41C 68,48.5 60.5,56 53,63.5C 48.0652,71.7008 42.3985,79.3675 36,86.5C 29.6873,99.6174 25.1873,113.284 22.5,127.5 Z"/></g>
<g><path style="opacity:1" fill="#68bd95" d="M 246.5,57.5 C 246.64,59.1238 245.973,60.2904 244.5,61C 248.913,65.8288 252.58,71.1621 255.5,77C 255.355,77.772 255.022,78.4387 254.5,79C 256.081,79.7065 257.581,80.5399 259,81.5C 260.609,85.71 262.442,89.71 264.5,93.5C 265.655,96.3283 266.989,98.9949 268.5,101.5C 269.388,106.072 270.721,110.405 272.5,114.5C 273.995,123.279 275.329,131.946 276.5,140.5C 276.659,155.074 274.992,169.408 271.5,183.5C 269.089,190.398 267.089,197.398 265.5,204.5C 262.468,208.181 259.635,212.181 257,216.5C 256.023,218.74 255.523,221.073 255.5,223.5C 251.177,228.794 246.844,234.127 242.5,239.5C 240.401,240.517 239.401,241.85 239.5,243.5C 241.188,242.479 242.521,241.145 243.5,239.5C 244.5,238.833 245.5,238.167 246.5,237.5C 251.185,236.395 255.185,234.729 258.5,232.5C 261.125,234.081 262.458,236.415 262.5,239.5C 248.689,258.571 230.355,270.904 207.5,276.5C 205.856,276.714 204.356,276.38 203,275.5C 200.519,278.872 198.019,279.038 195.5,276C 196.448,275.517 197.448,275.351 198.5,275.5C 198.5,274.5 198.5,273.5 198.5,272.5C 200.527,272.662 202.527,272.495 204.5,272C 203.167,271.333 203.167,270.667 204.5,270C 203.833,269.667 203.167,269.333 202.5,269C 204.271,267.476 205.938,265.976 207.5,264.5C 212.779,261.188 218.112,257.855 223.5,254.5C 227.827,250.839 231.827,246.839 235.5,242.5C 239.157,238.836 242.491,234.836 245.5,230.5C 245.333,230.167 245.167,229.833 245,229.5C 243.667,231.5 242,233.167 240,234.5C 239.601,234.272 239.435,233.938 239.5,233.5C 250.382,220.062 258.548,205.062 264,188.5C 278.905,136.768 267.738,91.7685 230.5,53.5C 231.066,51.9217 232.066,50.5884 233.5,49.5C 235.483,50.982 237.316,52.6487 239,54.5C 239.333,53.8333 239.667,53.1667 240,52.5C 241.777,54.7899 243.944,56.4566 246.5,57.5 Z"/></g>
<g><path style="opacity:1" fill="#b0edcb" d="M 268.5,101.5 C 266.989,98.9949 265.655,96.3283 264.5,93.5C 264.369,92.7611 264.536,92.0944 265,91.5C 266.868,94.6051 268.035,97.9385 268.5,101.5 Z"/></g>
<g><path style="opacity:1" fill="#8ac6aa" d="M 27.5,91.5 C 25.8333,96.1667 24.1667,100.833 22.5,105.5C 21.7784,105.082 21.2784,104.416 21,103.5C 18.2074,111.338 16.0407,119.338 14.5,127.5C 13.614,134.141 12.9473,140.808 12.5,147.5C 11.3087,144.908 11.1421,139.575 12,131.5C 13.0847,124.404 14.5847,117.404 16.5,110.5C 15.9781,109.393 15.6448,108.226 15.5,107C 16.8552,101.804 18.8552,96.9702 21.5,92.5C 21.4142,93.4959 21.7476,94.3292 22.5,95C 20.5426,97.1212 20.0426,99.6212 21,102.5C 22.3333,99.1667 23.6667,95.8333 25,92.5C 25.6708,91.7476 26.5041,91.4142 27.5,91.5 Z"/></g>
<g><path style="opacity:1" fill="#d9f1e7" d="M 220.5,175.5 C 219.338,156.004 219.171,136.338 220,116.5C 222.481,114.686 225.315,114.02 228.5,114.5C 229.434,113.432 229.768,112.099 229.5,110.5C 220.5,110.5 211.5,110.5 202.5,110.5C 203.374,109.475 204.541,108.808 206,108.5C 213.494,109.52 220.994,109.687 228.5,109C 229.5,109.333 230.5,109.667 231.5,110C 230.751,111.734 230.251,113.567 230,115.5C 227.281,116.444 224.448,116.777 221.5,116.5C 220.549,136.14 220.216,155.806 220.5,175.5 Z"/></g>
<g><path style="opacity:1" fill="#92beaa" d="M 71.5,114.5 C 71.5,113.5 71.5,112.5 71.5,111.5C 63.1667,111.5 54.8333,111.5 46.5,111.5C 46.5,112.5 46.5,113.5 46.5,114.5C 45.5655,113.432 45.2322,112.099 45.5,110.5C 54.5,110.5 63.5,110.5 72.5,110.5C 72.7678,112.099 72.4345,113.432 71.5,114.5 Z"/></g>
<g><path style="opacity:1" fill="#8fb9a7" d="M 116.5,111.5 C 109.5,111.5 102.5,111.5 95.5,111.5C 95.5,112.5 95.5,113.5 95.5,114.5C 94.5655,113.432 94.2322,112.099 94.5,110.5C 102.019,110.175 109.352,110.508 116.5,111.5 Z"/></g>
<g><path style="opacity:1" fill="#99c3b0" d="M 151.5,111.5 C 142.833,111.5 134.167,111.5 125.5,111.5C 125.5,112.5 125.5,113.5 125.5,114.5C 127.415,114.216 129.081,114.549 130.5,115.5C 128.5,115.5 126.5,115.5 124.5,115.5C 124.5,113.833 124.5,112.167 124.5,110.5C 133.682,110.173 142.682,110.507 151.5,111.5 Z"/></g>
<g><path style="opacity:1" fill="#9ac5b2" d="M 190.5,115.5 C 191.919,114.549 193.585,114.216 195.5,114.5C 195.5,113.5 195.5,112.5 195.5,111.5C 188.468,111.17 181.468,111.503 174.5,112.5C 174.863,113.183 175.196,113.85 175.5,114.5C 173.824,113.817 173.157,112.483 173.5,110.5C 181.167,110.5 188.833,110.5 196.5,110.5C 196.5,112.167 196.5,113.833 196.5,115.5C 194.5,115.5 192.5,115.5 190.5,115.5 Z"/></g>
<g><path style="opacity:1" fill="#92bca9" d="M 202.5,111.5 C 202.5,111.167 202.5,110.833 202.5,110.5C 211.5,110.5 220.5,110.5 229.5,110.5C 229.768,112.099 229.434,113.432 228.5,114.5C 228.5,113.5 228.5,112.5 228.5,111.5C 224.167,111.5 219.833,111.5 215.5,111.5C 211.5,111.5 207.5,111.5 203.5,111.5C 203.167,111.5 202.833,111.5 202.5,111.5 Z"/></g>
<g><path style="opacity:1" fill="#a5d9c2" d="M 22.5,105.5 C 21.7526,108.899 20.7526,112.233 19.5,115.5C 18.0314,120.38 17.0314,125.38 16.5,130.5C 15.8333,129.5 15.1667,128.5 14.5,127.5C 16.0407,119.338 18.2074,111.338 21,103.5C 21.2784,104.416 21.7784,105.082 22.5,105.5 Z"/></g>
<g><path style="opacity:1" fill="#68bd95" d="M 71.5,114.5 C 69.5,114.5 67.5,114.5 65.5,114.5C 65.3433,115.873 65.51,117.207 66,118.5C 71.0104,124.54 75.5104,130.874 79.5,137.5C 79.5,138.5 79.5,139.5 79.5,140.5C 83.3428,140.191 84.6761,141.691 83.5,145C 84.6934,146.095 86.0267,146.928 87.5,147.5C 94.1275,154.731 100.294,162.398 106,170.5C 107.777,172.79 109.944,174.457 112.5,175.5C 113.568,176.434 114.901,176.768 116.5,176.5C 116.5,177.5 116.5,178.5 116.5,179.5C 108.14,179.831 99.8068,179.498 91.5,178.5C 91.8627,177.817 92.1961,177.15 92.5,176.5C 94.4672,176.739 96.3005,176.406 98,175.5C 98.2793,173.588 97.4459,172.254 95.5,171.5C 90.9008,163.982 85.5675,156.982 79.5,150.5C 71.3553,157.969 64.3553,166.302 58.5,175.5C 60.6074,176.468 62.9407,176.802 65.5,176.5C 65.5,177.5 65.5,178.5 65.5,179.5C 58.5,179.5 51.5,179.5 44.5,179.5C 44.5,178.5 44.5,177.5 44.5,176.5C 46.099,176.768 47.4324,176.434 48.5,175.5C 51.2626,175.256 53.4293,173.923 55,171.5C 61.9796,163.019 69.1463,154.686 76.5,146.5C 68.3186,135.825 59.9852,125.325 51.5,115C 49.8659,114.506 48.1992,114.34 46.5,114.5C 46.5,113.5 46.5,112.5 46.5,111.5C 54.8333,111.5 63.1667,111.5 71.5,111.5C 71.5,112.5 71.5,113.5 71.5,114.5 Z"/></g>
<g><path style="opacity:1" fill="#70be9a" d="M 116.5,111.5 C 116.5,112.5 116.5,113.5 116.5,114.5C 114.011,114.298 111.677,114.798 109.5,116C 101.667,124.5 93.8333,133 86,141.5C 85.678,143.689 86.178,145.689 87.5,147.5C 86.0267,146.928 84.6934,146.095 83.5,145C 84.6761,141.691 83.3428,140.191 79.5,140.5C 79.5,139.5 79.5,138.5 79.5,137.5C 80.601,138.8 81.9343,139.3 83.5,139C 88.9778,131.888 94.8112,125.054 101,118.5C 100.959,115.194 99.1262,113.861 95.5,114.5C 95.5,113.5 95.5,112.5 95.5,111.5C 102.5,111.5 109.5,111.5 116.5,111.5 Z"/></g>
<g><path style="opacity:1" fill="#9fdbc0" d="M 272.5,114.5 C 273.621,116.954 274.454,119.621 275,122.5C 275.667,118.5 276.333,118.5 277,122.5C 277.923,126.79 278.423,131.123 278.5,135.5C 277.691,137.028 277.024,138.694 276.5,140.5C 275.329,131.946 273.995,123.279 272.5,114.5 Z"/></g>
<g><path style="opacity:1" fill="#6ebd99" d="M 190.5,115.5 C 180.837,123.832 172.171,133.165 164.5,143.5C 166.884,146.869 169.217,150.203 171.5,153.5C 168.983,152.107 167.316,150.107 166.5,147.5C 165.5,147.5 164.5,147.5 163.5,147.5C 163.5,145.167 163.5,142.833 163.5,140.5C 162.209,140.737 161.209,140.404 160.5,139.5C 168.123,133.039 174.956,125.705 181,117.5C 181.617,116.551 181.451,115.718 180.5,115C 178.866,114.506 177.199,114.34 175.5,114.5C 175.196,113.85 174.863,113.183 174.5,112.5C 181.468,111.503 188.468,111.17 195.5,111.5C 195.5,112.5 195.5,113.5 195.5,114.5C 193.585,114.216 191.919,114.549 190.5,115.5 Z"/></g>
<g><path style="opacity:1" fill="#f4fbf9" d="M 227.5,39.5 C 227.5,38.8333 227.833,38.5 228.5,38.5C 241.399,46.3979 252.399,56.3979 261.5,68.5C 286.616,105.591 292.283,145.591 278.5,188.5C 277.876,188.083 277.543,187.416 277.5,186.5C 278.648,182.911 279.315,179.244 279.5,175.5C 283.295,151.174 281.795,127.174 275,103.5C 271.388,93.6089 266.721,84.2756 261,75.5C 256.867,68.8813 252.034,62.8813 246.5,57.5C 240.798,50.7967 234.464,44.7967 227.5,39.5 Z"/></g>
<g><path style="opacity:1" fill="#cdeee1" d="M 14.5,127.5 C 15.1667,128.5 15.8333,129.5 16.5,130.5C 15.7734,137.8 15.2734,145.133 15,152.5C 14.6264,150.509 13.793,148.842 12.5,147.5C 12.9473,140.808 13.614,134.141 14.5,127.5 Z"/></g>
<g><path style="opacity:1" fill="#76c09c" d="M 246.5,57.5 C 252.034,62.8813 256.867,68.8813 261,75.5C 266.721,84.2756 271.388,93.6089 275,103.5C 281.795,127.174 283.295,151.174 279.5,175.5C 277.899,178.55 276.899,181.884 276.5,185.5C 275.239,188.258 274.406,191.258 274,194.5C 273.503,192.19 273.337,189.857 273.5,187.5C 273.5,186.167 273.5,184.833 273.5,183.5C 275.735,177.134 277.235,170.467 278,163.5C 278.5,154.173 278.666,144.839 278.5,135.5C 278.423,131.123 277.923,126.79 277,122.5C 276.333,118.5 275.667,118.5 275,122.5C 274.454,119.621 273.621,116.954 272.5,114.5C 270.721,110.405 269.388,106.072 268.5,101.5C 268.035,97.9385 266.868,94.6051 265,91.5C 264.536,92.0944 264.369,92.7611 264.5,93.5C 262.442,89.71 260.609,85.71 259,81.5C 257.581,80.5399 256.081,79.7065 254.5,79C 255.022,78.4387 255.355,77.772 255.5,77C 252.58,71.1621 248.913,65.8288 244.5,61C 245.973,60.2904 246.64,59.1238 246.5,57.5 Z"/></g>
<g><path style="opacity:1" fill="#c9efde" d="M 278.5,135.5 C 278.666,144.839 278.5,154.173 278,163.5C 277.235,170.467 275.735,177.134 273.5,183.5C 272.833,183.5 272.167,183.5 271.5,183.5C 274.992,169.408 276.659,155.074 276.5,140.5C 277.024,138.694 277.691,137.028 278.5,135.5 Z"/></g>
<g><path style="opacity:1" fill="#68bd95" d="M 151.5,111.5 C 151.5,112.5 151.5,113.5 151.5,114.5C 149.167,114.5 146.833,114.5 144.5,114.5C 144.491,116.308 144.991,117.975 146,119.5C 151.087,126.019 155.921,132.686 160.5,139.5C 161.209,140.404 162.209,140.737 163.5,140.5C 163.5,142.833 163.5,145.167 163.5,147.5C 164.5,147.5 165.5,147.5 166.5,147.5C 167.316,150.107 168.983,152.107 171.5,153.5C 175.809,157.655 179.642,162.322 183,167.5C 186.098,171.107 189.598,174.107 193.5,176.5C 193.5,177.5 193.5,178.5 193.5,179.5C 185.833,179.5 178.167,179.5 170.5,179.5C 170.5,178.5 170.5,177.5 170.5,176.5C 172.415,176.784 174.081,176.451 175.5,175.5C 176.376,175.631 177.043,175.298 177.5,174.5C 171.637,166.097 165.304,158.097 158.5,150.5C 150.355,157.969 143.355,166.302 137.5,175.5C 139.607,176.468 141.941,176.802 144.5,176.5C 144.5,177.5 144.5,178.5 144.5,179.5C 137.5,179.5 130.5,179.5 123.5,179.5C 123.5,178.167 123.5,176.833 123.5,175.5C 125.857,175.663 128.19,175.497 130.5,175C 139.311,165.688 147.644,156.021 155.5,146C 147.75,135.321 139.417,125.155 130.5,115.5C 129.081,114.549 127.415,114.216 125.5,114.5C 125.5,113.5 125.5,112.5 125.5,111.5C 134.167,111.5 142.833,111.5 151.5,111.5 Z"/></g>
<g><path style="opacity:1" fill="#83c3a6" d="M 262.5,66.5 C 269.416,73.9771 274.582,82.6438 278,92.5C 290.769,124.475 291.769,156.808 281,189.5C 278.378,195.085 275.544,200.418 272.5,205.5C 273.156,203.516 273.822,201.516 274.5,199.5C 273.865,198.034 273.031,196.7 272,195.5C 271.617,196.056 271.117,196.389 270.5,196.5C 271.331,193.341 272.331,190.341 273.5,187.5C 273.337,189.857 273.503,192.19 274,194.5C 274.406,191.258 275.239,188.258 276.5,185.5C 276.319,188.553 276.152,191.553 276,194.5C 276.938,192.512 277.772,190.512 278.5,188.5C 292.283,145.591 286.616,105.591 261.5,68.5C 262.338,68.1583 262.672,67.4916 262.5,66.5 Z"/></g>
<g><path style="opacity:1" fill="#d2f4e3" d="M 95.5,171.5 C 97.4459,172.254 98.2793,173.588 98,175.5C 96.3005,176.406 94.4672,176.739 92.5,176.5C 91.8333,176.5 91.1667,176.5 90.5,176.5C 92.2922,175.691 94.2922,175.191 96.5,175C 95.6634,173.989 95.33,172.822 95.5,171.5 Z"/></g>
<g><path style="opacity:1" fill="#6dbb96" d="M 202.5,111.5 C 202.833,111.5 203.167,111.5 203.5,111.5C 205.912,113.162 208.746,114.162 212,114.5C 212.5,134.831 212.667,155.164 212.5,175.5C 214.5,175.5 216.5,175.5 218.5,175.5C 218.667,156.164 218.5,136.83 218,117.5C 216.859,135.419 216.025,153.419 215.5,171.5C 214.417,151.317 214.417,131.317 215.5,111.5C 219.833,111.5 224.167,111.5 228.5,111.5C 228.5,112.5 228.5,113.5 228.5,114.5C 225.315,114.02 222.481,114.686 220,116.5C 219.171,136.338 219.338,156.004 220.5,175.5C 230.557,175.865 240.557,175.365 250.5,174C 252.815,170.574 253.815,166.741 253.5,162.5C 254.833,162.5 256.167,162.5 257.5,162.5C 256.374,168.132 255.374,173.799 254.5,179.5C 237.833,179.5 221.167,179.5 204.5,179.5C 204.5,178.5 204.5,177.5 204.5,176.5C 206.735,176.795 208.735,176.461 210.5,175.5C 211.662,155.671 211.829,135.671 211,115.5C 208.281,114.556 205.448,114.223 202.5,114.5C 202.5,113.5 202.5,112.5 202.5,111.5 Z"/></g>
<g><path style="opacity:1" fill="#60bf93" d="M 203.5,111.5 C 207.5,111.5 211.5,111.5 215.5,111.5C 214.417,131.317 214.417,151.317 215.5,171.5C 216.025,153.419 216.859,135.419 218,117.5C 218.5,136.83 218.667,156.164 218.5,175.5C 216.5,175.5 214.5,175.5 212.5,175.5C 212.667,155.164 212.5,134.831 212,114.5C 208.746,114.162 205.912,113.162 203.5,111.5 Z"/></g>
<g><path style="opacity:1" fill="#61be94" d="M 211.5,176.5 C 224.667,176.319 237.667,176.652 250.5,177.5C 237.179,178.666 223.846,178.833 210.5,178C 211.056,177.617 211.389,177.117 211.5,176.5 Z"/></g>
<g><path style="opacity:1" fill="#9fd1ba" d="M 48.5,175.5 C 47.4324,176.434 46.099,176.768 44.5,176.5C 44.5,177.5 44.5,178.5 44.5,179.5C 51.5,179.5 58.5,179.5 65.5,179.5C 65.5,178.5 65.5,177.5 65.5,176.5C 62.9407,176.802 60.6074,176.468 58.5,175.5C 61.1667,175.5 63.8333,175.5 66.5,175.5C 66.5,177.167 66.5,178.833 66.5,180.5C 58.8333,180.5 51.1667,180.5 43.5,180.5C 43.5,178.833 43.5,177.167 43.5,175.5C 45.1667,175.5 46.8333,175.5 48.5,175.5 Z"/></g>
<g><path style="opacity:1" fill="#94c7b0" d="M 112.5,175.5 C 114.167,175.5 115.833,175.5 117.5,175.5C 117.5,177.167 117.5,178.833 117.5,180.5C 108.5,180.5 99.5,180.5 90.5,180.5C 90.5,179.167 90.5,177.833 90.5,176.5C 91.1667,176.5 91.8333,176.5 92.5,176.5C 92.1961,177.15 91.8627,177.817 91.5,178.5C 99.8068,179.498 108.14,179.831 116.5,179.5C 116.5,178.5 116.5,177.5 116.5,176.5C 114.901,176.768 113.568,176.434 112.5,175.5 Z"/></g>
<g><path style="opacity:1" fill="#9bcfb7" d="M 137.5,175.5 C 140.167,175.5 142.833,175.5 145.5,175.5C 145.5,177.167 145.5,178.833 145.5,180.5C 137.981,180.825 130.648,180.492 123.5,179.5C 130.5,179.5 137.5,179.5 144.5,179.5C 144.5,178.5 144.5,177.5 144.5,176.5C 141.941,176.802 139.607,176.468 137.5,175.5 Z"/></g>
<g><path style="opacity:1" fill="#92c5ae" d="M 175.5,175.5 C 174.081,176.451 172.415,176.784 170.5,176.5C 170.5,177.5 170.5,178.5 170.5,179.5C 178.167,179.5 185.833,179.5 193.5,179.5C 193.5,178.5 193.5,177.5 193.5,176.5C 194.5,176.5 195.5,176.5 196.5,176.5C 196.5,177.833 196.5,179.167 196.5,180.5C 187.5,180.5 178.5,180.5 169.5,180.5C 169.5,178.833 169.5,177.167 169.5,175.5C 171.5,175.5 173.5,175.5 175.5,175.5 Z"/></g>
<g><path style="opacity:1" fill="#99c8b2" d="M 210.5,175.5 C 208.735,176.461 206.735,176.795 204.5,176.5C 204.5,177.5 204.5,178.5 204.5,179.5C 221.167,179.5 237.833,179.5 254.5,179.5C 237.675,180.497 220.675,180.83 203.5,180.5C 203.5,178.833 203.5,177.167 203.5,175.5C 205.833,175.5 208.167,175.5 210.5,175.5 Z"/></g>
<g><path style="opacity:1" fill="#b9decc" d="M 279.5,175.5 C 279.315,179.244 278.648,182.911 277.5,186.5C 277.543,187.416 277.876,188.083 278.5,188.5C 277.772,190.512 276.938,192.512 276,194.5C 276.152,191.553 276.319,188.553 276.5,185.5C 276.899,181.884 277.899,178.55 279.5,175.5 Z"/></g>
<g><path style="opacity:1" fill="#e6f6ec" d="M 271.5,183.5 C 272.167,183.5 272.833,183.5 273.5,183.5C 273.5,184.833 273.5,186.167 273.5,187.5C 272.331,190.341 271.331,193.341 270.5,196.5C 269.359,199.254 268.025,201.921 266.5,204.5C 266.167,204.5 265.833,204.5 265.5,204.5C 267.089,197.398 269.089,190.398 271.5,183.5 Z"/></g>
<g><path style="opacity:1" fill="#d2eedf" d="M 265.5,204.5 C 265.833,204.5 266.167,204.5 266.5,204.5C 265.97,206.924 265.136,209.257 264,211.5C 261.426,215.835 258.593,219.835 255.5,223.5C 255.523,221.073 256.023,218.74 257,216.5C 259.635,212.181 262.468,208.181 265.5,204.5 Z"/></g>
<g><path style="opacity:1" fill="#75c19e" d="M 272.5,205.5 C 270.5,209.5 268.5,213.5 266.5,217.5C 262.864,221.789 260.03,226.456 258,231.5C 261.071,227.301 264.571,223.634 268.5,220.5C 268.992,227.819 266.992,234.153 262.5,239.5C 262.458,236.415 261.125,234.081 258.5,232.5C 255.185,234.729 251.185,236.395 246.5,237.5C 250.525,233.439 253.525,228.773 255.5,223.5C 258.593,219.835 261.426,215.835 264,211.5C 265.136,209.257 265.97,206.924 266.5,204.5C 268.025,201.921 269.359,199.254 270.5,196.5C 271.117,196.389 271.617,196.056 272,195.5C 273.031,196.7 273.865,198.034 274.5,199.5C 273.822,201.516 273.156,203.516 272.5,205.5 Z"/></g>
<g><path style="opacity:1" fill="#6fbd98" d="M 28.5,139.5 C 27.3878,164.304 31.8878,187.97 42,210.5C 59.932,244.211 87.432,265.544 124.5,274.5C 126.969,275.317 129.635,275.817 132.5,276C 146.829,276.5 161.163,276.667 175.5,276.5C 170.587,278.007 165.421,278.674 160,278.5C 146.774,278.145 133.607,277.145 120.5,275.5C 116.501,276.832 116.501,278.165 120.5,279.5C 119.5,279.5 118.5,279.5 117.5,279.5C 112.447,277.987 107.447,276.32 102.5,274.5C 95.3743,270.262 88.041,266.096 80.5,262C 77.6693,259.999 75.0026,257.833 72.5,255.5C 42.6308,230.43 25.9642,198.43 22.5,159.5C 23.2645,164.039 24.0979,168.706 25,173.5C 25.4017,172.128 25.9017,170.795 26.5,169.5C 25.2385,167.425 25.4052,165.425 27,163.5C 27.1708,155.323 27.6708,147.323 28.5,139.5 Z"/></g>
<g><path style="opacity:1" fill="#dceee8" d="M 32.5,225.5 C 29.509,221.53 26.509,217.53 23.5,213.5C 22.125,210.556 21.2917,207.556 21,204.5C 22.3267,207.131 23.6601,209.798 25,212.5C 29.0219,215.867 31.5219,220.201 32.5,225.5 Z"/></g>
<g><path style="opacity:1" fill="#e8faef" d="M 266.5,217.5 C 266.782,218.778 267.449,219.778 268.5,220.5C 264.571,223.634 261.071,227.301 258,231.5C 260.03,226.456 262.864,221.789 266.5,217.5 Z"/></g>
<g><path style="opacity:1" fill="#cee5dc" d="M 32.5,225.5 C 35.4086,228.981 38.0753,232.648 40.5,236.5C 38.4946,234.666 36.3279,232.999 34,231.5C 32.872,229.655 32.372,227.655 32.5,225.5 Z"/></g>
<g><path style="opacity:1" fill="#e7f9ee" d="M 255.5,223.5 C 253.525,228.773 250.525,233.439 246.5,237.5C 245.5,238.167 244.5,238.833 243.5,239.5C 243.167,239.5 242.833,239.5 242.5,239.5C 246.844,234.127 251.177,228.794 255.5,223.5 Z"/></g>
<g><path style="opacity:1" fill="#bdd4ca" d="M 40.5,236.5 C 42.914,237.911 44.5806,239.911 45.5,242.5C 43.086,241.089 41.4194,239.089 40.5,236.5 Z"/></g>
<g><path style="opacity:1" fill="#d4ece2" d="M 235.5,242.5 C 235.631,241.761 235.464,241.094 235,240.5C 233.401,242.036 231.567,242.536 229.5,242C 232.472,238.511 235.805,235.678 239.5,233.5C 239.435,233.938 239.601,234.272 240,234.5C 242,233.167 243.667,231.5 245,229.5C 245.167,229.833 245.333,230.167 245.5,230.5C 242.491,234.836 239.157,238.836 235.5,242.5 Z"/></g>
<g><path style="opacity:1" fill="#bef4d8" d="M 242.5,239.5 C 242.833,239.5 243.167,239.5 243.5,239.5C 242.521,241.145 241.188,242.479 239.5,243.5C 239.401,241.85 240.401,240.517 242.5,239.5 Z"/></g>
<g><path style="opacity:1" fill="#e2f0eb" d="M 45.5,242.5 C 46.5832,242.539 47.5832,242.873 48.5,243.5C 55.058,251.557 62.7247,258.39 71.5,264C 70.1667,264.667 68.8333,264.667 67.5,264C 66.7433,262.488 65.7433,261.154 64.5,260C 63.5509,259.383 62.7175,259.549 62,260.5C 59.157,257.989 56.657,255.156 54.5,252C 49.9733,250.306 46.9733,247.139 45.5,242.5 Z"/></g>
<g><path style="opacity:1" fill="#daf0e5" d="M 72.5,255.5 C 75.0026,257.833 77.6693,259.999 80.5,262C 88.041,266.096 95.3743,270.262 102.5,274.5C 90.3493,270.759 79.3493,264.926 69.5,257C 70.4491,256.383 71.2825,256.549 72,257.5C 72.4643,256.906 72.631,256.239 72.5,255.5 Z"/></g>
<g><path style="opacity:1" fill="#6fbd98" d="M 207.5,264.5 C 205.938,265.976 204.271,267.476 202.5,269C 203.167,269.333 203.833,269.667 204.5,270C 203.167,270.667 203.167,271.333 204.5,272C 202.527,272.495 200.527,272.662 198.5,272.5C 198.5,273.5 198.5,274.5 198.5,275.5C 197.448,275.351 196.448,275.517 195.5,276C 198.019,279.038 200.519,278.872 203,275.5C 204.356,276.38 205.856,276.714 207.5,276.5C 200.649,279.889 193.315,281.889 185.5,282.5C 188.061,280.906 191.061,279.906 194.5,279.5C 193.675,278.614 192.675,278.281 191.5,278.5C 191.5,277.5 191.5,276.5 191.5,275.5C 188.998,275.251 186.498,274.917 184,274.5C 181.23,275.545 178.397,276.212 175.5,276.5C 175.5,276.167 175.5,275.833 175.5,275.5C 186.473,272.894 197.14,269.227 207.5,264.5 Z"/></g>
<g><path style="opacity:1" fill="#e3faf1" d="M 124.5,274.5 C 141.487,275.316 158.487,275.65 175.5,275.5C 175.5,275.833 175.5,276.167 175.5,276.5C 161.163,276.667 146.829,276.5 132.5,276C 129.635,275.817 126.969,275.317 124.5,274.5 Z"/></g>
<g><path style="opacity:1" fill="#64bd93" d="M 185.5,282.5 C 177.627,282.761 169.794,283.427 162,284.5C 153.844,283.855 145.678,283.521 137.5,283.5C 133.037,283.577 128.704,282.91 124.5,281.5C 123.329,280.655 121.995,279.989 120.5,279.5C 116.501,278.165 116.501,276.832 120.5,275.5C 133.607,277.145 146.774,278.145 160,278.5C 165.421,278.674 170.587,278.007 175.5,276.5C 178.397,276.212 181.23,275.545 184,274.5C 186.498,274.917 188.998,275.251 191.5,275.5C 191.5,276.5 191.5,277.5 191.5,278.5C 192.675,278.281 193.675,278.614 194.5,279.5C 191.061,279.906 188.061,280.906 185.5,282.5 Z"/></g>
<g><path style="opacity:1" fill="#9ed3bb" d="M 117.5,279.5 C 118.5,279.5 119.5,279.5 120.5,279.5C 121.995,279.989 123.329,280.655 124.5,281.5C 121.848,281.59 119.515,280.924 117.5,279.5 Z"/></g>
<g><path style="opacity:1" fill="#74bc9b" d="M 185.5,282.5 C 177.072,284.767 168.406,286.433 159.5,287.5C 159.5,287.167 159.5,286.833 159.5,286.5C 152.347,285.462 145.014,284.796 137.5,284.5C 137.5,284.167 137.5,283.833 137.5,283.5C 145.678,283.521 153.844,283.855 162,284.5C 169.794,283.427 177.627,282.761 185.5,282.5 Z"/></g>
<g><path style="opacity:1" fill="#cdeddf" d="M 137.5,284.5 C 145.014,284.796 152.347,285.462 159.5,286.5C 156.813,286.336 154.146,286.503 151.5,287C 150.584,287.278 149.918,287.778 149.5,288.5C 146.756,286.952 143.089,286.118 138.5,286C 137.944,285.617 137.611,285.117 137.5,284.5 Z"/></g>
<g><path style="opacity:1" fill="#a7c8b9" d="M 159.5,286.5 C 159.5,286.833 159.5,287.167 159.5,287.5C 156.375,288.479 153.042,288.813 149.5,288.5C 149.918,287.778 150.584,287.278 151.5,287C 154.146,286.503 156.813,286.336 159.5,286.5 Z"/></g>
</svg>
