<?xml version="1.0" standalone="no"?><!DOCTYPE svg PUBLIC "-//W3C//DTD SVG 1.1//EN" "http://www.w3.org/Graphics/SVG/1.1/DTD/svg11.dtd"><svg t="1699517313416" class="icon" viewBox="0 0 1024 1024" version="1.1" xmlns="http://www.w3.org/2000/svg" p-id="2384" xmlns:xlink="http://www.w3.org/1999/xlink" width="200" height="200"><path d="M415.7 587.3c-59.6 0-115.6-23.2-157.7-65.3-42.1-42.1-65.3-98.2-65.3-157.7s23.2-115.6 65.3-157.7 98.2-65.3 157.7-65.3 115.6 23.2 157.7 65.3c42.1 42.1 65.3 98.2 65.3 157.7S615.5 479.9 573.4 522c-42.1 42.1-98.2 65.3-157.7 65.3z m0-386.2c-89.9 0-163.1 73.2-163.1 163.1 0 89.9 73.2 163.1 163.1 163.1 89.9 0 163.1-73.2 163.1-163.1-0.1-89.9-73.2-163.1-163.1-163.1z" fill="#333333" p-id="2385"></path><path d="M767.5 879.1h-60c0-77.9-30.4-151.2-85.5-206.3s-128.4-85.5-206.3-85.5-151.2 30.4-206.3 85.5-85.5 128.4-85.5 206.3h-60c0-47.5 9.3-93.6 27.7-136.9 17.7-41.9 43.1-79.5 75.4-111.8 32.3-32.3 69.9-57.7 111.8-75.4 43.4-18.4 89.5-27.7 136.9-27.7s93.6 9.3 136.9 27.7c41.9 17.7 79.5 43.1 111.8 75.4 32.3 32.3 57.7 69.9 75.4 111.8 18.4 43.3 27.7 89.4 27.7 136.9z" fill="#333333" p-id="2386"></path><path d="M714.5 519.9l-26.2-54c51.5-25.1 83.6-72.4 83.6-123.4 0-78-73.2-141.4-163.1-141.4v-60c58.9 0 114.5 20.5 156.4 57.8 43 38.1 66.6 89.2 66.6 143.6 0 74.2-44.9 142.2-117.3 177.4z" fill="#F0C900" p-id="2387"></path><path d="M960.5 814.7h-60c0-70.4-23.9-138.7-67.2-192.3-42.6-52.6-101.4-88.2-165.7-100l10.9-59C756.9 477.9 828.4 521 880 584.7c51.9 64.2 80.5 145.9 80.5 230z" fill="#F0C900" p-id="2388"></path></svg>