<?xml version="1.0" standalone="no"?><!DOCTYPE svg PUBLIC "-//W3C//DTD SVG 1.1//EN" "http://www.w3.org/Graphics/SVG/1.1/DTD/svg11.dtd"><svg t="1700460645962" class="icon" viewBox="0 0 1024 1024" version="1.1" xmlns="http://www.w3.org/2000/svg" p-id="4834" xmlns:xlink="http://www.w3.org/1999/xlink" width="200" height="200"><path d="M64.9 63.9H961v640H64.9z" fill="#ffffff" p-id="4835"></path><path d="M966.1 708.9H59.9v-650H966v650z m-896.2-10H956v-630H69.9v630z" fill="#ffffff" p-id="4836"></path><path d="M766.1 226.4l-192 192.3-192-64.5-127.2 192.3" fill="#ffffff" p-id="4837"></path><path d="M259 549.3l-8.3-5.6 129.4-195.4 192.7 64.6 189.8-190 7.1 7-194.2 194.5-191.3-64.2z" fill="#ffffff" p-id="4838"></path><path d="M761.1 354.2h10V221.4h-133v10h123zM742.4 836.9H283.6V699.8h458.8v137.1z m-448.8-10h438.8V709.8H293.6v117.1zM189.7 908.4h646.5v20H189.7z" fill="#ffffff" p-id="4839"></path></svg>