<?xml version="1.0" standalone="no"?><!DOCTYPE svg PUBLIC "-//W3C//DTD SVG 1.1//EN" "http://www.w3.org/Graphics/SVG/1.1/DTD/svg11.dtd"><svg t="1699517387647" class="icon" viewBox="0 0 1024 1024" version="1.1" xmlns="http://www.w3.org/2000/svg" p-id="5312" xmlns:xlink="http://www.w3.org/1999/xlink" width="200" height="200"><path d="M508.10368 54.6048c-237.06624 0-429.22496 192.16384-429.22496 429.22496 0 237.05088 192.15872 429.22496 429.22496 429.22496 237.05088 0 429.22496-192.17408 429.22496-429.22496 0-237.06112-192.16896-429.22496-429.22496-429.22496z m-3.072 802.57024c-208.7424 0-377.95328-169.22112-377.95328-377.96352 0-208.73728 169.21088-377.95328 377.95328-377.95328 208.74752 0 377.9584 169.216 377.9584 377.95328 0 208.7424-169.21088 377.96352-377.9584 377.96352z" fill="#0686F9" p-id="5313"></path><path d="M507.65824 483.30752v1.03424l0.87552-0.512-0.87552-0.52224z" fill="#0686F9" p-id="5314"></path><path d="M506.81344 485.2992l2.5856-1.46944-2.5856-1.47456v2.944z" fill="#0686F9" p-id="5315"></path><path d="M770.55488 313.64096a28.0576 28.0576 0 0 0-39.64416 0l-287.06304 285.00992-158.59712-158.5408a28.04224 28.04224 0 0 0-39.61344 0 28.01664 28.01664 0 0 0 0 39.62368l174.30528 174.27968a27.79136 27.79136 0 0 0 19.77344 8.22272c1.37216 0 2.73408-0.14848 4.13696-0.26624 1.3056 0.2048 2.70848 0.26624 4.09088 0.26624a27.81184 27.81184 0 0 0 19.7888-8.22272l302.78144-300.7232a27.97568 27.97568 0 0 0 0.04096-39.64928z" fill="#0686F9" p-id="5316"></path></svg>