<?xml version="1.0" standalone="no"?><!DOCTYPE svg PUBLIC "-//W3C//DTD SVG 1.1//EN" "http://www.w3.org/Graphics/SVG/1.1/DTD/svg11.dtd"><svg t="1700460734968" class="icon" viewBox="0 0 1024 1024" version="1.1" xmlns="http://www.w3.org/2000/svg" p-id="6152" xmlns:xlink="http://www.w3.org/1999/xlink" width="200" height="200"><path d="M444.795 219.443c0-116.47 94.228-210.698 210.596-210.698s210.698 94.228 210.698 210.698c0 116.368-94.433 210.596-210.698 210.596-116.363 0.102-210.596-94.228-210.596-210.596z m299.955 232.33H566.036c-73.313 0-139.822 16.047-188.462 64.072h286.147v432.973H524.303c35.031 17.265 35.031 19.497 35.031 29.752 0 3.86 0 9.242-3.25 13.61 43.765 4.873 84.889 7.613 122.664 7.613 198.21 0 313.257-55.747 320.261-59.3l14.116-6.298h3.451v-219.94c0-148.756-122.865-262.59-271.626-262.59h-0.205l0.005 0.108zM527.247 980.808c0 10.762-86.922 19.394-195.773 19.394-108.954 0-197.197-8.632-197.197-19.394 0-7.716 47.32-14.316 111.493-17.362v-29.348H5.12V533.212h627.937V934.2H389.862v28.432c81.337 2.334 137.385 9.543 137.385 18.176z m57.472-80.016V563.978H53.05V900.69h531.675v0.102h-0.005z m-436.628-30.868h44.477v-192.42h-44.477v192.42z m66.611 0h30.869V725.632h-30.869v144.292z m46.915 0h44.477V629.37h-44.477v240.553z m167.644 0h44.477v-192.42h-44.477v192.42z m-54.221 0h32.087V725.632H375.04v144.292z m-46.812 0h30.868V660.137h-30.868v209.787z" p-id="6153" fill="#ffffff"></path></svg>