<?xml version="1.0" standalone="no"?><!DOCTYPE svg PUBLIC "-//W3C//DTD SVG 1.1//EN" "http://www.w3.org/Graphics/SVG/1.1/DTD/svg11.dtd"><svg t="1700487333989" class="icon" viewBox="0 0 1024 1024" version="1.1" xmlns="http://www.w3.org/2000/svg" p-id="2760" xmlns:xlink="http://www.w3.org/1999/xlink" width="200" height="200"><path d="M512 316.8c-60.7 0-110.1 49.4-110.1 110.1 0 51.7 35.8 96.1 85.8 107.4v127.4c0 13.4 10.9 24.2 24.2 24.2s24.2-10.9 24.2-24.2V534.2c50-11.2 85.8-55.7 85.8-107.4 0.2-60.6-49.2-110-109.9-110z m0 171.6c-34 0-61.6-27.6-61.6-61.6s27.6-61.6 61.6-61.6 61.6 27.6 61.6 61.6-27.6 61.6-61.6 61.6z" fill="#ffffff" p-id="2761"></path><path d="M809.3 233.1h-0.1c-17-0.8-43.5-2.7-74-7.3-99.4-19.8-171.8-66.4-198.3-85.5-6.5-4.7-14.2-7.1-22.1-7.1-1.2 0-2.4 0.1-3.6 0.2-1.2-0.1-2.4-0.2-3.6-0.2-8 0-15.6 2.5-22.2 7.1-26.5 19.1-98.8 65.7-198.3 85.5-30.5 4.6-57.1 6.5-74.1 7.3-20.3 1-36.1 17.6-36.1 37.9v265.8c0 37.6 18.3 88.8 51.7 144.2l0.5 0.8c33.4 56.5 77.2 109.3 123.3 148.7 54.8 46.9 109.5 71.7 158.3 71.7h1.1c48.7 0 103.4-24.8 158.2-71.7 46-39.4 89.7-92.1 123.2-148.5l0.6-1.1c33.3-55.4 51.6-106.7 51.6-144.2V271c0-20.3-15.9-36.9-36.1-37.9zM272 658.8c-0.6-1.1-1.2-2.2-2-3.3l-0.4-0.7c-0.7-1.2-1.5-2.5-2.2-3.6-24.9-42.7-39.1-81.1-39.1-105.4V282.4c22.9-1.6 46-4.6 68.6-9.2 64.6-10 153.6-32.7 214.2-84.7 60.7 51.9 149.6 74.7 214.2 84.7 22.7 4.5 45.7 7.6 68.6 9.2v263.5c0 24.2-14.2 62.6-39.1 105.3-0.7 1.2-1.5 2.5-2.2 3.7l-0.4 0.7c-0.7 1-1.4 2.1-2 3.3l-2.2 3.7c-18.2 29.5-40.4 59.1-64.4 85.9-0.4 0.5-0.8 0.9-1.4 1.4l-0.5 0.5-0.6 0.6C621 815 557.4 853.5 511.2 853.8c-46.3-0.3-109.9-38.8-170.2-102.9-0.2-0.2-0.3-0.4-0.5-0.5-0.8-0.9-1.7-1.7-2.5-2.4-23.2-25.9-44.8-54.9-63-84.1l-3-5.1z" fill="#ffffff" p-id="2762"></path></svg>