<?xml version="1.0" standalone="no"?><!DOCTYPE svg PUBLIC "-//W3C//DTD SVG 1.1//EN" "http://www.w3.org/Graphics/SVG/1.1/DTD/svg11.dtd"><svg t="1698771295375" class="icon" viewBox="0 0 1024 1024" version="1.1" xmlns="http://www.w3.org/2000/svg" p-id="3436" xmlns:xlink="http://www.w3.org/1999/xlink" width="200" height="200"><path d="M708.864 786.112v-77.248h77.248v156.352c0 20.864-7.68 39.232-22.976 55.168a72.96 72.96 0 0 1-54.272 23.936H315.136a72.96 72.96 0 0 1-54.272-23.936 77.44 77.44 0 0 1-22.976-55.168v-156.352h77.248v77.248h393.728zM432.896 637.12l-55.168 55.168L197.44 512l180.288-180.288 55.168 55.168L309.632 512l123.264 125.12z m213.376 55.168l-55.168-55.168L714.368 512 591.104 386.88l55.168-55.168L826.56 512l-180.288 180.288z m-331.136-454.4v77.248H237.888V158.784c0-20.864 7.68-39.232 22.976-55.168a72.96 72.96 0 0 1 54.272-23.936l393.664 1.856c20.864 0 38.912 7.68 54.272 22.976 15.36 15.36 22.976 33.408 22.976 54.272v156.352h-77.248V237.888H315.136z" fill="#ffffff" p-id="3437"></path></svg>