<?xml version="1.0" standalone="no"?><!DOCTYPE svg PUBLIC "-//W3C//DTD SVG 1.1//EN" "http://www.w3.org/Graphics/SVG/1.1/DTD/svg11.dtd"><svg t="1700487256914" class="icon" viewBox="0 0 1024 1024" version="1.1" xmlns="http://www.w3.org/2000/svg" p-id="2556" xmlns:xlink="http://www.w3.org/1999/xlink" width="200" height="200"><path d="M924.17025 258.44833h0.04335c-55.093306 0-103.987667-35.705346-121.41046-88.638413l-5.639017-17.198822C779.74133 99.674415 730.836131 63.940169 675.742825 63.940169H348.239112c-55.093306 0-104.009342 35.734246-121.432134 88.667313L221.175186 169.784629C203.741555 222.728534 154.836357 258.441106 99.743051 258.441106H99.703314c-19.738366 0-35.763145 16.209013-35.763145 36.20025V777.035613h0.469617l397.129861 172.493959a126.731582 126.731582 0 0 0 100.920706 0L959.590214 777.035613h0.234808V294.644969c0-19.991237-15.916406-36.196638-35.654772-36.196639zM895.884854 734.860388l-358.989731 155.992338a62.495193 62.495193 0 0 1-49.931131 0L127.880338 734.860388V320.296897a187.991322 187.991322 0 0 0 31.699152-7.557222 192.21065 192.21065 0 0 0 94.609775-68.997583 193.821798 193.821798 0 0 0 27.714631-53.944551L287.550138 172.598719C296.357265 145.870284 320.748452 127.880338 348.239112 127.880338h327.503713c27.50511 0 51.89991 17.989946 60.688974 44.718381l5.649855 17.187985A193.312444 193.312444 0 0 0 811.715027 285.621096a190.660914 190.660914 0 0 0 52.586273 27.118579 195.34986 195.34986 0 0 0 31.583554 7.557222v414.563491z" fill="#ffffff" p-id="2557"></path><path d="M511.998194 255.999097c-141.383635 0-255.999097 114.615462-255.999097 255.999097S370.614559 768.004516 511.998194 768.004516 768.004516 653.385441 768.004516 511.998194s-114.619075-255.999097-256.006322-255.999097z m177.009507 330.736846a192.904239 192.904239 0 1 1 15.056646-74.737749 191.936105 191.936105 0 0 1-15.071096 74.741361z" fill="#ffffff" p-id="2558"></path><path d="M596.052423 425.393583l-105.392906 105.392906-62.726389-62.72639a31.970084 31.970084 0 0 0-45.213286 45.213286l85.333032 85.333032a31.970084 31.970084 0 0 0 45.213286 0l127.999548-127.999548A31.970084 31.970084 0 0 0 596.052423 425.393583z" fill="#ffffff" p-id="2559"></path></svg>