<?xml version="1.0" standalone="no"?><!DOCTYPE svg PUBLIC "-//W3C//DTD SVG 1.1//EN" "http://www.w3.org/Graphics/SVG/1.1/DTD/svg11.dtd"><svg t="1700451187657" class="icon" viewBox="0 0 1024 1024" version="1.1" xmlns="http://www.w3.org/2000/svg" p-id="3610" id="mx_n_1700451187658" xmlns:xlink="http://www.w3.org/1999/xlink" width="200" height="200"><path d="M167.3216 162.57024l33.4848 0 0 222.78144c0 16.83456 13.58848 30.39232 30.33088 30.39232l82.8416 0c16.73216 0 30.33088-13.55776 30.33088-30.39232L344.30976 162.57024l33.4848 0c7.66976 0 14.66368-4.47488 17.89952-11.42784 3.23584-7.02464 2.10944-15.18592-2.85696-21.08416L303.2064 24.69888c-7.66976-9.00096-18.87232-14.15168-30.63808-14.15168-11.79648 0-23.00928 5.15072-30.64832 14.15168l-89.64096 105.3696c-4.93568 5.89824-6.10304 14.05952-2.85696 21.08416C152.61696 158.09536 159.6416 162.57024 167.3216 162.57024z" p-id="3611" fill="#ffffff"></path><path d="M370.51392 308.80768l327.50592 0 0 19.68128 108.04224 0 0-57.79456c0-39.74144-32.88064-69.86752-72.68352-69.86752L370.51392 200.82688 370.51392 308.80768z" p-id="3612" fill="#ffffff"></path><path d="M698.01984 717.89568 151.49056 717.89568 151.49056 308.80768l18.69824 0L170.1888 200.81664l-53.61664 0c-39.77216 0-71.95648 30.12608-71.95648 69.86752L44.61568 752.0256c0 39.91552 32.19456 73.76896 71.95648 73.76896l254.8224 0 0 79.6672-94.6176 0c-36.17792 0-67.38944 29.3888-67.38944 65.51552l0 42.45504 431.80032 0 0-42.45504c0-36.12672-27.7504-65.51552-63.86688-65.51552l-98.03776 0 0-79.6672 254.09536 0c39.80288 0 72.68352-33.85344 72.68352-73.76896l0-53.8624L698.01984 698.1632 698.01984 717.89568z" p-id="3613" fill="#ffffff"></path><path d="M905.41056 659.16928l-98.77504-70.13376c-3.25632-2.33472-7.74144-1.81248-10.41408 1.13664l-26.50112 29.51168c-3.7376 4.1472-9.0624 6.53312-14.65344 6.53312s-10.91584-2.37568-14.6432-6.5536l-26.48064-29.4912c-2.67264-2.9696-7.15776-3.47136-10.41408-1.13664l-97.20832 69.0176c-1.97632 1.40288-2.82624 3.93216-2.08896 6.23616 0.74752 2.32448 2.88768 3.88096 5.3248 3.88096l292.94592 0.03072c2.17088 0 4.08576-1.4336 4.74112-3.4816S907.17184 660.39808 905.41056 659.16928z" p-id="3614" fill="#ffffff"></path><path d="M967.79264 406.81472c-3.04128-1.16736-6.48192-0.33792-8.67328 2.08896L838.00064 543.70304c-1.49504 1.66912-2.21184 3.90144-1.96608 6.144 0.24576 2.22208 1.4336 4.22912 3.26656 5.55008l121.09824 85.97504c2.39616 1.69984 5.55008 1.92512 8.16128 0.57344 2.62144-1.35168 4.27008-4.0448 4.27008-7.00416l0.02048-220.78464C972.8512 410.90048 970.84416 407.97184 967.79264 406.81472z" p-id="3615" fill="#ffffff"></path><path d="M749.23008 560.128c1.49504 1.65888 3.62496 2.60096 5.85728 2.60096 2.23232 0 4.36224-0.94208 5.85728-2.60096l168.96-188.04736c2.07872-2.31424 2.60096-5.632 1.3312-8.47872-1.26976-2.82624-4.07552-4.6592-7.18848-4.6592L586.1376 358.93248c-3.10272 0-5.92896 1.83296-7.18848 4.66944s-0.73728 6.15424 1.3312 8.46848L749.23008 560.128z" p-id="3616" fill="#ffffff"></path><path d="M674.1504 549.8368c0.24576-2.24256-0.4608-4.47488-1.96608-6.144L551.05536 408.90368c-2.18112-2.43712-5.632-3.25632-8.67328-2.08896-3.04128 1.16736-5.05856 4.08576-5.05856 7.34208l0 220.8256c0 2.93888 1.6384 5.65248 4.27008 6.98368 2.60096 1.36192 5.76512 1.13664 8.16128-0.5632l121.1392-86.00576C672.7168 554.0864 673.90464 552.05888 674.1504 549.8368z" p-id="3617" fill="#ffffff"></path></svg>