<?xml version="1.0" standalone="no"?><!DOCTYPE svg PUBLIC "-//W3C//DTD SVG 1.1//EN" "http://www.w3.org/Graphics/SVG/1.1/DTD/svg11.dtd"><svg t="1698656236142" class="icon" viewBox="0 0 1024 1024" version="1.1" xmlns="http://www.w3.org/2000/svg" p-id="4310" xmlns:xlink="http://www.w3.org/1999/xlink" width="200" height="200"><path d="M661.07904 779.43808H210.7904V162.55488h523.83744v-39.79776c0-32.9728-26.05056-59.6992-58.19904-59.6992H210.7904c-32.15872 0-58.20928 26.7264-58.20928 59.6992v776.07424c0 32.96256 26.05056 59.6992 58.20928 59.6992h465.64864c32.14336 0 58.20416-26.73152 58.1888-59.68896v-119.24992h-73.5488v-0.1536zM375.70048 112.80896c0-5.49376 4.35712-9.95328 9.70752-9.95328h97.00352c5.3504 0 9.70752 4.45952 9.70752 9.95328v9.94304c0 5.49376-4.35712 9.95328-9.70752 9.95328H385.408c-5.3504 0-9.70752-4.45952-9.70752-9.95328v-9.94304z m67.9168 786.0224c-21.43232 0-38.80448-17.8176-38.80448-39.78752 0-21.98016 17.3824-39.79776 38.80448-39.79776 21.4272 0 38.79936 17.8176 38.79936 39.79776 0 21.9648-17.36704 39.78752-38.79936 39.78752z" fill="#2c2c2c" p-id="4311"></path><path d="M450.74944 260.38272H298.13248c-7.81312 0-15.63648 5.09952-16.53248 14.0544-0.91136 9.51296 6.912 17.55648 16.41984 17.55648h152.84224c8.38144 0 16.65536-5.78048 16.65536-15.86176-0.11776-9.96864-6.80448-15.74912-16.768-15.74912zM381.07136 634.8288H307.7632c-7.24992 0-14.3872 4.98176-14.3872 13.70112 0 8.61184 5.77536 13.7216 14.3872 13.7216h73.30304c7.25504 0 14.39232-4.992 14.39232-13.7216-0.11776-8.71936-5.888-13.70112-14.3872-13.70112zM430.35648 678.77888H373.36064c-5.55008 0-11.20768 3.86048-11.20768 10.6496 0 6.69184 4.41856 10.09152 11.20768 10.09152h56.99584c5.54496 0 11.2128-3.29216 11.2128-10.09152-0.11264-6.79936-4.53632-10.6496-11.2128-10.6496zM435.42016 349.11744l226.58048 150.528c5.79072 4.82304 17.43872 4.82304 23.2192 0l235.3408-157.7984c0-12.17536-14.5408-21.81632-29.09184-21.81632H455.66976c-14.55104 0-29.10208 12.18048-29.10208 24.2688v2.45248c3.072-0.08704 5.9648-0.08704 8.85248 2.36544z" fill="#2c2c2c" p-id="4312"></path><path d="M702.65856 519.10144c-8.66816 4.80768-17.42848 7.26016-29.09184 7.26016s-20.33152-2.45248-29.09184-7.26016L426.65984 373.39136v237.8752c0 12.18048 14.55104 24.2688 29.09696 24.2688h435.80928c14.54592 0 29.08672-12.18048 29.08672-24.2688v-237.8752l-217.99424 145.71008z" fill="#2c2c2c" p-id="4313"></path></svg>