<?xml version="1.0" standalone="no"?><!DOCTYPE svg PUBLIC "-//W3C//DTD SVG 1.1//EN" "http://www.w3.org/Graphics/SVG/1.1/DTD/svg11.dtd"><svg t="1699517458366" class="icon" viewBox="0 0 1024 1024" version="1.1" xmlns="http://www.w3.org/2000/svg" p-id="6418" xmlns:xlink="http://www.w3.org/1999/xlink" width="200" height="200"><path d="M488.776043 114.519856a422.259031 422.259031 0 1 0 422.258032 422.259031 422.72301 422.72301 0 0 0-422.258032-422.259031m0-64.963082A487.221113 487.221113 0 1 1 1.55293 536.778887 487.221113 487.221113 0 0 1 488.776043 49.556774z" fill="#E9E9E9" p-id="6419"></path><path d="M336.947864 747.07244a27.840749 27.840749 0 0 1-19.720114-7.934643 27.840749 27.840749 0 0 1-8.166634-19.721115 27.840749 27.840749 0 0 1 8.166634-19.720114l332.79505-332.79505a27.840749 27.840749 0 0 1 39.348232 0 27.840749 27.840749 0 0 1 0 39.441228l-332.702054 332.795051a27.840749 27.840749 0 0 1-19.303133 7.934643zM531.049144 636.264418a83.523248 83.523248 0 0 1 83.199263-83.291259 83.24526 83.24526 0 0 1 83.152264 83.291259 83.152265 83.152265 0 0 1-83.152264 83.152264 83.24526 83.24526 0 0 1-83.199263-83.384254z m55.682499 0a27.840749 27.840749 0 0 0 27.840749 27.841749 27.840749 27.840749 0 0 0 27.84175-27.841749 27.840749 27.840749 0 0 0-27.84175-27.84075 27.840749 27.840749 0 0 0-27.979743 27.60876z m-277.437537-166.444523a83.24526 83.24526 0 0 1 83.291258-83.152265 83.24526 83.24526 0 0 1 83.199263 83.152265 83.24526 83.24526 0 0 1-83.199263 83.153264 83.24526 83.24526 0 0 1-83.47725-83.385254z m55.682499 0a27.840749 27.840749 0 0 0 27.840749 27.841749 27.840749 27.840749 0 0 0 27.840749-27.841749 27.840749 27.840749 0 0 0-27.840749-27.84075 27.840749 27.840749 0 0 0-28.026741 27.60876z m596.869187-13.641387H840.317251a273.771702 273.771702 0 0 0-273.771701-273.772702V0a455.853522 455.853522 0 0 1 455.853522 455.853522z" p-id="6420"></path></svg>