<?xml version="1.0" standalone="no"?><!DOCTYPE svg PUBLIC "-//W3C//DTD SVG 1.1//EN" "http://www.w3.org/Graphics/SVG/1.1/DTD/svg11.dtd"><svg t="1698656812431" class="icon" viewBox="0 0 1024 1024" version="1.1" xmlns="http://www.w3.org/2000/svg" p-id="5957" xmlns:xlink="http://www.w3.org/1999/xlink" width="200" height="200"><path d="M744 112c17.673 0 32 14.327 32 32v240.873c-35.346 0-64-28.653-64-64L711.999 176h-536v672h229.582c34.993 0 63.426 28.084 63.991 62.942l0.01 1.058H144c-17.673 0-32-14.327-32-32V144c0-17.673 14.327-32 32-32h600z m23.243 369.26l135.764 135.764c12.497 12.497 12.497 32.758 0 45.255L767.243 798.043c-24.994-24.993-24.994-65.516 0-90.51L802.773 672H699c-37.18 0-67.39 29.839-67.99 66.875L631 740v40c0 37.18 29.839 67.39 66.875 67.99L699 848h148.804c34.993 0 63.426 28.084 63.992 62.942l0.008 1.058H699c-72.173 0-130.817-57.922-131.982-129.817L567 780v-40c0-72.173 57.922-130.817 129.817-131.982L699 608h104.474l-36.231-36.23c-24.744-24.744-24.991-64.708-0.743-89.756l0.743-0.754zM408 424c30.619 0 55.498 24.573 55.992 55.074L464 480H302c-30.928 0-56-25.072-56-56h162z m178-156c30.619 0 55.498 24.573 55.992 55.074L642 324H302c-30.928 0-56-25.072-56-56h340z" fill="#ffffff" fill-opacity=".65" p-id="5958"></path></svg>