<?xml version="1.0" standalone="no"?><!DOCTYPE svg PUBLIC "-//W3C//DTD SVG 1.1//EN" "http://www.w3.org/Graphics/SVG/1.1/DTD/svg11.dtd"><svg t="1698888072246" class="icon" viewBox="0 0 1024 1024" version="1.1" xmlns="http://www.w3.org/2000/svg" p-id="4616" xmlns:xlink="http://www.w3.org/1999/xlink" width="200" height="200"><path d="M357.2499593 449.1307373v-80.83190917c11.28845215-0.74157715 22.164917-2.05993653 33.12377931-2.05993653 142.3828125-0.16479492 284.84802247-0.16479492 427.23083495-0.08239746 36.25488281 0 38.89160156 3.70788575 33.61816407 43.75305176-1.89514161 14.3371582 0.90637207 35.67810059-6.17980958 41.36352539-9.22851563 7.41577148-26.20239258 2.55432129-39.88037108 2.55432129-134.39025879 0.08239747-268.78051758 0.24719239-403.08837892-0.08239746-14.17236328 0-28.42712403-2.80151367-44.82421874-4.61425781zM356.50838216 530.37463379h100.60729981c123.10180664 0 246.20361328 0.41198731 369.22302245-0.49438477 18.78662109-0.16479492 26.69677734 5.19104004 24.80163575 27.35595704-1.40075684 16.8914795-0.24719239 34.03015137-0.24719239 54.87670897-13.26599122 1.81274414-28.01513672 5.60302734-42.76428223 5.60302735-136.77978516 0.49438477-273.47717286 0.41198731-410.256958 0.16479492-9.47570801 0-19.44580078-0.98876953-28.34472656-4.44946289-5.19104004-1.97753906-12.0300293-9.39331055-12.44201661-14.83154297-1.4831543-21.42333984-0.57678223-43.09387208-0.57678222-68.22509765zM357.57954915 204.49267578c11.86523438-0.90637207 22.90649414-2.47192383 33.94775391-2.47192383 144.11315918-0.16479492 288.1439209 0.49438477 432.25708007-0.49438476 21.67053223-0.16479492 30.89904786 6.42700195 28.67431642 31.640625-1.15356445 13.26599122 1.89514161 27.19116211-0.41198731 39.96276856-1.15356445 6.50939942-10.21728516 15.90270997-15.65551758 15.90270995-132.49511719-0.16479492-264.90783692-1.40075684-397.40295411-2.38952636-26.77917481-0.16479492-53.47595215 0-81.40869139 0v-82.15026856zM356.42598469 694.51037598h62.78686525c135.79101563 0.08239747 271.66442872 0.32958984 407.45544433-0.16479493 18.70422364-0.08239747 28.83911133 3.54309083 24.8840332 28.75671387-2.55432129 16.56188965-0.49438477 34.11254883-0.49438476 53.88793946-5.68542481 0.41198731-13.51318359 1.40075684-21.34094239 1.40075684-144.68994141 0-289.29748536-0.08239747-433.98742676-0.16479493-39.22119141 0-39.22119141-0.08239747-39.38598632-43.09387207 0-11.86523438 0.08239747-23.64807129 0.08239746-40.62194825zM235.87849935 530.37463379c23.97766114 0.32958984 45.48339844 22.90649414 44.74182129 46.96655273-0.65917969 21.17614747-19.69299317 39.46838379-41.36352539 39.88037109-23.15368653 0.41198731-45.31860352-22.98889161-44.49462891-46.96655273 0.65917969-22.90649414 18.62182617-40.20996094 41.11633301-39.8803711zM238.26802571 450.44909667c-24.63684083-0.49438477-43.83544922-19.28100586-44.00024413-43.0114746-0.08239747-23.15368653 19.77539063-42.26989747 42.68188476-41.11633301 24.06005859 1.23596192 44.65942383 23.81286622 43.58825683 47.79052735-0.90637207 22.00012208-18.20983887 36.83166504-42.26989746 36.33728027zM240.98714192 286.14855957c-27.10876465 0.32958984-47.21374512-17.71545411-46.80175781-42.10510254 0.32958984-22.49450684 20.10498047-42.02270508 42.51708985-41.94030761 21.58813477 0.08239747 43.50585938 22.65930176 43.75305176 45.07141113 0.32958984 24.71923828-13.76037598 38.64440918-39.4683838 38.97399902zM237.77364094 778.06140137c-25.87280273-0.74157715-43.83544922-18.86901856-43.17626952-43.34106446 0.65917969-24.06005859 19.03381348-40.86914063 43.34106445-39.63317871 23.40087891 1.23596192 42.51708984 21.91772461 42.35229493 45.89538575-0.16479492 20.10498047-20.26977539 37.73803711-42.51708985 37.07885742z" fill="#3FA9F5" p-id="4617"></path></svg>