<?xml version="1.0" standalone="no"?><!DOCTYPE svg PUBLIC "-//W3C//DTD SVG 1.1//EN" "http://www.w3.org/Graphics/SVG/1.1/DTD/svg11.dtd"><svg t="1698887828912" class="icon" viewBox="0 0 1024 1024" version="1.1" xmlns="http://www.w3.org/2000/svg" p-id="2334" xmlns:xlink="http://www.w3.org/1999/xlink" width="200" height="200"><path d="M888.163265 62.693878h-125.387755V20.897959c0-12.538776-8.359184-20.897959-20.897959-20.897959s-20.897959 8.359184-20.897959 20.897959v41.795919H303.020408V20.897959c0-12.538776-8.359184-20.897959-20.897959-20.897959s-20.897959 8.359184-20.897959 20.897959v41.795919H135.836735C77.322449 62.693878 31.346939 108.669388 31.346939 167.183673v752.326531c0 58.514286 45.97551 104.489796 104.489796 104.489796h752.32653c58.514286 0 104.489796-45.97551 104.489796-104.489796V167.183673c0-58.514286-45.97551-104.489796-104.489796-104.489795z m62.693878 856.816326c0 35.526531-27.167347 62.693878-62.693878 62.693878H135.836735c-35.526531 0-62.693878-27.167347-62.693878-62.693878V167.183673c0-35.526531 27.167347-62.693878 62.693878-62.693877h125.387755v83.591837c0 12.538776 8.359184 20.897959 20.897959 20.897959s20.897959-8.359184 20.897959-20.897959V104.489796h417.959184v83.591837c0 12.538776 8.359184 20.897959 20.897959 20.897959s20.897959-8.359184 20.897959-20.897959V104.489796h125.387755c35.526531 0 62.693878 27.167347 62.693878 62.693877v752.326531z" p-id="2335"></path><path d="M783.673469 334.367347H240.326531c-12.538776 0-20.897959 8.359184-20.89796 20.897959s8.359184 20.897959 20.89796 20.897959h543.346938c12.538776 0 20.897959-8.359184 20.89796-20.897959s-8.359184-20.897959-20.89796-20.897959z" p-id="2336"></path></svg>